0,0,Header,1,3,480
1,0,Start_track
1,0,Note_on_c,0,57,65
1,0,Note_on_c,0,58,65
1,0,Note_on_c,0,59,65
1,0,Note_on_c,0,64,65
1,0,Note_on_c,0,65,65
1,0,Note_on_c,0,67,65
1,60,Note_on_c,0,56,65
1,60,Note_off_c,0,58,0
1,60,Note_on_c,0,60,65
1,60,Note_on_c,0,61,65
1,60,Note_on_c,0,63,65
1,60,Note_off_c,0,64,0
1,60,Note_on_c,0,66,65
1,120,Note_off_c,0,56,0
1,120,Note_on_c,0,62,65
1,120,Note_off_c,0,63,0
1,120,Note_on_c,0,64,65
1,120,Note_off_c,0,67,0
1,180,Note_off_c,0,57,0
1,180,Note_off_c,0,59,0
1,180,Note_on_c,0,63,65
1,180,Note_off_c,0,64,0
1,180,Note_off_c,0,66,0
1,180,Note_on_c,0,67,65
1,240,Note_on_c,0,56,65
1,240,Note_on_c,0,58,65
1,240,Note_on_c,0,59,65
1,240,Note_off_c,0,62,0
1,240,Note_off_c,0,63,0
1,240,Note_off_c,0,67,0
1,300,Note_off_c,0,56,0
1,300,Note_on_c,0,57,65
1,300,Note_off_c,0,58,0
1,300,Note_off_c,0,60,0
1,300,Note_off_c,0,61,0
1,300,Note_on_c,0,62,65
1,300,Note_on_c,0,63,65
1,300,Note_on_c,0,64,65
1,300,Note_on_c,0,67,65
1,360,Note_on_c,0,58,65
1,360,Note_off_c,0,59,0
1,360,Note_on_c,0,60,65
1,360,Note_on_c,0,61,65
1,360,Note_off_c,0,64,0
1,360,Note_off_c,0,67,0
1,420,Note_off_c,0,61,0
1,420,Note_off_c,0,63,0
1,420,Note_on_c,0,64,65
1,420,Note_on_c,0,66,65
1,480,Note_on_c,0,59,65
1,480,Note_off_c,0,62,0
1,480,Note_on_c,0,63,65
1,480,Note_off_c,0,64,0
1,480,Note_off_c,0,66,0
1,480,Note_on_c,0,67,65
1,540,Note_on_c,0,56,65
1,540,Note_off_c,0,57,0
1,540,Note_off_c,0,58,0
1,540,Note_on_c,0,61,65
1,540,Note_off_c,0,63,0
1,600,Note_on_c,0,57,65
1,600,Note_off_c,0,59,0
1,600,Note_off_c,0,60,0
1,600,Note_off_c,0,61,0
1,600,Note_on_c,0,62,65
1,600,Note_on_c,0,63,65
1,600,Note_off_c,0,65,0
1,600,Note_on_c,0,66,65
1,660,Note_off_c,0,56,0
1,660,Note_on_c,0,58,65
1,660,Note_on_c,0,59,65
1,660,Note_on_c,0,60,65
1,660,Note_off_c,0,63,0
1,660,Note_on_c,0,64,65
1,660,Note_off_c,0,66,0
1,660,Note_off_c,0,67,0
1,720,Note_off_c,0,59,0
1,720,Note_off_c,0,60,0
1,720,Note_off_c,0,62,0
1,720,Note_off_c,0,64,0
1,720,Note_on_c,0,65,65
1,780,Note_off_c,0,57,0
1,780,Note_off_c,0,58,0
1,780,Note_on_c,0,59,65
1,780,Note_on_c,0,60,65
1,780,Note_on_c,0,61,65
1,780,Note_on_c,0,63,65
1,780,Note_on_c,0,64,65
1,780,Note_off_c,0,65,0
1,780,Note_on_c,0,66,65
1,780,Note_on_c,0,67,65
1,840,Note_on_c,0,56,65
1,840,Note_on_c,0,57,65
1,840,Note_on_c,0,58,65
1,840,Note_off_c,0,60,0
1,840,Note_off_c,0,61,0
1,840,Note_off_c,0,64,0
1,840,Note_off_c,0,66,0
1,840,Note_off_c,0,67,0
1,900,Note_off_c,0,56,0
1,900,Note_off_c,0,57,0
1,900,Note_off_c,0,58,0
1,900,Note_off_c,0,59,0
1,900,Note_on_c,0,61,65
1,900,Note_on_c,0,62,65
1,900,Note_on_c,0,64,65
1,900,Note_on_c,0,65,65
1,900,Note_on_c,0,66,65
1,960,Note_on_c,0,58,65
1,960,Note_on_c,0,59,65
1,960,Note_on_c,0,60,65
1,960,Note_off_c,0,61,0
1,960,Note_off_c,0,62,0
1,960,Note_off_c,0,64,0
1,960,Note_off_c,0,65,0
1,960,Note_off_c,0,66,0
1,960,Note_on_c,0,67,65
1,1020,Note_off_c,0,58,0
1,1020,Note_off_c,0,60,0
1,1020,Note_on_c,0,62,65
1,1020,Note_on_c,0,66,65
1,1020,Note_off_c,0,67,0
1,1080,Note_on_c,0,57,65
1,1080,Note_on_c,0,58,65
1,1080,Note_off_c,0,59,0
1,1080,Note_off_c,0,62,0
1,1080,Note_on_c,0,65,65
1,1080,Note_on_c,0,67,65
1,1140,Note_on_c,0,56,65
1,1140,Note_off_c,0,57,0
1,1140,Note_on_c,0,59,65
1,1140,Note_on_c,0,60,65
1,1140,Note_on_c,0,61,65
1,1140,Note_on_c,0,64,65
1,1140,Note_off_c,0,66,0
1,1140,Note_off_c,0,67,0
1,1200,Note_off_c,0,56,0
1,1200,Note_on_c,0,57,65
1,1200,Note_off_c,0,58,0
1,1200,Note_off_c,0,59,0
1,1200,Note_off_c,0,61,0
1,1200,Note_on_c,0,62,65
1,1200,Note_off_c,0,63,0
1,1200,Note_off_c,0,64,0
1,1260,Note_on_c,0,56,65
1,1260,Note_on_c,0,59,65
1,1260,Note_off_c,0,60,0
1,1260,Note_on_c,0,61,65
1,1260,Note_on_c,0,64,65
1,1260,Note_off_c,0,65,0
1,1260,Note_on_c,0,67,65
1,1320,Note_off_c,0,56,0
1,1320,Note_off_c,0,57,0
1,1320,Note_on_c,0,58,65
1,1320,Note_on_c,0,60,65
1,1320,Note_off_c,0,61,0
1,1320,Note_on_c,0,65,65
1,1320,Note_on_c,0,66,65
1,1380,Note_on_c,0,56,65
1,1380,Note_on_c,0,57,65
1,1380,Note_off_c,0,58,0
1,1380,Note_off_c,0,59,0
1,1380,Note_off_c,0,60,0
1,1380,Note_on_c,0,61,65
1,1380,Note_off_c,0,62,0
1,1380,Note_off_c,0,64,0
1,1380,Note_off_c,0,65,0
1,1380,Note_off_c,0,67,0
1,1440,Note_off_c,0,56,0
1,1440,Note_off_c,0,57,0
1,1440,Note_on_c,0,59,65
1,1440,Note_on_c,0,60,65
1,1500,Note_on_c,0,56,65
1,1500,Note_on_c,0,57,65
1,1500,Note_on_c,0,58,65
1,1500,Note_off_c,0,59,0
1,1500,Note_off_c,0,60,0
1,1500,Note_off_c,0,66,0
1,1500,Note_on_c,0,67,65
1,1560,Note_off_c,0,56,0
1,1560,Note_off_c,0,57,0
1,1560,Note_off_c,0,58,0
1,1560,Note_on_c,0,59,65
1,1560,Note_off_c,0,61,0
1,1560,Note_on_c,0,62,65
1,1560,Note_on_c,0,66,65
1,1560,Note_off_c,0,67,0
1,1620,Note_on_c,0,57,65
1,1620,Note_on_c,0,60,65
1,1620,Note_on_c,0,61,65
1,1620,Note_off_c,0,62,0
1,1620,Note_on_c,0,63,65
1,1620,Note_on_c,0,64,65
1,1620,Note_on_c,0,65,65
1,1680,Note_off_c,0,57,0
1,1680,Note_off_c,0,61,0
1,1680,Note_on_c,0,62,65
1,1680,Note_off_c,0,66,0
1,1680,Note_on_c,0,67,65
1,1740,Note_on_c,0,57,65
1,1740,Note_off_c,0,59,0
1,1740,Note_off_c,0,60,0
1,1740,Note_on_c,0,61,65
1,1740,Note_off_c,0,62,0
1,1740,Note_off_c,0,64,0
1,1740,Note_off_c,0,65,0
1,1740,Note_off_c,0,67,0
1,1800,Note_on_c,0,56,65
1,1800,Note_on_c,0,60,65
1,1800,Note_on_c,0,62,65
1,1860,Note_off_c,0,56,0
1,1860,Note_on_c,0,58,65
1,1860,Note_on_c,0,59,65
1,1860,Note_off_c,0,61,0
1,1860,Note_off_c,0,63,0
1,1920,Note_on_c,0,56,65
1,1920,Note_off_c,0,57,0
1,1920,Note_off_c,0,59,0
1,1920,Note_off_c,0,60,0
1,1920,Note_on_c,0,64,65
1,1920,Note_on_c,0,65,65
1,1920,Note_on_c,0,66,65
1,1980,Note_off_c,0,58,0
1,1980,Note_on_c,0,61,65
1,1980,Note_off_c,0,64,0
1,1980,Note_off_c,0,65,0
1,1980,Note_off_c,0,66,0
1,1980,Note_on_c,0,67,65
1,2040,Note_on_c,0,57,65
1,2040,Note_on_c,0,58,65
1,2040,Note_on_c,0,64,65
1,2040,Note_on_c,0,65,65
1,2040,Note_off_c,0,67,0
1,2100,Note_on_c,0,59,65
1,2100,Note_on_c,0,60,65
1,2100,Note_off_c,0,64,0
1,2100,Note_off_c,0,65,0
1,2160,Note_off_c,0,56,0
1,2160,Note_off_c,0,57,0
1,2160,Note_off_c,0,58,0
1,2160,Note_off_c,0,60,0
1,2160,Note_off_c,0,61,0
1,2160,Note_on_c,0,64,65
1,2160,Note_on_c,0,66,65
1,2160,Note_on_c,0,67,65
1,2220,Note_on_c,0,56,65
1,2220,Note_on_c,0,57,65
1,2220,Note_off_c,0,59,0
1,2220,Note_on_c,0,60,65
1,2220,Note_on_c,0,61,65
1,2220,Note_off_c,0,62,0
1,2220,Note_off_c,0,66,0
1,2220,Note_off_c,0,67,0
1,2280,Note_off_c,0,56,0
1,2280,Note_off_c,0,57,0
1,2280,Note_on_c,0,59,65
1,2280,Note_off_c,0,60,0
1,2280,Note_off_c,0,61,0
1,2280,Note_on_c,0,62,65
1,2280,Note_on_c,0,63,65
1,2280,Note_off_c,0,64,0
1,2340,Note_on_c,0,58,65
1,2340,Note_off_c,0,59,0
1,2340,Note_on_c,0,61,65
1,2340,Note_off_c,0,62,0
1,2340,Note_on_c,0,65,65
1,2340,Note_on_c,0,66,65
1,2400,Note_off_c,0,63,0
1,2400,Note_off_c,0,66,0
1,2400,Note_on_c,0,67,65
1,2460,Note_on_c,0,57,65
1,2460,Note_on_c,0,60,65
1,2460,Note_off_c,0,61,0
1,2460,Note_on_c,0,63,65
1,2460,Note_off_c,0,67,0
1,2520,Note_off_c,0,60,0
1,2520,Note_on_c,0,62,65
1,2520,Note_off_c,0,63,0
1,2520,Note_on_c,0,64,65
1,2580,Note_on_c,0,56,65
1,2580,Note_off_c,0,58,0
1,2580,Note_on_c,0,60,65
1,2580,Note_on_c,0,63,65
1,2580,Note_off_c,0,64,0
1,2640,Note_off_c,0,57,0
1,2640,Note_off_c,0,62,0
1,2640,Note_on_c,0,64,65
1,2640,Note_off_c,0,65,0
1,2640,Note_on_c,0,66,65
1,2640,Note_on_c,0,67,65
1,2700,Note_on_c,0,59,65
1,2700,Note_on_c,0,61,65
1,2700,Note_on_c,0,62,65
1,2700,Note_off_c,0,66,0
1,2700,Note_off_c,0,67,0
1,2760,Note_off_c,0,59,0
1,2760,Note_off_c,0,61,0
1,2760,Note_off_c,0,64,0
1,2760,Note_on_c,0,67,65
1,2820,Note_off_c,0,56,0
1,2820,Note_on_c,0,57,65
1,2820,Note_on_c,0,59,65
1,2820,Note_off_c,0,60,0
1,2820,Note_on_c,0,61,65
1,2820,Note_on_c,0,64,65
1,2820,Note_on_c,0,65,65
1,2820,Note_on_c,0,66,65
1,2880,Note_off_c,0,61,0
1,2880,Note_off_c,0,62,0
1,2880,Note_off_c,0,64,0
1,2940,Note_on_c,0,58,65
1,2940,Note_off_c,0,59,0
1,2940,Note_on_c,0,60,65
1,2940,Note_on_c,0,61,65
1,2940,Note_on_c,0,64,65
1,2940,Note_off_c,0,67,0
1,3000,Note_on_c,0,59,65
1,3000,Note_off_c,0,60,0
1,3000,Note_off_c,0,61,0
1,3000,Note_off_c,0,63,0
1,3000,Note_off_c,0,65,0
1,3000,Note_off_c,0,66,0
1,3000,Note_on_c,0,67,65
1,3060,Note_off_c,0,57,0
1,3060,Note_off_c,0,58,0
1,3060,Note_on_c,0,61,65
1,3060,Note_on_c,0,62,65
1,3060,Note_on_c,0,63,65
1,3060,Note_on_c,0,65,65
1,3060,Note_on_c,0,66,65
1,3060,Note_off_c,0,67,0
1,3120,Note_on_c,0,56,65
1,3120,Note_on_c,0,57,65
1,3120,Note_on_c,0,58,65
1,3120,Note_off_c,0,59,0
1,3120,Note_off_c,0,61,0
1,3120,Note_off_c,0,62,0
1,3120,Note_off_c,0,65,0
1,3120,Note_on_c,0,67,65
1,3180,Note_off_c,0,56,0
1,3180,Note_off_c,0,57,0
1,3180,Note_on_c,0,60,65
1,3180,Note_off_c,0,63,0
1,3180,Note_off_c,0,64,0
1,3180,Note_off_c,0,66,0
1,3180,Note_off_c,0,67,0
1,3240,Note_on_c,0,56,65
1,3240,Note_off_c,0,58,0
1,3240,Note_on_c,0,59,65
1,3240,Note_off_c,0,60,0
1,3240,Note_on_c,0,61,65
1,3240,Note_on_c,0,62,65
1,3240,Note_on_c,0,64,65
1,3240,Note_on_c,0,65,65
1,3240,Note_on_c,0,66,65
1,3240,Note_on_c,0,67,65
1,3300,Note_off_c,0,59,0
1,3300,Note_off_c,0,61,0
1,3300,Note_off_c,0,62,0
1,3300,Note_on_c,0,63,65
1,3300,Note_off_c,0,64,0
1,3300,Note_off_c,0,65,0
1,3300,Note_off_c,0,67,0
1,3360,Note_off_c,0,56,0
1,3360,Note_on_c,0,58,65
1,3360,Note_on_c,0,59,65
1,3360,Note_on_c,0,60,65
1,3360,Note_on_c,0,62,65
1,3360,Note_on_c,0,64,65
1,3360,Note_on_c,0,65,65
1,3360,Note_on_c,0,67,65
1,3420,Note_off_c,0,58,0
1,3420,Note_off_c,0,62,0
1,3420,Note_off_c,0,63,0
1,3480,Note_off_c,0,60,0
1,3480,Note_on_c,0,61,65
1,3480,Note_off_c,0,67,0
1,3540,Note_on_c,0,56,65
1,3540,Note_on_c,0,58,65
1,3540,Note_on_c,0,63,65
1,3540,Note_off_c,0,64,0
1,3540,Note_off_c,0,66,0
1,3540,Note_on_c,0,67,65
1,3600,Note_off_c,0,56,0
1,3600,Note_on_c,0,57,65
1,3600,Note_off_c,0,58,0
1,3600,Note_off_c,0,59,0
1,3600,Note_off_c,0,61,0
1,3600,Note_off_c,0,65,0
1,3600,Note_on_c,0,66,65
1,3660,Note_on_c,0,56,65
1,3660,Note_on_c,0,60,65
1,3660,Note_on_c,0,64,65
1,3660,Note_on_c,0,65,65
1,3720,Note_off_c,0,57,0
1,3720,Note_on_c,0,59,65
1,3720,Note_on_c,0,61,65
1,3720,Note_off_c,0,64,0
1,3720,Note_off_c,0,65,0
1,3720,Note_off_c,0,67,0
1,3780,Note_on_c,0,57,65
1,3780,Note_on_c,0,58,65
1,3780,Note_off_c,0,59,0
1,3780,Note_off_c,0,60,0
1,3780,Note_off_c,0,61,0
1,3780,Note_on_c,0,62,65
1,3780,Note_on_c,0,65,65
1,3840,Note_off_c,0,56,0
1,3840,Note_off_c,0,58,0
1,3840,Note_on_c,0,60,65
1,3840,Note_off_c,0,62,0
1,3840,Note_off_c,0,63,0
1,3840,Note_off_c,0,65,0
1,3840,Note_off_c,0,66,0
1,3900,Note_on_c,0,58,65
1,3900,Note_off_c,0,60,0
1,3900,Note_on_c,0,62,65
1,3900,Note_on_c,0,65,65
1,3900,Note_on_c,0,66,65
1,3960,Note_on_c,0,60,65
1,3960,Note_off_c,0,62,0
1,3960,Note_on_c,0,64,65
1,3960,Note_off_c,0,65,0
1,3960,Note_off_c,0,66,0
1,4020,Note_off_c,0,58,0
1,4020,Note_on_c,0,61,65
1,4020,Note_on_c,0,62,65
1,4020,Note_on_c,0,66,65
1,4020,Note_on_c,0,67,65
1,4080,Note_on_c,0,56,65
1,4080,Note_off_c,0,57,0
1,4080,Note_on_c,0,58,65
1,4080,Note_on_c,0,63,65
1,4080,Note_off_c,0,66,0
1,4080,Note_off_c,0,67,0
1,4140,Note_on_c,0,57,65
1,4140,Note_off_c,0,60,0
1,4140,Note_off_c,0,63,0
1,4140,Note_off_c,0,64,0
1,4140,Note_on_c,0,65,65
1,4140,Note_on_c,0,66,65
1,4200,Note_off_c,0,57,0
1,4200,Note_off_c,0,58,0
1,4200,Note_on_c,0,60,65
1,4260,Note_on_c,0,57,65
1,4260,Note_off_c,0,61,0
1,4260,Note_on_c,0,63,65
1,4260,Note_on_c,0,64,65
1,4260,Note_off_c,0,66,0
1,4260,Note_on_c,0,67,65
1,4320,Note_on_c,0,61,65
1,4320,Note_off_c,0,62,0
1,4320,Note_off_c,0,63,0
1,4320,Note_off_c,0,65,0
1,4380,Note_off_c,0,56,0
1,4380,Note_on_c,0,58,65
1,4380,Note_on_c,0,59,65
1,4380,Note_off_c,0,61,0
1,4380,Note_on_c,0,62,65
1,4380,Note_on_c,0,63,65
1,4380,Note_off_c,0,64,0
1,4380,Note_on_c,0,65,65
1,4380,Note_on_c,0,66,65
1,4380,Note_off_c,0,67,0
1,4440,Note_off_c,0,58,0
1,4440,Note_off_c,0,63,0
1,4440,Note_on_c,0,64,65
1,4440,Note_off_c,0,65,0
1,4500,Note_off_c,0,57,0
1,4500,Note_on_c,0,58,65
1,4500,Note_off_c,0,62,0
1,4500,Note_off_c,0,64,0
1,4500,Note_on_c,0,65,65
1,4500,Note_off_c,0,66,0
1,4560,Note_on_c,0,57,65
1,4560,Note_off_c,0,59,0
1,4560,Note_off_c,0,60,0
1,4560,Note_off_c,0,65,0
1,4620,Note_on_c,0,56,65
1,4620,Note_off_c,0,57,0
1,4620,Note_on_c,0,59,65
1,4620,Note_on_c,0,60,65
1,4620,Note_on_c,0,62,65
1,4620,Note_on_c,0,67,65
1,4680,Note_off_c,0,56,0
1,4680,Note_on_c,0,61,65
1,4680,Note_off_c,0,62,0
1,4680,Note_on_c,0,64,65
1,4680,Note_on_c,0,66,65
1,4740,Note_on_c,0,56,65
1,4740,Note_on_c,0,57,65
1,4740,Note_off_c,0,58,0
1,4740,Note_off_c,0,59,0
1,4740,Note_off_c,0,60,0
1,4740,Note_off_c,0,61,0
1,4740,Note_on_c,0,62,65
1,4740,Note_on_c,0,63,65
1,4740,Note_off_c,0,66,0
1,4740,Note_off_c,0,67,0
1,4800,Note_off_c,0,56,0
1,4800,Note_off_c,0,57,0
1,4800,Note_on_c,0,60,65
1,4800,Note_off_c,0,62,0
1,4800,Note_off_c,0,63,0
1,4800,Note_on_c,0,65,65
1,4800,Note_on_c,0,66,65
1,4800,Note_on_c,0,67,65
1,4860,Note_on_c,0,57,65
1,4860,Note_on_c,0,59,65
1,4860,Note_on_c,0,61,65
1,4860,Note_on_c,0,62,65
1,4860,Note_on_c,0,63,65
1,4860,Note_off_c,0,67,0
1,4920,Note_off_c,0,60,0
1,4920,Note_off_c,0,61,0
1,4920,Note_off_c,0,62,0
1,4920,Note_off_c,0,63,0
1,4920,Note_off_c,0,64,0
1,4980,Note_off_c,0,57,0
1,4980,Note_on_c,0,58,65
1,4980,Note_off_c,0,59,0
1,4980,Note_on_c,0,60,65
1,4980,Note_on_c,0,63,65
1,4980,Note_on_c,0,67,65
1,5040,Note_on_c,0,56,65
1,5040,Note_on_c,0,57,65
1,5040,Note_off_c,0,58,0
1,5040,Note_on_c,0,62,65
1,5040,Note_off_c,0,67,0
1,5100,Note_off_c,0,60,0
1,5100,Note_on_c,0,61,65
1,5100,Note_off_c,0,63,0
1,5160,Note_off_c,0,56,0
1,5160,Note_on_c,0,58,65
1,5160,Note_on_c,0,63,65
1,5220,Note_on_c,0,56,65
1,5220,Note_off_c,0,57,0
1,5220,Note_off_c,0,58,0
1,5220,Note_on_c,0,60,65
1,5220,Note_off_c,0,63,0
1,5220,Note_off_c,0,65,0
1,5220,Note_off_c,0,66,0
1,5220,Note_on_c,0,67,65
1,5280,Note_off_c,0,56,0
1,5280,Note_on_c,0,58,65
1,5280,Note_off_c,0,60,0
1,5280,Note_off_c,0,61,0
1,5280,Note_off_c,0,62,0
1,5280,Note_on_c,0,63,65
1,5280,Note_on_c,0,65,65
1,5280,Note_on_c,0,66,65
1,5280,Note_off_c,0,67,0
1,5340,Note_on_c,0,56,65
1,5340,Note_on_c,0,57,65
1,5340,Note_on_c,0,59,65
1,5340,Note_on_c,0,60,65
1,5340,Note_off_c,0,63,0
1,5340,Note_off_c,0,66,0
1,5340,Note_on_c,0,67,65
1,5400,Note_off_c,0,57,0
1,5400,Note_off_c,0,58,0
1,5400,Note_off_c,0,60,0
1,5400,Note_on_c,0,62,65
1,5400,Note_on_c,0,66,65
1,5400,Note_off_c,0,67,0
1,5460,Note_on_c,0,57,65
1,5460,Note_off_c,0,59,0
1,5460,Note_off_c,0,62,0
1,5460,Note_off_c,0,66,0
1,5520,Note_on_c,0,58,65
1,5520,Note_on_c,0,59,65
1,5520,Note_on_c,0,60,65
1,5520,Note_on_c,0,62,65
1,5520,Note_on_c,0,63,65
1,5520,Note_on_c,0,66,65
1,5580,Note_off_c,0,56,0
1,5580,Note_off_c,0,57,0
1,5580,Note_off_c,0,59,0
1,5580,Note_off_c,0,60,0
1,5580,Note_on_c,0,61,65
1,5580,Note_off_c,0,63,0
1,5580,Note_on_c,0,64,65
1,5580,Note_off_c,0,65,0
1,5580,Note_off_c,0,66,0
1,5640,Note_on_c,0,59,65
1,5640,Note_off_c,0,61,0
1,5640,Note_on_c,0,66,65
1,5700,Note_on_c,0,57,65
1,5700,Note_off_c,0,58,0
1,5700,Note_on_c,0,60,65
1,5700,Note_off_c,0,62,0
1,5700,Note_on_c,0,67,65
1,5760,Note_off_c,0,60,0
1,5760,Note_on_c,0,61,65
1,5760,Note_on_c,0,63,65
1,5760,Note_off_c,0,66,0
1,5760,Note_off_c,0,67,0
1,5820,Note_on_c,0,56,65
1,5820,Note_on_c,0,60,65
1,5820,Note_on_c,0,62,65
1,5820,Note_on_c,0,65,65
1,5880,Note_off_c,0,56,0
1,5880,Note_off_c,0,57,0
1,5880,Note_on_c,0,58,65
1,5880,Note_off_c,0,61,0
1,5880,Note_off_c,0,64,0
1,5880,Note_on_c,0,66,65
1,5940,Note_on_c,0,56,65
1,5940,Note_off_c,0,58,0
1,5940,Note_off_c,0,60,0
1,5940,Note_on_c,0,61,65
1,5940,Note_off_c,0,63,0
1,5940,Note_off_c,0,66,0
1,5940,Note_on_c,0,67,65
1,6000,Note_off_c,0,56,0
1,6000,Note_on_c,0,58,65
1,6000,Note_off_c,0,61,0
1,6000,Note_on_c,0,63,65
1,6000,Note_on_c,0,64,65
1,6000,Note_off_c,0,65,0
1,6000,Note_on_c,0,66,65
1,6000,Note_off_c,0,67,0
1,6060,Note_on_c,0,56,65
1,6060,Note_off_c,0,59,0
1,6060,Note_on_c,0,60,65
1,6060,Note_on_c,0,61,65
1,6060,Note_off_c,0,62,0
1,6060,Note_off_c,0,63,0
1,6060,Note_off_c,0,66,0
1,6060,Note_on_c,0,67,65
1,6120,Note_off_c,0,56,0
1,6120,Note_on_c,0,57,65
1,6120,Note_off_c,0,61,0
1,6120,Note_on_c,0,62,65
1,6120,Note_on_c,0,63,65
1,6120,Note_off_c,0,64,0
1,6120,Note_on_c,0,66,65
1,6120,Note_off_c,0,67,0
1,6180,Note_off_c,0,57,0
1,6180,Note_on_c,0,61,65
1,6180,Note_on_c,0,64,65
1,6180,Note_on_c,0,65,65
1,6180,Note_on_c,0,67,65
1,6240,Note_off_c,0,58,0
1,6240,Note_on_c,0,59,65
1,6240,Note_off_c,0,61,0
1,6240,Note_off_c,0,62,0
1,6240,Note_off_c,0,65,0
1,6240,Note_off_c,0,66,0
1,6300,Note_on_c,0,57,65
1,6300,Note_on_c,0,58,65
1,6300,Note_off_c,0,59,0
1,6300,Note_on_c,0,65,65
1,6300,Note_on_c,0,66,65
1,6300,Note_off_c,0,67,0
1,6360,Note_on_c,0,56,65
1,6360,Note_on_c,0,59,65
1,6360,Note_off_c,0,60,0
1,6360,Note_on_c,0,61,65
1,6360,Note_off_c,0,63,0
1,6360,Note_off_c,0,64,0
1,6360,Note_off_c,0,66,0
1,6420,Note_on_c,0,62,65
1,6420,Note_on_c,0,63,65
1,6420,Note_on_c,0,64,65
1,6420,Note_on_c,0,67,65
1,6480,Note_off_c,0,56,0
1,6480,Note_off_c,0,57,0
1,6480,Note_off_c,0,58,0
1,6480,Note_off_c,0,59,0
1,6480,Note_off_c,0,62,0
1,6480,Note_off_c,0,67,0
1,6540,Note_on_c,0,56,65
1,6540,Note_on_c,0,58,65
1,6540,Note_on_c,0,59,65
1,6540,Note_on_c,0,60,65
1,6540,Note_off_c,0,61,0
1,6540,Note_on_c,0,62,65
1,6600,Note_off_c,0,56,0
1,6600,Note_off_c,0,59,0
1,6600,Note_off_c,0,60,0
1,6600,Note_on_c,0,61,65
1,6600,Note_off_c,0,62,0
1,6600,Note_off_c,0,64,0
1,6600,Note_on_c,0,66,65
1,6600,Note_on_c,0,67,65
1,6660,Note_off_c,0,58,0
1,6660,Note_on_c,0,60,65
1,6660,Note_on_c,0,62,65
1,6660,Note_off_c,0,63,0
1,6660,Note_off_c,0,66,0
1,6660,Note_off_c,0,67,0
1,6720,Note_on_c,0,57,65
1,6720,Note_on_c,0,58,65
1,6720,Note_on_c,0,59,65
1,6720,Note_off_c,0,60,0
1,6720,Note_off_c,0,61,0
1,6720,Note_on_c,0,64,65
1,6720,Note_off_c,0,65,0
1,6780,Note_on_c,0,56,65
1,6780,Note_off_c,0,59,0
1,6780,Note_on_c,0,60,65
1,6780,Note_off_c,0,62,0
1,6780,Note_on_c,0,65,65
1,6780,Note_on_c,0,66,65
1,6840,Note_off_c,0,56,0
1,6840,Note_off_c,0,60,0
1,6840,Note_on_c,0,62,65
1,6840,Note_off_c,0,64,0
1,6900,Note_on_c,0,56,65
1,6900,Note_off_c,0,57,0
1,6900,Note_off_c,0,58,0
1,6900,Note_on_c,0,59,65
1,6900,Note_on_c,0,60,65
1,6900,Note_on_c,0,63,65
1,6900,Note_off_c,0,66,0
1,6900,Note_on_c,0,67,65
1,6960,Note_off_c,0,56,0
1,6960,Note_on_c,0,57,65
1,6960,Note_off_c,0,59,0
1,6960,Note_off_c,0,60,0
1,6960,Note_on_c,0,61,65
1,6960,Note_off_c,0,62,0
1,6960,Note_off_c,0,65,0
1,7020,Note_on_c,0,56,65
1,7020,Note_off_c,0,57,0
1,7020,Note_on_c,0,58,65
1,7020,Note_on_c,0,59,65
1,7020,Note_off_c,0,61,0
1,7020,Note_on_c,0,62,65
1,7020,Note_on_c,0,64,65
1,7020,Note_on_c,0,65,65
1,7020,Note_off_c,0,67,0
1,7080,Note_on_c,0,57,65
1,7080,Note_on_c,0,61,65
1,7080,Note_off_c,0,62,0
1,7080,Note_off_c,0,63,0
1,7080,Note_off_c,0,64,0
1,7080,Note_off_c,0,65,0
1,7080,Note_on_c,0,67,65
1,7140,Note_off_c,0,57,0
1,7140,Note_off_c,0,59,0
1,7140,Note_on_c,0,60,65
1,7140,Note_off_c,0,67,0
1,7200,Note_off_c,0,58,0
1,7200,Note_on_c,0,59,65
1,7200,Note_on_c,0,62,65
1,7200,Note_on_c,0,63,65
1,7200,Note_on_c,0,64,65
1,7260,Note_off_c,0,56,0
1,7260,Note_on_c,0,57,65
1,7260,Note_on_c,0,58,65
1,7260,Note_off_c,0,61,0
1,7260,Note_off_c,0,62,0
1,7260,Note_off_c,0,63,0
1,7260,Note_off_c,0,64,0
1,7260,Note_on_c,0,65,65
1,7260,Note_on_c,0,66,65
1,7320,Note_off_c,0,57,0
1,7320,Note_off_c,0,58,0
1,7320,Note_off_c,0,59,0
1,7320,Note_off_c,0,60,0
1,7320,Note_on_c,0,62,65
1,7320,Note_on_c,0,63,65
1,7320,Note_off_c,0,66,0
1,7320,Note_on_c,0,67,65
1,7380,Note_on_c,0,56,65
1,7380,Note_on_c,0,59,65
1,7380,Note_on_c,0,60,65
1,7380,Note_on_c,0,61,65
1,7380,Note_off_c,0,62,0
1,7380,Note_off_c,0,63,0
1,7380,Note_on_c,0,66,65
1,7440,Note_off_c,0,56,0
1,7440,Note_off_c,0,59,0
1,7440,Note_off_c,0,61,0
1,7440,Note_off_c,0,65,0
1,7500,Note_on_c,0,56,65
1,7500,Note_on_c,0,59,65
1,7500,Note_off_c,0,60,0
1,7500,Note_on_c,0,63,65
1,7500,Note_on_c,0,64,65
1,7500,Note_off_c,0,66,0
1,7560,Note_off_c,0,56,0
1,7560,Note_on_c,0,57,65
1,7560,Note_off_c,0,59,0
1,7560,Note_on_c,0,62,65
1,7560,Note_off_c,0,63,0
1,7560,Note_on_c,0,65,65
1,7620,Note_off_c,0,57,0
1,7620,Note_on_c,0,59,65
1,7620,Note_on_c,0,60,65
1,7620,Note_off_c,0,62,0
1,7620,Note_on_c,0,63,65
1,7620,Note_off_c,0,65,0
1,7620,Note_on_c,0,66,65
1,7680,Note_on_c,0,57,65
1,7680,Note_on_c,0,58,65
1,7680,Note_on_c,0,61,65
1,7680,Note_on_c,0,62,65
1,7680,Note_off_c,0,63,0
1,7680,Note_on_c,0,65,65
1,7680,Note_off_c,0,66,0
1,7680,Note_off_c,0,67,0
1,7740,Note_on_c,0,56,65
1,7740,Note_off_c,0,59,0
1,7740,Note_off_c,0,60,0
1,7740,Note_off_c,0,61,0
1,7740,Note_on_c,0,63,65
1,7740,Note_off_c,0,64,0
1,7740,Note_on_c,0,66,65
1,7740,Note_on_c,0,67,65
1,7800,Note_off_c,0,56,0
1,7800,Note_off_c,0,57,0
1,7800,Note_off_c,0,58,0
1,7800,Note_on_c,0,59,65
1,7800,Note_on_c,0,60,65
1,7800,Note_on_c,0,61,65
1,7800,Note_on_c,0,64,65
1,7800,Note_off_c,0,65,0
1,7800,Note_off_c,0,66,0
1,7860,Note_on_c,0,56,65
1,7860,Note_off_c,0,62,0
1,7860,Note_off_c,0,63,0
1,7860,Note_off_c,0,64,0
1,7860,Note_on_c,0,66,65
1,7860,Note_off_c,0,67,0
1,7920,Note_on_c,0,57,65
1,7920,Note_on_c,0,58,65
1,7920,Note_off_c,0,59,0
1,7920,Note_off_c,0,60,0
1,7920,Note_off_c,0,61,0
1,7920,Note_on_c,0,65,65
1,7980,Note_off_c,0,56,0
1,7980,Note_off_c,0,58,0
1,7980,Note_on_c,0,59,65
1,7980,Note_on_c,0,60,65
1,7980,Note_on_c,0,61,65
1,7980,Note_off_c,0,65,0
1,7980,Note_on_c,0,67,65
1,8040,Note_off_c,0,61,0
1,8040,Note_on_c,0,62,65
1,8040,Note_on_c,0,64,65
1,8040,Note_on_c,0,65,65
1,8040,Note_off_c,0,67,0
1,8100,Note_on_c,0,56,65
1,8100,Note_on_c,0,58,65
1,8100,Note_off_c,0,59,0
1,8100,Note_off_c,0,60,0
1,8100,Note_on_c,0,61,65
1,8100,Note_off_c,0,65,0
1,8100,Note_on_c,0,67,65
1,8160,Note_off_c,0,56,0
1,8160,Note_off_c,0,58,0
1,8160,Note_on_c,0,59,65
1,8160,Note_off_c,0,61,0
1,8160,Note_off_c,0,62,0
1,8160,Note_off_c,0,64,0
1,8160,Note_on_c,0,65,65
1,8160,Note_off_c,0,66,0
1,8160,Note_off_c,0,67,0
1,8220,Note_on_c,0,56,65
1,8220,Note_on_c,0,58,65
1,8220,Note_off_c,0,59,0
1,8220,Note_on_c,0,60,65
1,8220,Note_on_c,0,61,65
1,8220,Note_on_c,0,64,65
1,8220,Note_on_c,0,66,65
1,8220,Note_on_c,0,67,65
1,8280,Note_off_c,0,57,0
1,8280,Note_on_c,0,59,65
1,8280,Note_off_c,0,61,0
1,8280,Note_off_c,0,64,0
1,8280,Note_off_c,0,65,0
1,8340,Note_off_c,0,58,0
1,8340,Note_off_c,0,60,0
1,8340,Note_on_c,0,61,65
1,8340,Note_on_c,0,62,65
1,8340,Note_on_c,0,63,65
1,8340,Note_off_c,0,66,0
1,8400,Note_off_c,0,56,0
1,8400,Note_on_c,0,57,65
1,8400,Note_on_c,0,58,65
1,8400,Note_on_c,0,60,65
1,8400,Note_off_c,0,61,0
1,8400,Note_off_c,0,62,0
1,8400,Note_on_c,0,65,65
1,8400,Note_on_c,0,66,65
1,8400,Note_off_c,0,67,0
1,8460,Note_on_c,0,56,65
1,8460,Note_on_c,0,64,65
1,8460,Note_off_c,0,65,0
1,8460,Note_off_c,0,66,0
1,8460,Note_on_c,0,67,65
1,8520,Note_off_c,0,59,0
1,8520,Note_off_c,0,60,0
1,8520,Note_on_c,0,61,65
1,8520,Note_on_c,0,65,65
1,8580,Note_off_c,0,56,0
1,8580,Note_on_c,0,59,65
1,8580,Note_off_c,0,64,0
1,8580,Note_off_c,0,65,0
1,8640,Note_on_c,0,56,65
1,8640,Note_off_c,0,57,0
1,8640,Note_off_c,0,58,0
1,8640,Note_off_c,0,59,0
1,8640,Note_off_c,0,63,0
1,8640,Note_on_c,0,65,65
1,8640,Note_on_c,0,66,65
1,8640,Note_off_c,0,67,0
1,8700,Note_on_c,0,57,65
1,8700,Note_on_c,0,63,65
1,8700,Note_on_c,0,64,65
1,8700,Note_off_c,0,66,0
1,8760,Note_off_c,0,56,0
1,8760,Note_off_c,0,57,0
1,8760,Note_on_c,0,58,65
1,8760,Note_on_c,0,59,65
1,8760,Note_on_c,0,60,65
1,8760,Note_off_c,0,64,0
1,8760,Note_on_c,0,67,65
1,8820,Note_on_c,0,57,65
1,8820,Note_off_c,0,59,0
1,8820,Note_off_c,0,60,0
1,8820,Note_on_c,0,62,65
1,8820,Note_off_c,0,65,0
1,8820,Note_on_c,0,66,65
1,8820,Note_off_c,0,67,0
1,8880,Note_on_c,0,56,65
1,8880,Note_off_c,0,57,0
1,8880,Note_off_c,0,58,0
1,8880,Note_on_c,0,59,65
1,8880,Note_off_c,0,61,0
1,8880,Note_on_c,0,65,65
1,8880,Note_on_c,0,67,65
1,8940,Note_on_c,0,57,65
1,8940,Note_off_c,0,59,0
1,8940,Note_off_c,0,62,0
1,8940,Note_on_c,0,64,65
1,8940,Note_off_c,0,66,0
1,9000,Note_off_c,0,56,0
1,9000,Note_on_c,0,58,65
1,9000,Note_on_c,0,59,65
1,9000,Note_on_c,0,60,65
1,9000,Note_on_c,0,61,65
1,9000,Note_off_c,0,63,0
1,9000,Note_off_c,0,64,0
1,9000,Note_on_c,0,66,65
1,9060,Note_on_c,0,56,65
1,9060,Note_off_c,0,57,0
1,9060,Note_off_c,0,58,0
1,9060,Note_on_c,0,62,65
1,9060,Note_on_c,0,64,65
1,9120,Note_off_c,0,56,0
1,9120,Note_on_c,0,57,65
1,9120,Note_off_c,0,62,0
1,9120,Note_off_c,0,64,0
1,9120,Note_off_c,0,65,0
1,9180,Note_on_c,0,63,65
1,9180,Note_on_c,0,64,65
1,9180,Note_on_c,0,65,65
1,9180,Note_off_c,0,66,0
1,9240,Note_on_c,0,56,65
1,9240,Note_off_c,0,59,0
1,9240,Note_off_c,0,60,0
1,9240,Note_off_c,0,61,0
1,9240,Note_on_c,0,66,65
1,9240,Note_off_c,0,67,0
1,9300,Note_off_c,0,56,0
1,9300,Note_off_c,0,57,0
1,9300,Note_on_c,0,58,65
1,9300,Note_on_c,0,59,65
1,9300,Note_on_c,0,60,65
1,9300,Note_off_c,0,63,0
1,9300,Note_off_c,0,65,0
1,9300,Note_on_c,0,67,65
1,9360,Note_off_c,0,60,0
1,9360,Note_on_c,0,61,65
1,9360,Note_on_c,0,62,65
1,9360,Note_off_c,0,64,0
1,9360,Note_off_c,0,66,0
1,9420,Note_on_c,0,56,65
1,9420,Note_on_c,0,57,65
1,9420,Note_off_c,0,59,0
1,9420,Note_off_c,0,61,0
1,9420,Note_on_c,0,63,65
1,9420,Note_on_c,0,64,65
1,9420,Note_on_c,0,65,65
1,9420,Note_off_c,0,67,0
1,9480,Note_off_c,0,57,0
1,9480,Note_off_c,0,58,0
1,9480,Note_on_c,0,59,65
1,9480,Note_on_c,0,60,65
1,9480,Note_on_c,0,61,65
1,9480,Note_off_c,0,63,0
1,9480,Note_off_c,0,64,0
1,9480,Note_on_c,0,66,65
1,9480,Note_on_c,0,67,65
1,9540,Note_on_c,0,58,65
1,9540,Note_off_c,0,61,0
1,9540,Note_on_c,0,64,65
1,9600,Note_off_c,0,58,0
1,9600,Note_off_c,0,59,0
1,9600,Note_off_c,0,60,0
1,9600,Note_on_c,0,61,65
1,9600,Note_on_c,0,63,65
1,9600,Note_off_c,0,64,0
1,9600,Note_off_c,0,65,0
1,9600,Note_off_c,0,66,0
1,9600,Note_off_c,0,67,0
1,9660,Note_on_c,0,57,65
1,9660,Note_off_c,0,61,0
1,9660,Note_off_c,0,63,0
1,9660,Note_on_c,0,64,65
1,9660,Note_on_c,0,66,65
1,9660,Note_on_c,0,67,65
1,9720,Note_on_c,0,58,65
1,9720,Note_on_c,0,59,65
1,9720,Note_on_c,0,60,65
1,9720,Note_on_c,0,61,65
1,9720,Note_off_c,0,62,0
1,9720,Note_on_c,0,63,65
1,9720,Note_off_c,0,64,0
1,9780,Note_off_c,0,58,0
1,9780,Note_off_c,0,60,0
1,9780,Note_off_c,0,61,0
1,9780,Note_off_c,0,63,0
1,9780,Note_off_c,0,66,0
1,9780,Note_off_c,0,67,0
1,9840,Note_off_c,0,56,0
1,9840,Note_off_c,0,57,0
1,9840,Note_on_c,0,61,65
1,9840,Note_on_c,0,64,65
1,9840,Note_on_c,0,65,65
1,9840,Note_on_c,0,66,65
1,9900,Note_on_c,0,57,65
1,9900,Note_on_c,0,58,65
1,9900,Note_on_c,0,60,65
1,9900,Note_off_c,0,61,0
1,9900,Note_on_c,0,62,65
1,9900,Note_off_c,0,65,0
1,9900,Note_off_c,0,66,0
1,9960,Note_off_c,0,57,0
1,9960,Note_off_c,0,58,0
1,9960,Note_off_c,0,59,0
1,9960,Note_on_c,0,63,65
1,9960,Note_on_c,0,65,65
1,10020,Note_on_c,0,56,65
1,10020,Note_on_c,0,61,65
1,10020,Note_on_c,0,67,65
1,10080,Note_off_c,0,60,0
1,10080,Note_off_c,0,65,0
1,10080,Note_on_c,0,66,65
1,10080,Note_off_c,0,67,0
1,10140,Note_off_c,0,56,0
1,10140,Note_on_c,0,57,65
1,10140,Note_on_c,0,58,65
1,10140,Note_on_c,0,59,65
1,10140,Note_off_c,0,61,0
1,10140,Note_off_c,0,62,0
1,10140,Note_off_c,0,63,0
1,10200,Note_on_c,0,56,65
1,10200,Note_off_c,0,57,0
1,10200,Note_off_c,0,58,0
1,10200,Note_off_c,0,59,0
1,10200,Note_off_c,0,64,0
1,10200,Note_off_c,0,66,0
1,10200,Note_on_c,0,67,65
1,10260,Note_off_c,0,56,0
1,10260,Note_on_c,0,59,65
1,10260,Note_on_c,0,60,65
1,10260,Note_on_c,0,61,65
1,10260,Note_on_c,0,66,65
1,10320,Note_on_c,0,56,65
1,10320,Note_on_c,0,58,65
1,10320,Note_off_c,0,60,0
1,10320,Note_on_c,0,62,65
1,10320,Note_on_c,0,64,65
1,10320,Note_on_c,0,65,65
1,10320,Note_off_c,0,66,0
1,10380,Note_off_c,0,59,0
1,10380,Note_on_c,0,60,65
1,10380,Note_on_c,0,63,65
1,10380,Note_off_c,0,64,0
1,10380,Note_off_c,0,67,0
1,10440,Note_on_c,0,57,65
1,10440,Note_off_c,0,58,0
1,10440,Note_off_c,0,60,0
1,10440,Note_off_c,0,62,0
1,10440,Note_off_c,0,63,0
1,10440,Note_on_c,0,64,65
1,10440,Note_on_c,0,66,65
1,10440,Note_on_c,0,67,65
1,10500,Note_off_c,0,56,0
1,10500,Note_off_c,0,57,0
1,10500,Note_on_c,0,58,65
1,10500,Note_on_c,0,59,65
1,10500,Note_on_c,0,63,65
1,10500,Note_off_c,0,64,0
1,10500,Note_off_c,0,65,0
1,10500,Note_off_c,0,66,0
1,10500,Note_off_c,0,67,0
1,10560,Note_on_c,0,56,65
1,10560,Note_on_c,0,57,65
1,10560,Note_off_c,0,59,0
1,10560,Note_on_c,0,60,65
1,10560,Note_off_c,0,61,0
1,10560,Note_on_c,0,62,65
1,10560,Note_off_c,0,63,0
1,10560,Note_on_c,0,64,65
1,10560,Note_on_c,0,65,65
1,10560,Note_on_c,0,66,65
1,10620,Note_off_c,0,56,0
1,10620,Note_off_c,0,58,0
1,10620,Note_on_c,0,61,65
1,10620,Note_on_c,0,63,65
1,10620,Note_off_c,0,64,0
1,10680,Note_off_c,0,57,0
1,10680,Note_on_c,0,58,65
1,10680,Note_on_c,0,59,65
1,10680,Note_off_c,0,62,0
1,10680,Note_on_c,0,64,65
1,10680,Note_on_c,0,67,65
1,10740,Note_on_c,0,56,65
1,10740,Note_on_c,0,57,65
1,10740,Note_off_c,0,60,0
1,10740,Note_on_c,0,62,65
1,10740,Note_off_c,0,63,0
1,10740,Note_off_c,0,65,0
1,10800,Note_off_c,0,56,0
1,10800,Note_off_c,0,58,0
1,10800,Note_off_c,0,61,0
1,10800,Note_off_c,0,64,0
1,10800,Note_on_c,0,65,65
1,10800,Note_off_c,0,66,0
1,10800,Note_off_c,0,67,0
1,10860,Note_off_c,0,59,0
1,10860,Note_on_c,0,66,65
1,10860,Note_on_c,0,67,65
1,10920,Note_off_c,0,57,0
1,10920,Note_on_c,0,61,65
1,10920,Note_on_c,0,63,65
1,10980,Note_on_c,0,59,65
1,10980,Note_off_c,0,61,0
1,10980,Note_off_c,0,62,0
1,10980,Note_on_c,0,64,65
1,10980,Note_off_c,0,66,0
1,11040,Note_on_c,0,56,65
1,11040,Note_on_c,0,60,65
1,11040,Note_on_c,0,61,65
1,11040,Note_on_c,0,62,65
1,11040,Note_off_c,0,63,0
1,11040,Note_on_c,0,66,65
1,11100,Note_off_c,0,56,0
1,11100,Note_on_c,0,57,65
1,11100,Note_off_c,0,61,0
1,11100,Note_off_c,0,64,0
1,11100,Note_off_c,0,66,0
1,11160,Note_on_c,0,56,65
1,11160,Note_off_c,0,57,0
1,11160,Note_off_c,0,59,0
1,11160,Note_on_c,0,61,65
1,11160,Note_on_c,0,64,65
1,11160,Note_off_c,0,65,0
1,11160,Note_off_c,0,67,0
1,11220,Note_off_c,0,56,0
1,11220,Note_on_c,0,57,65
1,11220,Note_on_c,0,58,65
1,11220,Note_on_c,0,59,65
1,11220,Note_on_c,0,63,65
1,11220,Note_off_c,0,64,0
1,11220,Note_on_c,0,66,65
1,11280,Note_off_c,0,58,0
1,11280,Note_off_c,0,59,0
1,11280,Note_off_c,0,61,0
1,11280,Note_off_c,0,63,0
1,11280,Note_on_c,0,65,65
1,11280,Note_off_c,0,66,0
1,11280,Note_on_c,0,67,65
1,11340,Note_on_c,0,58,65
1,11340,Note_on_c,0,59,65
1,11340,Note_on_c,0,61,65
1,11340,Note_off_c,0,62,0
1,11340,Note_off_c,0,65,0
1,11340,Note_on_c,0,66,65
1,11340,Note_off_c,0,67,0
1,11400,Note_off_c,0,57,0
1,11400,Note_off_c,0,60,0
1,11400,Note_off_c,0,61,0
1,11400,Note_on_c,0,65,65
1,11400,Note_on_c,0,67,65
1,11460,Note_on_c,0,56,65
1,11460,Note_on_c,0,57,65
1,11460,Note_off_c,0,58,0
1,11460,Note_off_c,0,59,0
1,11460,Note_on_c,0,61,65
1,11520,Note_off_c,0,61,0
1,11520,Note_on_c,0,62,65
1,11520,Note_on_c,0,64,65
1,11520,Note_off_c,0,66,0
1,11580,Note_off_c,0,57,0
1,11580,Note_on_c,0,58,65
1,11580,Note_on_c,0,59,65
1,11580,Note_on_c,0,60,65
1,11580,Note_on_c,0,61,65
1,11580,Note_off_c,0,62,0
1,11580,Note_off_c,0,64,0
1,11640,Note_off_c,0,61,0
1,11640,Note_on_c,0,62,65
1,11640,Note_off_c,0,65,0
1,11640,Note_on_c,0,66,65
1,11700,Note_off_c,0,56,0
1,11700,Note_on_c,0,57,65
1,11700,Note_off_c,0,58,0
1,11700,Note_on_c,0,61,65
1,11700,Note_off_c,0,62,0
1,11700,Note_on_c,0,64,65
1,11700,Note_off_c,0,66,0
1,11760,Note_off_c,0,57,0
1,11760,Note_off_c,0,59,0
1,11760,Note_on_c,0,66,65
1,11820,Note_on_c,0,56,65
1,11820,Note_on_c,0,62,65
1,11820,Note_on_c,0,63,65
1,11820,Note_off_c,0,64,0
1,11820,Note_off_c,0,66,0
1,11820,Note_off_c,0,67,0
1,11880,Note_on_c,0,58,65
1,11880,Note_off_c,0,60,0
1,11880,Note_off_c,0,61,0
1,11880,Note_on_c,0,65,65
1,11880,Note_on_c,0,66,65
1,11880,Note_on_c,0,67,65
1,11940,Note_off_c,0,56,0
1,11940,Note_on_c,0,57,65
1,11940,Note_on_c,0,61,65
1,11940,Note_off_c,0,62,0
1,11940,Note_off_c,0,63,0
1,11940,Note_off_c,0,66,0
1,12000,Note_off_c,0,57,0
1,12000,Note_on_c,0,62,65
1,12000,Note_on_c,0,63,65
1,12000,Note_on_c,0,64,65
1,12000,Note_off_c,0,65,0
1,12060,Note_on_c,0,57,65
1,12060,Note_off_c,0,58,0
1,12060,Note_on_c,0,60,65
1,12060,Note_off_c,0,62,0
1,12060,Note_off_c,0,63,0
1,12060,Note_off_c,0,64,0
1,12060,Note_on_c,0,65,65
1,12060,Note_off_c,0,67,0
1,12120,Note_on_c,0,56,65
1,12120,Note_off_c,0,60,0
1,12120,Note_on_c,0,63,65
1,12120,Note_on_c,0,64,65
1,12120,Note_off_c,0,65,0
1,12120,Note_on_c,0,66,65
1,12120,Note_on_c,0,67,65
1,12180,Note_on_c,0,59,65
1,12180,Note_on_c,0,65,65
1,12240,Note_off_c,0,56,0
1,12240,Note_off_c,0,57,0
1,12240,Note_on_c,0,58,65
1,12240,Note_off_c,0,61,0
1,12240,Note_off_c,0,64,0
1,12240,Note_off_c,0,65,0
1,12240,Note_off_c,0,66,0
1,12300,Note_on_c,0,56,65
1,12300,Note_off_c,0,59,0
1,12300,Note_on_c,0,60,65
1,12300,Note_on_c,0,62,65
1,12300,Note_off_c,0,63,0
1,12360,Note_off_c,0,56,0
1,12360,Note_off_c,0,58,0
1,12360,Note_off_c,0,60,0
1,12360,Note_on_c,0,61,65
1,12360,Note_off_c,0,62,0
1,12360,Note_on_c,0,63,65
1,12360,Note_on_c,0,64,65
1,12360,Note_on_c,0,65,65
1,12360,Note_on_c,0,66,65
1,12420,Note_on_c,0,56,65
1,12420,Note_on_c,0,58,65
1,12420,Note_off_c,0,61,0
1,12420,Note_on_c,0,62,65
1,12420,Note_off_c,0,63,0
1,12420,Note_off_c,0,64,0
1,12420,Note_off_c,0,67,0
1,12480,Note_off_c,0,56,0
1,12480,Note_off_c,0,58,0
1,12480,Note_on_c,0,60,65
1,12480,Note_on_c,0,61,65
1,12480,Note_off_c,0,62,0
1,12480,Note_off_c,0,65,0
1,12540,Note_on_c,0,59,65
1,12540,Note_off_c,0,61,0
1,12540,Note_on_c,0,64,65
1,12540,Note_on_c,0,65,65
1,12540,Note_on_c,0,67,65
1,12600,Note_on_c,0,56,65
1,12600,Note_on_c,0,57,65
1,12600,Note_on_c,0,58,65
1,12600,Note_on_c,0,61,65
1,12600,Note_on_c,0,62,65
1,12600,Note_off_c,0,65,0
1,12600,Note_off_c,0,66,0
1,12600,Note_off_c,0,67,0
1,12660,Note_off_c,0,56,0
1,12660,Note_off_c,0,59,0
1,12660,Note_off_c,0,60,0
1,12660,Note_off_c,0,64,0
1,12660,Note_on_c,0,66,65
1,12660,Note_on_c,0,67,65
1,12720,Note_off_c,0,57,0
1,12720,Note_off_c,0,58,0
1,12720,Note_on_c,0,60,65
1,12720,Note_off_c,0,61,0
1,12720,Note_on_c,0,65,65
1,12720,Note_off_c,0,66,0
1,12780,Note_on_c,0,56,65
1,12780,Note_on_c,0,57,65
1,12780,Note_off_c,0,62,0
1,12840,Note_off_c,0,57,0
1,12840,Note_on_c,0,58,65
1,12840,Note_on_c,0,59,65
1,12840,Note_on_c,0,61,65
1,12840,Note_on_c,0,64,65
1,12840,Note_on_c,0,66,65
1,12900,Note_off_c,0,56,0
1,12900,Note_on_c,0,57,65
1,12900,Note_off_c,0,60,0
1,12900,Note_off_c,0,61,0
1,12900,Note_off_c,0,67,0
1,12960,Note_off_c,0,58,0
1,12960,Note_off_c,0,59,0
1,12960,Note_on_c,0,60,65
1,12960,Note_on_c,0,61,65
1,12960,Note_on_c,0,62,65
1,12960,Note_on_c,0,63,65
1,12960,Note_off_c,0,64,0
1,13020,Note_on_c,0,56,65
1,13020,Note_off_c,0,57,0
1,13020,Note_on_c,0,59,65
1,13020,Note_off_c,0,60,0
1,13020,Note_off_c,0,61,0
1,13020,Note_on_c,0,64,65
1,13020,Note_off_c,0,65,0
1,13080,Note_off_c,0,56,0
1,13080,Note_on_c,0,57,65
1,13080,Note_on_c,0,58,65
1,13080,Note_on_c,0,61,65
1,13080,Note_on_c,0,67,65
1,13140,Note_on_c,0,56,65
1,13140,Note_off_c,0,57,0
1,13140,Note_off_c,0,58,0
1,13140,Note_off_c,0,59,0
1,13140,Note_on_c,0,60,65
1,13140,Note_off_c,0,61,0
1,13140,Note_on_c,0,65,65
1,13140,Note_off_c,0,66,0
1,13140,Note_off_c,0,67,0
1,13200,Note_on_c,0,57,65
1,13200,Note_off_c,0,60,0
1,13200,Note_off_c,0,62,0
1,13200,Note_on_c,0,66,65
1,13260,Note_off_c,0,57,0
1,13260,Note_on_c,0,58,65
1,13260,Note_on_c,0,60,65
1,13260,Note_on_c,0,61,65
1,13260,Note_off_c,0,63,0
1,13260,Note_off_c,0,64,0
1,13260,Note_off_c,0,66,0
1,13260,Note_on_c,0,67,65
1,13320,Note_off_c,0,58,0
1,13320,Note_off_c,0,61,0
1,13320,Note_on_c,0,62,65
1,13320,Note_on_c,0,63,65
1,13320,Note_on_c,0,66,65
1,13320,Note_off_c,0,67,0
1,13380,Note_on_c,0,59,65
1,13380,Note_off_c,0,60,0
1,13380,Note_off_c,0,62,0
1,13380,Note_on_c,0,64,65
1,13380,Note_on_c,0,67,65
1,13440,Note_on_c,0,57,65
1,13440,Note_on_c,0,58,65
1,13440,Note_off_c,0,59,0
1,13440,Note_on_c,0,60,65
1,13440,Note_on_c,0,61,65
1,13440,Note_on_c,0,62,65
1,13440,Note_off_c,0,66,0
1,13440,Note_off_c,0,67,0
1,13500,Note_off_c,0,57,0
1,13500,Note_off_c,0,58,0
1,13500,Note_off_c,0,61,0
1,13500,Note_on_c,0,67,65
1,13560,Note_off_c,0,60,0
1,13560,Note_on_c,0,61,65
1,13560,Note_off_c,0,62,0
1,13560,Note_off_c,0,63,0
1,13560,Note_off_c,0,65,0
1,13560,Note_off_c,0,67,0
1,13620,Note_off_c,0,56,0
1,13620,Note_on_c,0,57,65
1,13620,Note_on_c,0,59,65
1,13620,Note_on_c,0,62,65
1,13620,Note_off_c,0,64,0
1,13620,Note_on_c,0,65,65
1,13620,Note_on_c,0,67,65
1,13680,Note_off_c,0,59,0
1,13680,Note_off_c,0,62,0
1,13680,Note_on_c,0,63,65
1,13680,Note_on_c,0,64,65
1,13680,Note_on_c,0,66,65
1,13680,Note_off_c,0,67,0
1,13740,Note_on_c,0,56,65
1,13740,Note_off_c,0,57,0
1,13740,Note_on_c,0,58,65
1,13740,Note_on_c,0,60,65
1,13740,Note_off_c,0,61,0
1,13740,Note_on_c,0,62,65
1,13740,Note_off_c,0,63,0
1,13740,Note_off_c,0,64,0
1,13800,Note_off_c,0,56,0
1,13800,Note_on_c,0,57,65
1,13800,Note_off_c,0,58,0
1,13800,Note_on_c,0,59,65
1,13800,Note_off_c,0,60,0
1,13800,Note_on_c,0,61,65
1,13800,Note_on_c,0,63,65
1,13800,Note_off_c,0,65,0
1,13800,Note_off_c,0,66,0
1,13860,Note_on_c,0,56,65
1,13860,Note_off_c,0,57,0
1,13860,Note_on_c,0,58,65
1,13860,Note_off_c,0,59,0
1,13860,Note_on_c,0,60,65
1,13860,Note_off_c,0,62,0
1,13860,Note_off_c,0,63,0
1,13860,Note_on_c,0,64,65
1,13920,Note_on_c,0,57,65
1,13920,Note_off_c,0,58,0
1,13920,Note_on_c,0,59,65
1,13920,Note_off_c,0,60,0
1,13920,Note_on_c,0,62,65
1,13920,Note_on_c,0,63,65
1,13920,Note_off_c,0,64,0
1,13980,Note_off_c,0,62,0
1,13980,Note_off_c,0,63,0
1,13980,Note_on_c,0,66,65
1,13980,Note_on_c,0,67,65
1,14040,Note_off_c,0,56,0
1,14040,Note_off_c,0,57,0
1,14040,Note_off_c,0,59,0
1,14040,Note_on_c,0,60,65
1,14040,Note_off_c,0,61,0
1,14040,Note_on_c,0,62,65
1,14040,Note_on_c,0,63,65
1,14040,Note_on_c,0,64,65
1,14040,Note_off_c,0,66,0
1,14040,Note_off_c,0,67,0
1,14100,Note_on_c,0,56,65
1,14100,Note_on_c,0,57,65
1,14100,Note_on_c,0,59,65
1,14100,Note_off_c,0,60,0
1,14100,Note_on_c,0,61,65
1,14100,Note_off_c,0,64,0
1,14100,Note_on_c,0,67,65
1,14160,Note_on_c,0,58,65
1,14160,Note_off_c,0,61,0
1,14160,Note_off_c,0,62,0
1,14160,Note_on_c,0,64,65
1,14160,Note_on_c,0,66,65
1,14220,Note_off_c,0,57,0
1,14220,Note_on_c,0,60,65
1,14220,Note_on_c,0,61,65
1,14220,Note_off_c,0,64,0
1,14220,Note_off_c,0,66,0
1,14220,Note_off_c,0,67,0
1,14280,Note_off_c,0,56,0
1,14280,Note_on_c,0,57,65
1,14280,Note_off_c,0,59,0
1,14280,Note_off_c,0,60,0
1,14280,Note_off_c,0,61,0
1,14280,Note_on_c,0,64,65
1,14280,Note_on_c,0,67,65
1,14340,Note_on_c,0,56,65
1,14340,Note_off_c,0,57,0
1,14340,Note_on_c,0,62,65
1,14340,Note_on_c,0,65,65
1,14340,Note_on_c,0,66,65
1,14400,Note_off_c,0,56,0
1,14400,Note_off_c,0,58,0
1,14400,Note_on_c,0,59,65
1,14400,Note_on_c,0,60,65
1,14400,Note_off_c,0,62,0
1,14400,Note_off_c,0,65,0
1,14400,Note_off_c,0,66,0
1,14460,Note_on_c,0,57,65
1,14460,Note_on_c,0,58,65
1,14460,Note_off_c,0,59,0
1,14460,Note_on_c,0,61,65
1,14460,Note_on_c,0,62,65
1,14460,Note_off_c,0,63,0
1,14520,Note_off_c,0,58,0
1,14520,Note_off_c,0,60,0
1,14520,Note_off_c,0,61,0
1,14520,Note_on_c,0,63,65
1,14520,Note_off_c,0,64,0
1,14520,Note_on_c,0,66,65
1,14580,Note_on_c,0,56,65
1,14580,Note_off_c,0,57,0
1,14580,Note_on_c,0,58,65
1,14580,Note_on_c,0,59,65
1,14580,Note_off_c,0,62,0
1,14580,Note_on_c,0,65,65
1,14580,Note_off_c,0,67,0
1,14640,Note_off_c,0,56,0
1,14640,Note_on_c,0,57,65
1,14640,Note_off_c,0,58,0
1,14640,Note_off_c,0,59,0
1,14640,Note_on_c,0,60,65
1,14640,Note_off_c,0,63,0
1,14640,Note_on_c,0,64,65
1,14640,Note_off_c,0,65,0
1,14640,Note_off_c,0,66,0
1,14640,Note_on_c,0,67,65
1,14700,Note_off_c,0,57,0
1,14700,Note_on_c,0,63,65
1,14700,Note_on_c,0,66,65
1,14760,Note_on_c,0,56,65
1,14760,Note_on_c,0,59,65
1,14760,Note_on_c,0,62,65
1,14760,Note_off_c,0,63,0
1,14760,Note_off_c,0,64,0
1,14760,Note_on_c,0,65,65
1,14760,Note_off_c,0,66,0
1,14760,Note_off_c,0,67,0
1,14820,Note_on_c,0,57,65
1,14820,Note_on_c,0,58,65
1,14820,Note_off_c,0,59,0
1,14820,Note_on_c,0,61,65
1,14820,Note_off_c,0,62,0
1,14820,Note_on_c,0,64,65
1,14880,Note_off_c,0,56,0
1,14880,Note_off_c,0,57,0
1,14880,Note_on_c,0,62,65
1,14880,Note_on_c,0,63,65
1,14880,Note_off_c,0,64,0
1,14880,Note_on_c,0,66,65
1,14880,Note_on_c,0,67,65
1,14940,Note_on_c,0,56,65
1,14940,Note_on_c,0,57,65
1,14940,Note_off_c,0,58,0
1,14940,Note_off_c,0,60,0
1,14940,Note_off_c,0,61,0
1,14940,Note_on_c,0,64,65
1,14940,Note_off_c,0,65,0
1,14940,Note_off_c,0,66,0
1,14940,Note_off_c,0,67,0
1,15000,Note_on_c,0,58,65
1,15000,Note_on_c,0,59,65
1,15000,Note_on_c,0,60,65
1,15000,Note_off_c,0,64,0
1,15060,Note_off_c,0,58,0
1,15060,Note_off_c,0,59,0
1,15060,Note_off_c,0,60,0
1,15060,Note_on_c,0,61,65
1,15060,Note_off_c,0,63,0
1,15060,Note_on_c,0,64,65
1,15120,Note_off_c,0,56,0
1,15120,Note_off_c,0,61,0
1,15120,Note_off_c,0,62,0
1,15120,Note_off_c,0,64,0
1,15120,Note_on_c,0,66,65
1,15180,Note_on_c,0,56,65
1,15180,Note_off_c,0,57,0
1,15180,Note_on_c,0,59,65
1,15180,Note_on_c,0,60,65
1,15180,Note_on_c,0,61,65
1,15180,Note_on_c,0,63,65
1,15240,Note_on_c,0,58,65
1,15240,Note_off_c,0,61,0
1,15240,Note_off_c,0,63,0
1,15240,Note_off_c,0,66,0
1,15300,Note_on_c,0,57,65
1,15300,Note_off_c,0,58,0
1,15300,Note_off_c,0,60,0
1,15300,Note_on_c,0,61,65
1,15300,Note_on_c,0,64,65
1,15300,Note_on_c,0,65,65
1,15300,Note_on_c,0,66,65
1,15360,Note_off_c,0,57,0
1,15360,Note_on_c,0,58,65
1,15360,Note_off_c,0,61,0
1,15360,Note_on_c,0,62,65
1,15360,Note_off_c,0,66,0
1,15420,Note_off_c,0,56,0
1,15420,Note_off_c,0,62,0
1,15420,Note_on_c,0,63,65
1,15420,Note_off_c,0,64,0
1,15420,Note_off_c,0,65,0
1,15420,Note_on_c,0,66,65
1,15480,Note_on_c,0,57,65
1,15480,Note_off_c,0,58,0
1,15480,Note_on_c,0,62,65
1,15480,Note_off_c,0,63,0
1,15480,Note_on_c,0,64,65
1,15540,Note_on_c,0,56,65
1,15540,Note_off_c,0,57,0
1,15540,Note_on_c,0,58,65
1,15540,Note_off_c,0,59,0
1,15540,Note_on_c,0,60,65
1,15540,Note_on_c,0,61,65
1,15540,Note_off_c,0,62,0
1,15540,Note_off_c,0,64,0
1,15540,Note_on_c,0,65,65
1,15540,Note_off_c,0,66,0
1,15600,Note_off_c,0,56,0
1,15600,Note_on_c,0,57,65
1,15600,Note_on_c,0,59,65
1,15600,Note_on_c,0,62,65
1,15600,Note_on_c,0,63,65
1,15600,Note_off_c,0,65,0
1,15600,Note_on_c,0,67,65
1,15660,Note_off_c,0,57,0
1,15660,Note_off_c,0,58,0
1,15660,Note_off_c,0,60,0
1,15660,Note_off_c,0,62,0
1,15660,Note_on_c,0,65,65
1,15720,Note_on_c,0,56,65
1,15720,Note_on_c,0,58,65
1,15720,Note_off_c,0,59,0
1,15720,Note_off_c,0,61,0
1,15720,Note_on_c,0,62,65
1,15720,Note_off_c,0,65,0
1,15720,Note_off_c,0,67,0
1,15780,Note_off_c,0,58,0
1,15780,Note_on_c,0,59,65
1,15780,Note_on_c,0,61,65
1,15780,Note_on_c,0,65,65
1,15780,Note_on_c,0,66,65
1,15840,Note_on_c,0,57,65
1,15840,Note_on_c,0,58,65
1,15840,Note_off_c,0,59,0
1,15840,Note_on_c,0,60,65
1,15840,Note_off_c,0,65,0
1,15840,Note_off_c,0,66,0
1,15900,Note_off_c,0,58,0
1,15900,Note_on_c,0,59,65
1,15900,Note_on_c,0,64,65
1,15900,Note_on_c,0,65,65
1,15900,Note_on_c,0,66,65
1,15900,Note_on_c,0,67,65
1,15960,Note_off_c,0,56,0
1,15960,Note_on_c,0,58,65
1,15960,Note_off_c,0,61,0
1,15960,Note_off_c,0,64,0
1,16020,Note_off_c,0,57,0
1,16020,Note_off_c,0,59,0
1,16020,Note_off_c,0,63,0
1,16020,Note_on_c,0,64,65
1,16020,Note_off_c,0,66,0
1,16080,Note_on_c,0,56,65
1,16080,Note_on_c,0,57,65
1,16080,Note_off_c,0,58,0
1,16080,Note_on_c,0,59,65
1,16080,Note_off_c,0,60,0
1,16080,Note_on_c,0,61,65
1,16080,Note_off_c,0,62,0
1,16080,Note_off_c,0,64,0
1,16080,Note_off_c,0,65,0
1,16080,Note_off_c,0,67,0
1,16140,Note_off_c,0,56,0
1,16140,Note_off_c,0,57,0
1,16140,Note_on_c,0,58,65
1,16140,Note_off_c,0,59,0
1,16140,Note_on_c,0,60,65
1,16140,Note_on_c,0,64,65
1,16140,Note_on_c,0,65,65
1,16140,Note_on_c,0,66,65
1,16140,Note_on_c,0,67,65
1,16200,Note_on_c,0,57,65
1,16200,Note_on_c,0,62,65
1,16200,Note_off_c,0,65,0
1,16200,Note_off_c,0,66,0
1,16260,Note_off_c,0,57,0
1,16260,Note_off_c,0,58,0
1,16260,Note_on_c,0,63,65
1,16260,Note_on_c,0,66,65
1,16260,Note_off_c,0,67,0
1,16320,Note_on_c,0,56,65
1,16320,Note_on_c,0,57,65
1,16320,Note_on_c,0,58,65
1,16320,Note_off_c,0,60,0
1,16320,Note_off_c,0,66,0
1,16380,Note_off_c,0,56,0
1,16380,Note_off_c,0,57,0
1,16380,Note_off_c,0,64,0
1,16380,Note_on_c,0,65,65
1,16380,Note_on_c,0,66,65
1,16380,Note_on_c,0,67,65
1,16440,Note_on_c,0,59,65
1,16440,Note_on_c,0,60,65
1,16440,Note_off_c,0,61,0
1,16440,Note_off_c,0,62,0
1,16440,Note_off_c,0,63,0
1,16440,Note_on_c,0,64,65
1,16440,Note_off_c,0,65,0
1,16440,Note_off_c,0,66,0
1,16440,Note_off_c,0,67,0
1,16500,Note_on_c,0,57,65
1,16500,Note_off_c,0,58,0
1,16500,Note_on_c,0,62,65
1,16500,Note_on_c,0,63,65
1,16500,Note_off_c,0,64,0
1,16500,Note_on_c,0,66,65
1,16500,Note_on_c,0,67,65
1,16560,Note_on_c,0,56,65
1,16560,Note_off_c,0,57,0
1,16560,Note_on_c,0,58,65
1,16560,Note_off_c,0,62,0
1,16560,Note_on_c,0,64,65
1,16560,Note_on_c,0,65,65
1,16560,Note_off_c,0,67,0
1,16620,Note_off_c,0,56,0
1,16620,Note_off_c,0,58,0
1,16620,Note_off_c,0,60,0
1,16620,Note_on_c,0,61,65
1,16620,Note_off_c,0,63,0
1,16620,Note_off_c,0,64,0
1,16620,Note_on_c,0,67,65
1,16680,Note_on_c,0,58,65
1,16680,Note_off_c,0,59,0
1,16680,Note_on_c,0,62,65
1,16680,Note_on_c,0,63,65
1,16680,Note_on_c,0,64,65
1,16680,Note_off_c,0,66,0
1,16740,Note_on_c,0,56,65
1,16740,Note_on_c,0,57,65
1,16740,Note_off_c,0,61,0
1,16740,Note_off_c,0,65,0
1,16800,Note_off_c,0,57,0
1,16800,Note_off_c,0,62,0
1,16800,Note_off_c,0,67,0
1,16860,Note_off_c,0,56,0
1,16860,Note_on_c,0,57,65
1,16860,Note_off_c,0,58,0
1,16860,Note_on_c,0,59,65
1,16860,Note_on_c,0,60,65
1,16860,Note_on_c,0,61,65
1,16860,Note_on_c,0,65,65
1,16860,Note_on_c,0,67,65
1,16920,Note_on_c,0,56,65
1,16920,Note_off_c,0,57,0
1,16920,Note_on_c,0,58,65
1,16920,Note_off_c,0,59,0
1,16920,Note_off_c,0,65,0
1,16920,Note_on_c,0,66,65
1,16920,Note_off_c,0,67,0
1,16980,Note_off_c,0,56,0
1,16980,Note_off_c,0,58,0
1,16980,Note_off_c,0,60,0
1,16980,Note_off_c,0,61,0
1,16980,Note_on_c,0,62,65
1,16980,Note_on_c,0,65,65
1,17040,Note_on_c,0,57,65
1,17040,Note_off_c,0,62,0
1,17040,Note_off_c,0,63,0
1,17040,Note_off_c,0,66,0
1,17040,Note_on_c,0,67,65
1,17100,Note_on_c,0,59,65
1,17100,Note_off_c,0,64,0
1,17100,Note_off_c,0,65,0
1,17100,Note_off_c,0,67,0
1,17160,Note_on_c,0,56,65
1,17160,Note_on_c,0,60,65
1,17160,Note_on_c,0,64,65
1,17160,Note_on_c,0,65,65
1,17160,Note_on_c,0,66,65
1,17160,Note_on_c,0,67,65
1,17220,Note_off_c,0,56,0
1,17220,Note_off_c,0,57,0
1,17220,Note_on_c,0,58,65
1,17220,Note_off_c,0,59,0
1,17220,Note_off_c,0,65,0
1,17220,Note_off_c,0,66,0
1,17220,Note_off_c,0,67,0
1,17280,Note_on_c,0,57,65
1,17280,Note_on_c,0,61,65
1,17280,Note_on_c,0,62,65
1,17280,Note_on_c,0,65,65
1,17340,Note_on_c,0,56,65
1,17340,Note_off_c,0,57,0
1,17340,Note_off_c,0,58,0
1,17340,Note_on_c,0,59,65
1,17340,Note_off_c,0,61,0
1,17340,Note_off_c,0,62,0
1,17340,Note_on_c,0,63,65
1,17340,Note_off_c,0,65,0
1,17340,Note_on_c,0,67,65
1,17400,Note_off_c,0,56,0
1,17400,Note_on_c,0,58,65
1,17400,Note_off_c,0,59,0
1,17400,Note_off_c,0,60,0
1,17400,Note_on_c,0,62,65
1,17400,Note_off_c,0,64,0
1,17400,Note_on_c,0,65,65
1,17460,Note_on_c,0,57,65
1,17460,Note_on_c,0,59,65
1,17460,Note_off_c,0,62,0
1,17460,Note_off_c,0,63,0
1,17460,Note_on_c,0,64,65
1,17460,Note_off_c,0,65,0
1,17460,Note_on_c,0,66,65
1,17460,Note_off_c,0,67,0
1,17520,Note_on_c,0,56,65
1,17520,Note_off_c,0,58,0
1,17520,Note_off_c,0,59,0
1,17520,Note_on_c,0,62,65
1,17520,Note_on_c,0,63,65
1,17520,Note_off_c,0,64,0
1,17520,Note_off_c,0,66,0
1,17580,Note_off_c,0,56,0
1,17580,Note_off_c,0,57,0
1,17580,Note_on_c,0,60,65
1,17580,Note_off_c,0,62,0
1,17580,Note_on_c,0,64,65
1,17580,Note_on_c,0,67,65
1,17640,Note_on_c,0,59,65
1,17640,Note_on_c,0,61,65
1,17640,Note_on_c,0,62,65
1,17640,Note_off_c,0,64,0
1,17640,Note_off_c,0,67,0
1,17700,Note_on_c,0,56,65
1,17700,Note_on_c,0,57,65
1,17700,Note_off_c,0,63,0
1,17700,Note_on_c,0,64,65
1,17700,Note_on_c,0,65,65
1,17700,Note_on_c,0,67,65
1,17760,Note_off_c,0,57,0
1,17760,Note_on_c,0,58,65
1,17760,Note_off_c,0,61,0
1,17760,Note_off_c,0,62,0
1,17760,Note_off_c,0,65,0
1,17820,Note_off_c,0,56,0
1,17820,Note_off_c,0,58,0
1,17820,Note_off_c,0,59,0
1,17820,Note_off_c,0,60,0
1,17820,Note_on_c,0,61,65
1,17820,Note_on_c,0,62,65
1,17820,Note_on_c,0,65,65
1,17820,Note_on_c,0,66,65
1,17820,Note_off_c,0,67,0
1,17880,Note_on_c,0,56,65
1,17880,Note_on_c,0,57,65
1,17880,Note_on_c,0,58,65
1,17880,Note_on_c,0,59,65
1,17880,Note_on_c,0,60,65
1,17880,Note_off_c,0,64,0
1,17880,Note_off_c,0,65,0
1,17940,Note_off_c,0,58,0
1,17940,Note_off_c,0,59,0
1,17940,Note_off_c,0,60,0
1,17940,Note_off_c,0,61,0
1,17940,Note_on_c,0,63,65
1,17940,Note_on_c,0,64,65
1,17940,Note_on_c,0,65,65
1,17940,Note_off_c,0,66,0
1,18000,Note_off_c,0,56,0
1,18000,Note_on_c,0,58,65
1,18000,Note_on_c,0,59,65
1,18000,Note_on_c,0,61,65
1,18000,Note_off_c,0,62,0
1,18000,Note_off_c,0,65,0
1,18000,Note_on_c,0,66,65
1,18060,Note_on_c,0,56,65
1,18060,Note_off_c,0,57,0
1,18060,Note_off_c,0,59,0
1,18060,Note_on_c,0,60,65
1,18060,Note_off_c,0,64,0
1,18060,Note_on_c,0,65,65
1,18060,Note_on_c,0,67,65
1,18120,Note_off_c,0,58,0
1,18120,Note_on_c,0,59,65
1,18120,Note_off_c,0,61,0
1,18120,Note_off_c,0,67,0
1,18180,Note_on_c,0,61,65
1,18180,Note_on_c,0,62,65
1,18180,Note_off_c,0,65,0
1,18240,Note_off_c,0,56,0
1,18240,Note_on_c,0,58,65
1,18240,Note_off_c,0,59,0
1,18240,Note_off_c,0,62,0
1,18240,Note_on_c,0,64,65
1,18240,Note_off_c,0,66,0
1,18240,Note_on_c,0,67,65
1,18300,Note_on_c,0,57,65
1,18300,Note_off_c,0,58,0
1,18300,Note_on_c,0,59,65
1,18300,Note_off_c,0,61,0
1,18300,Note_on_c,0,62,65
1,18300,Note_on_c,0,65,65
1,18300,Note_on_c,0,66,65
1,18300,Note_off_c,0,67,0
1,18360,Note_off_c,0,60,0
1,18360,Note_off_c,0,62,0
1,18360,Note_off_c,0,63,0
1,18360,Note_on_c,0,67,65
1,18420,Note_on_c,0,56,65
1,18420,Note_off_c,0,59,0
1,18420,Note_on_c,0,63,65
1,18420,Note_off_c,0,65,0
1,18480,Note_off_c,0,57,0
1,18480,Note_on_c,0,59,65
1,18480,Note_on_c,0,61,65
1,18480,Note_off_c,0,64,0
1,18480,Note_off_c,0,66,0
1,18480,Note_off_c,0,67,0
1,18540,Note_off_c,0,56,0
1,18540,Note_on_c,0,57,65
1,18540,Note_on_c,0,58,65
1,18540,Note_off_c,0,59,0
1,18540,Note_off_c,0,61,0
1,18540,Note_on_c,0,62,65
1,18540,Note_on_c,0,66,65
1,18540,Note_on_c,0,67,65
1,18600,Note_off_c,0,57,0
1,18600,Note_off_c,0,58,0
1,18600,Note_on_c,0,59,65
1,18600,Note_off_c,0,62,0
1,18600,Note_off_c,0,63,0
1,18600,Note_on_c,0,65,65
1,18600,Note_off_c,0,66,0
1,18600,Note_off_c,0,67,0
1,18660,Note_on_c,0,56,65
1,18660,Note_on_c,0,57,65
1,18660,Note_on_c,0,58,65
1,18660,Note_on_c,0,61,65
1,18660,Note_on_c,0,63,65
1,18720,Note_on_c,0,64,65
1,18720,Note_on_c,0,67,65
1,18780,Note_off_c,0,56,0
1,18780,Note_off_c,0,57,0
1,18780,Note_off_c,0,58,0
1,18780,Note_on_c,0,60,65
1,18780,Note_off_c,0,64,0
1,18780,Note_off_c,0,65,0
1,18840,Note_on_c,0,57,65
1,18840,Note_on_c,0,58,65
1,18840,Note_off_c,0,60,0
1,18840,Note_off_c,0,61,0
1,18840,Note_on_c,0,62,65
1,18840,Note_off_c,0,63,0
1,18840,Note_on_c,0,65,65
1,18840,Note_on_c,0,66,65
1,18840,Note_off_c,0,67,0
1,18900,Note_off_c,0,58,0
1,18900,Note_on_c,0,60,65
1,18900,Note_on_c,0,63,65
1,18900,Note_on_c,0,64,65
1,18960,Note_on_c,0,56,65
1,18960,Note_off_c,0,60,0
1,18960,Note_on_c,0,67,65
1,19020,Note_off_c,0,56,0
1,19020,Note_on_c,0,58,65
1,19020,Note_on_c,0,60,65
1,19020,Note_on_c,0,61,65
1,19020,Note_off_c,0,62,0
1,19020,Note_off_c,0,64,0
1,19020,Note_off_c,0,65,0
1,19020,Note_off_c,0,66,0
1,19020,Note_off_c,0,67,0
1,19080,Note_on_c,0,56,65
1,19080,Note_off_c,0,57,0
1,19080,Note_off_c,0,58,0
1,19080,Note_off_c,0,59,0
1,19080,Note_off_c,0,60,0
1,19080,Note_off_c,0,61,0
1,19080,Note_on_c,0,64,65
1,19140,Note_off_c,0,56,0
1,19140,Note_on_c,0,57,65
1,19140,Note_on_c,0,58,65
1,19140,Note_on_c,0,60,65
1,19140,Note_on_c,0,61,65
1,19140,Note_on_c,0,62,65
1,19140,Note_on_c,0,67,65
1,19200,Note_on_c,0,56,65
1,19200,Note_on_c,0,59,65
1,19200,Note_off_c,0,60,0
1,19200,Note_off_c,0,61,0
1,19200,Note_off_c,0,63,0
1,19200,Note_off_c,0,64,0
1,19260,Note_off_c,0,56,0
1,19260,Note_off_c,0,57,0
1,19260,Note_on_c,0,60,65
1,19260,Note_on_c,0,66,65
1,19320,Note_on_c,0,56,65
1,19320,Note_off_c,0,59,0
1,19320,Note_off_c,0,60,0
1,19320,Note_off_c,0,66,0
1,19380,Note_off_c,0,56,0
1,19380,Note_on_c,0,57,65
1,19380,Note_on_c,0,60,65
1,19380,Note_on_c,0,61,65
1,19380,Note_on_c,0,65,65
1,19440,Note_on_c,0,59,65
1,19440,Note_off_c,0,61,0
1,19440,Note_on_c,0,63,65
1,19440,Note_off_c,0,67,0
1,19500,Note_on_c,0,56,65
1,19500,Note_off_c,0,62,0
1,19560,Note_off_c,0,59,0
1,19560,Note_on_c,0,62,65
1,19560,Note_off_c,0,63,0
1,19560,Note_on_c,0,64,65
1,19620,Note_off_c,0,57,0
1,19620,Note_off_c,0,58,0
1,19620,Note_on_c,0,59,65
1,19620,Note_off_c,0,62,0
1,19620,Note_off_c,0,64,0
1,19620,Note_off_c,0,65,0
1,19620,Note_on_c,0,66,65
1,19680,Note_off_c,0,59,0
1,19680,Note_off_c,0,60,0
1,19680,Note_on_c,0,61,65
1,19680,Note_on_c,0,62,65
1,19680,Note_on_c,0,64,65
1,19680,Note_on_c,0,65,65
1,19680,Note_on_c,0,67,65
1,19740,Note_off_c,0,56,0
1,19740,Note_on_c,0,57,65
1,19740,Note_on_c,0,59,65
1,19740,Note_off_c,0,61,0
1,19740,Note_on_c,0,63,65
1,19740,Note_off_c,0,66,0
1,19740,Note_off_c,0,67,0
1,19800,Note_off_c,0,57,0
1,19800,Note_on_c,0,60,65
1,19800,Note_on_c,0,61,65
1,19800,Note_on_c,0,67,65
1,19860,Note_on_c,0,56,65
1,19860,Note_on_c,0,57,65
1,19860,Note_on_c,0,58,65
1,19860,Note_off_c,0,60,0
1,19860,Note_off_c,0,62,0
1,19860,Note_off_c,0,63,0
1,19860,Note_off_c,0,64,0
1,19860,Note_off_c,0,65,0
1,19920,Note_off_c,0,56,0
1,19920,Note_off_c,0,57,0
1,19920,Note_off_c,0,59,0
1,19920,Note_on_c,0,60,65
1,19920,Note_on_c,0,62,65
1,19920,Note_on_c,0,64,65
1,19920,Note_on_c,0,65,65
1,19920,Note_on_c,0,66,65
1,19980,Note_on_c,0,56,65
1,19980,Note_on_c,0,63,65
1,19980,Note_off_c,0,64,0
1,19980,Note_off_c,0,65,0
1,19980,Note_off_c,0,67,0
1,20040,Note_on_c,0,57,65
1,20040,Note_off_c,0,58,0
1,20040,Note_off_c,0,63,0
1,20040,Note_on_c,0,64,65
1,20040,Note_off_c,0,66,0
1,20100,Note_off_c,0,56,0
1,20100,Note_off_c,0,61,0
1,20100,Note_off_c,0,62,0
1,20100,Note_on_c,0,63,65
1,20100,Note_off_c,0,64,0
1,20100,Note_on_c,0,65,65
1,20100,Note_on_c,0,67,65
1,20160,Note_on_c,0,56,65
1,20160,Note_on_c,0,58,65
1,20160,Note_on_c,0,59,65
1,20160,Note_on_c,0,61,65
1,20160,Note_on_c,0,64,65
1,20160,Note_on_c,0,66,65
1,20160,Note_off_c,0,67,0
1,20220,Note_off_c,0,57,0
1,20220,Note_off_c,0,61,0
1,20280,Note_off_c,0,56,0
1,20280,Note_on_c,0,57,65
1,20280,Note_off_c,0,58,0
1,20280,Note_off_c,0,59,0
1,20280,Note_off_c,0,65,0
1,20280,Note_off_c,0,66,0
1,20340,Note_on_c,0,56,65
1,20340,Note_off_c,0,57,0
1,20340,Note_on_c,0,62,65
1,20340,Note_off_c,0,63,0
1,20400,Note_on_c,0,57,65
1,20400,Note_on_c,0,58,65
1,20400,Note_on_c,0,61,65
1,20460,Note_off_c,0,58,0
1,20460,Note_off_c,0,60,0
1,20460,Note_on_c,0,63,65
1,20460,Note_on_c,0,65,65
1,20460,Note_on_c,0,67,65
1,20520,Note_off_c,0,56,0
1,20520,Note_off_c,0,57,0
1,20520,Note_on_c,0,58,65
1,20520,Note_off_c,0,61,0
1,20520,Note_off_c,0,62,0
1,20520,Note_off_c,0,63,0
1,20520,Note_off_c,0,64,0
1,20520,Note_off_c,0,65,0
1,20520,Note_on_c,0,66,65
1,20580,Note_on_c,0,62,65
1,20580,Note_on_c,0,63,65
1,20580,Note_on_c,0,65,65
1,20580,Note_off_c,0,67,0
1,20640,Note_on_c,0,56,65
1,20640,Note_off_c,0,58,0
1,20640,Note_on_c,0,59,65
1,20640,Note_on_c,0,60,65
1,20640,Note_off_c,0,65,0
1,20640,Note_off_c,0,66,0
1,20700,Note_off_c,0,59,0
1,20700,Note_off_c,0,62,0
1,20700,Note_off_c,0,63,0
1,20700,Note_on_c,0,65,65
1,20700,Note_on_c,0,66,65
1,20760,Note_off_c,0,56,0
1,20760,Note_on_c,0,59,65
1,20760,Note_on_c,0,64,65
1,20760,Note_off_c,0,65,0
1,20760,Note_on_c,0,67,65
1,20820,Note_on_c,0,56,65
1,20820,Note_on_c,0,57,65
1,20820,Note_off_c,0,59,0
1,20820,Note_off_c,0,60,0
1,20820,Note_on_c,0,61,65
1,20820,Note_off_c,0,64,0
1,20880,Note_off_c,0,57,0
1,20880,Note_on_c,0,58,65
1,20880,Note_on_c,0,59,65
1,20880,Note_off_c,0,61,0
1,20880,Note_on_c,0,62,65
1,20880,Note_on_c,0,63,65
1,20880,Note_off_c,0,66,0
1,20940,Note_on_c,0,57,65
1,20940,Note_on_c,0,61,65
1,20940,Note_off_c,0,62,0
1,20940,Note_on_c,0,65,65
1,20940,Note_on_c,0,66,65
1,20940,Note_off_c,0,67,0
1,21000,Note_off_c,0,57,0
1,21000,Note_off_c,0,59,0
1,21000,Note_on_c,0,60,65
1,21000,Note_off_c,0,63,0
1,21000,Note_off_c,0,65,0
1,21000,Note_off_c,0,66,0
1,21060,Note_off_c,0,56,0
1,21060,Note_off_c,0,58,0
1,21060,Note_on_c,0,59,65
1,21060,Note_off_c,0,61,0
1,21060,Note_on_c,0,62,65
1,21060,Note_on_c,0,63,65
1,21060,Note_on_c,0,65,65
1,21060,Note_on_c,0,67,65
1,21120,Note_on_c,0,56,65
1,21120,Note_on_c,0,57,65
1,21120,Note_off_c,0,60,0
1,21120,Note_on_c,0,61,65
1,21120,Note_off_c,0,62,0
1,21120,Note_off_c,0,63,0
1,21120,Note_off_c,0,67,0
1,21180,Note_off_c,0,57,0
1,21180,Note_off_c,0,59,0
1,21180,Note_on_c,0,60,65
1,21180,Note_on_c,0,63,65
1,21180,Note_off_c,0,65,0
1,21240,Note_on_c,0,58,65
1,21240,Note_on_c,0,59,65
1,21240,Note_off_c,0,60,0
1,21240,Note_off_c,0,61,0
1,21240,Note_on_c,0,64,65
1,21240,Note_on_c,0,66,65
1,21240,Note_on_c,0,67,65
1,21300,Note_off_c,0,58,0
1,21300,Note_off_c,0,59,0
1,21300,Note_on_c,0,60,65
1,21300,Note_on_c,0,62,65
1,21300,Note_off_c,0,63,0
1,21300,Note_off_c,0,66,0
1,21300,Note_off_c,0,67,0
1,21360,Note_on_c,0,57,65
1,21360,Note_on_c,0,58,65
1,21360,Note_off_c,0,60,0
1,21360,Note_off_c,0,62,0
1,21360,Note_on_c,0,66,65
1,21420,Note_on_c,0,60,65
1,21420,Note_on_c,0,61,65
1,21420,Note_on_c,0,63,65
1,21420,Note_off_c,0,64,0
1,21420,Note_on_c,0,65,65
1,21420,Note_off_c,0,66,0
1,21480,Note_off_c,0,56,0
1,21480,Note_off_c,0,58,0
1,21480,Note_off_c,0,60,0
1,21480,Note_off_c,0,61,0
1,21480,Note_on_c,0,62,65
1,21480,Note_off_c,0,63,0
1,21480,Note_on_c,0,64,65
1,21480,Note_off_c,0,65,0
1,21540,Note_on_c,0,56,65
1,21540,Note_off_c,0,57,0
1,21540,Note_on_c,0,58,65
1,21540,Note_on_c,0,60,65
1,21540,Note_on_c,0,61,65
1,21540,Note_off_c,0,62,0
1,21540,Note_on_c,0,63,65
1,21540,Note_off_c,0,64,0
1,21600,Note_off_c,0,56,0
1,21600,Note_off_c,0,58,0
1,21600,Note_off_c,0,61,0
1,21600,Note_on_c,0,62,65
1,21600,Note_off_c,0,63,0
1,21600,Note_on_c,0,65,65
1,21600,Note_on_c,0,67,65
1,21660,Note_on_c,0,56,65
1,21660,Note_on_c,0,57,65
1,21660,Note_on_c,0,59,65
1,21660,Note_on_c,0,66,65
1,21660,Note_off_c,0,67,0
1,21720,Note_off_c,0,56,0
1,21720,Note_off_c,0,62,0
1,21720,Note_on_c,0,64,65
1,21720,Note_off_c,0,66,0
1,21780,Note_on_c,0,56,65
1,21780,Note_on_c,0,58,65
1,21780,Note_off_c,0,60,0
1,21780,Note_on_c,0,62,65
1,21780,Note_off_c,0,65,0
1,21780,Note_on_c,0,66,65
1,21840,Note_on_c,0,60,65
1,21840,Note_on_c,0,63,65
1,21840,Note_off_c,0,64,0
1,21840,Note_on_c,0,65,65
1,21840,Note_off_c,0,66,0
1,21900,Note_off_c,0,57,0
1,21900,Note_off_c,0,58,0
1,21900,Note_on_c,0,61,65
1,21900,Note_off_c,0,63,0
1,21900,Note_off_c,0,65,0
1,21900,Note_on_c,0,67,65
1,21960,Note_off_c,0,56,0
1,21960,Note_on_c,0,58,65
1,21960,Note_off_c,0,60,0
1,21960,Note_off_c,0,61,0
1,21960,Note_on_c,0,63,65
1,21960,Note_on_c,0,64,65
1,21960,Note_on_c,0,65,65
1,21960,Note_off_c,0,67,0
1,22020,Note_off_c,0,58,0
1,22020,Note_off_c,0,59,0
1,22020,Note_off_c,0,65,0
1,22020,Note_on_c,0,66,65
1,22020,Note_on_c,0,67,65
1,22080,Note_on_c,0,56,65
1,22080,Note_on_c,0,58,65
1,22080,Note_on_c,0,59,65
1,22080,Note_on_c,0,60,65
1,22080,Note_on_c,0,61,65
1,22080,Note_off_c,0,63,0
1,22080,Note_off_c,0,64,0
1,22080,Note_off_c,0,67,0
1,22140,Note_on_c,0,57,65
1,22140,Note_off_c,0,58,0
1,22140,Note_off_c,0,61,0
1,22140,Note_off_c,0,62,0
1,22140,Note_on_c,0,67,65
1,22200,Note_off_c,0,56,0
1,22200,Note_off_c,0,57,0
1,22200,Note_off_c,0,59,0
1,22200,Note_on_c,0,61,65
1,22200,Note_on_c,0,62,65
1,22200,Note_on_c,0,65,65
1,22200,Note_off_c,0,67,0
1,22260,Note_on_c,0,56,65
1,22260,Note_on_c,0,57,65
1,22260,Note_on_c,0,59,65
1,22260,Note_off_c,0,62,0
1,22260,Note_on_c,0,63,65
1,22260,Note_off_c,0,65,0
1,22260,Note_off_c,0,66,0
1,22260,Note_on_c,0,67,65
1,22320,Note_off_c,0,56,0
1,22320,Note_off_c,0,57,0
1,22320,Note_off_c,0,61,0
1,22320,Note_off_c,0,63,0
1,22320,Note_on_c,0,64,65
1,22320,Note_on_c,0,65,65
1,22320,Note_on_c,0,66,65
1,22380,Note_on_c,0,57,65
1,22380,Note_off_c,0,59,0
1,22380,Note_off_c,0,60,0
1,22380,Note_on_c,0,63,65
1,22380,Note_off_c,0,67,0
1,22440,Note_on_c,0,56,65
1,22440,Note_off_c,0,57,0
1,22440,Note_on_c,0,58,65
1,22440,Note_on_c,0,62,65
1,22440,Note_off_c,0,65,0
1,22440,Note_off_c,0,66,0
1,22500,Note_off_c,0,56,0
1,22500,Note_on_c,0,60,65
1,22500,Note_off_c,0,62,0
1,22500,Note_off_c,0,63,0
1,22500,Note_off_c,0,64,0
1,22500,Note_on_c,0,66,65
1,22500,Note_on_c,0,67,65
1,22560,Note_on_c,0,56,65
1,22560,Note_on_c,0,57,65
1,22560,Note_off_c,0,58,0
1,22560,Note_off_c,0,60,0
1,22560,Note_on_c,0,62,65
1,22560,Note_on_c,0,63,65
1,22560,Note_on_c,0,64,65
1,22620,Note_off_c,0,56,0
1,22620,Note_off_c,0,57,0
1,22620,Note_on_c,0,59,65
1,22620,Note_on_c,0,65,65
1,22620,Note_off_c,0,66,0
1,22620,Note_off_c,0,67,0
1,22680,Note_on_c,0,56,65
1,22680,Note_on_c,0,57,65
1,22680,Note_on_c,0,58,65
1,22680,Note_on_c,0,60,65
1,22680,Note_off_c,0,64,0
1,22740,Note_off_c,0,56,0
1,22740,Note_off_c,0,60,0
1,22740,Note_on_c,0,61,65
1,22740,Note_off_c,0,62,0
1,22740,Note_off_c,0,65,0
1,22740,Note_on_c,0,67,65
1,22800,Note_off_c,0,59,0
1,22800,Note_on_c,0,60,65
1,22800,Note_off_c,0,61,0
1,22800,Note_on_c,0,62,65
1,22800,Note_on_c,0,65,65
1,22800,Note_on_c,0,66,65
1,22800,Note_off_c,0,67,0
1,22860,Note_off_c,0,58,0
1,22860,Note_on_c,0,59,65
1,22860,Note_on_c,0,61,65
1,22860,Note_on_c,0,64,65
1,22860,Note_off_c,0,65,0
1,22860,Note_off_c,0,66,0
1,22920,Note_on_c,0,58,65
1,22920,Note_off_c,0,59,0
1,22920,Note_off_c,0,62,0
1,22920,Note_off_c,0,63,0
1,22920,Note_off_c,0,64,0
1,22920,Note_on_c,0,65,65
1,22920,Note_on_c,0,66,65
1,22980,Note_on_c,0,56,65
1,22980,Note_off_c,0,57,0
1,22980,Note_off_c,0,58,0
1,22980,Note_off_c,0,65,0
1,22980,Note_off_c,0,66,0
1,23040,Note_off_c,0,56,0
1,23040,Note_on_c,0,57,65
1,23040,Note_on_c,0,58,65
1,23040,Note_on_c,0,62,65
1,23040,Note_on_c,0,63,65
1,23100,Note_on_c,0,56,65
1,23100,Note_off_c,0,58,0
1,23100,Note_on_c,0,59,65
1,23100,Note_off_c,0,60,0
1,23100,Note_off_c,0,61,0
1,23100,Note_off_c,0,62,0
1,23100,Note_off_c,0,63,0
1,23100,Note_on_c,0,67,65
1,23160,Note_off_c,0,56,0
1,23160,Note_off_c,0,57,0
1,23160,Note_on_c,0,58,65
1,23160,Note_on_c,0,61,65
1,23160,Note_on_c,0,62,65
1,23160,Note_on_c,0,64,65
1,23160,Note_on_c,0,65,65
1,23220,Note_on_c,0,56,65
1,23220,Note_off_c,0,59,0
1,23220,Note_off_c,0,64,0
1,23220,Note_off_c,0,65,0
1,23220,Note_on_c,0,66,65
1,23220,Note_off_c,0,67,0
1,23280,Note_on_c,0,57,65
1,23280,Note_off_c,0,58,0
1,23280,Note_on_c,0,59,65
1,23280,Note_on_c,0,60,65
1,23280,Note_off_c,0,61,0
1,23280,Note_on_c,0,63,65
1,23280,Note_on_c,0,65,65
1,23280,Note_on_c,0,67,65
1,23340,Note_off_c,0,56,0
1,23340,Note_on_c,0,58,65
1,23340,Note_off_c,0,60,0
1,23340,Note_on_c,0,61,65
1,23340,Note_off_c,0,63,0
1,23340,Note_on_c,0,64,65
1,23340,Note_off_c,0,67,0
1,23400,Note_off_c,0,57,0
1,23400,Note_off_c,0,62,0
1,23400,Note_off_c,0,64,0
1,23460,Note_on_c,0,57,65
1,23460,Note_off_c,0,58,0
1,23460,Note_on_c,0,60,65
1,23460,Note_off_c,0,61,0
1,23460,Note_on_c,0,62,65
1,23460,Note_on_c,0,63,65
1,23460,Note_on_c,0,64,65
1,23460,Note_off_c,0,66,0
1,23460,Note_on_c,0,67,65
1,23520,Note_off_c,0,57,0
1,23520,Note_off_c,0,60,0
1,23520,Note_on_c,0,61,65
1,23520,Note_off_c,0,62,0
1,23520,Note_off_c,0,63,0
1,23520,Note_off_c,0,65,0
1,23580,Note_on_c,0,58,65
1,23580,Note_on_c,0,60,65
1,23580,Note_on_c,0,63,65
1,23580,Note_off_c,0,64,0
1,23580,Note_on_c,0,65,65
1,23580,Note_on_c,0,66,65
1,23640,Note_on_c,0,62,65
1,23640,Note_off_c,0,63,0
1,23640,Note_on_c,0,64,65
1,23640,Note_off_c,0,67,0
1,23700,Note_on_c,0,56,65
1,23700,Note_on_c,0,57,65
1,23700,Note_off_c,0,59,0
1,23700,Note_off_c,0,60,0
1,23700,Note_off_c,0,62,0
1,23700,Note_on_c,0,63,65
1,23700,Note_off_c,0,64,0
1,23700,Note_off_c,0,65,0
1,23700,Note_on_c,0,67,65
1,23760,Note_off_c,0,58,0
1,23760,Note_on_c,0,60,65
1,23760,Note_off_c,0,63,0
1,23760,Note_on_c,0,65,65
1,23760,Note_off_c,0,67,0
1,23820,Note_on_c,0,59,65
1,23820,Note_on_c,0,64,65
1,23820,Note_off_c,0,66,0
1,23820,Note_on_c,0,67,65
1,23880,Note_off_c,0,57,0
1,23880,Note_on_c,0,58,65
1,23880,Note_off_c,0,59,0
1,23880,Note_on_c,0,62,65
1,23880,Note_on_c,0,63,65
1,23880,Note_off_c,0,67,0
1,23940,Note_off_c,0,63,0
1,23940,Note_off_c,0,65,0
1,23940,Note_on_c,0,66,65
1,24000,Note_off_c,0,56,0
1,24000,Note_on_c,0,57,65
1,24000,Note_off_c,0,58,0
1,24000,Note_on_c,0,59,65
1,24000,Note_off_c,0,61,0
1,24000,Note_off_c,0,62,0
1,24000,Note_on_c,0,63,65
1,24000,Note_off_c,0,64,0
1,24000,Note_on_c,0,65,65
1,24000,Note_off_c,0,66,0
1,24060,Note_on_c,0,56,65
1,24060,Note_off_c,0,57,0
1,24060,Note_off_c,0,59,0
1,24060,Note_off_c,0,60,0
1,24060,Note_on_c,0,61,65
1,24060,Note_off_c,0,63,0
1,24060,Note_on_c,0,64,65
1,24060,Note_on_c,0,66,65
1,24060,Note_on_c,0,67,65
1,24120,Note_off_c,0,56,0
1,24120,Note_off_c,0,61,0
1,24120,Note_on_c,0,63,65
1,24120,Note_off_c,0,65,0
1,24120,Note_off_c,0,66,0
1,24120,Note_off_c,0,67,0
1,24180,Note_on_c,0,56,65
1,24180,Note_on_c,0,60,65
1,24180,Note_on_c,0,61,65
1,24180,Note_off_c,0,64,0
1,24180,Note_on_c,0,65,65
1,24180,Note_on_c,0,66,65
1,24180,Note_on_c,0,67,65
1,24240,Note_off_c,0,56,0
1,24240,Note_on_c,0,57,65
1,24240,Note_on_c,0,59,65
1,24240,Note_on_c,0,64,65
1,24240,Note_off_c,0,65,0
1,24240,Note_off_c,0,66,0
1,24240,Note_off_c,0,67,0
1,24300,Note_on_c,0,56,65
1,24300,Note_on_c,0,58,65
1,24300,Note_off_c,0,59,0
1,24300,Note_off_c,0,60,0
1,24300,Note_off_c,0,61,0
1,24300,Note_on_c,0,66,65
1,24360,Note_off_c,0,57,0
1,24360,Note_off_c,0,58,0
1,24360,Note_on_c,0,59,65
1,24360,Note_on_c,0,60,65
1,24360,Note_on_c,0,62,65
1,24360,Note_off_c,0,63,0
1,24360,Note_off_c,0,66,0
1,24360,Note_on_c,0,67,65
1,24420,Note_off_c,0,56,0
1,24420,Note_on_c,0,58,65
1,24420,Note_off_c,0,59,0
1,24420,Note_off_c,0,62,0
1,24420,Note_on_c,0,65,65
1,24420,Note_off_c,0,67,0
1,24480,Note_on_c,0,56,65
1,24480,Note_off_c,0,58,0
1,24480,Note_on_c,0,59,65
1,24480,Note_off_c,0,60,0
1,24480,Note_on_c,0,62,65
1,24480,Note_on_c,0,63,65
1,24480,Note_on_c,0,67,65
1,24540,Note_off_c,0,56,0
1,24540,Note_on_c,0,60,65
1,24540,Note_on_c,0,61,65
1,24540,Note_off_c,0,62,0
1,24540,Note_off_c,0,65,0
1,24540,Note_on_c,0,66,65
1,24540,Note_off_c,0,67,0
1,24600,Note_on_c,0,58,65
1,24600,Note_off_c,0,60,0
1,24600,Note_on_c,0,62,65
1,24600,Note_off_c,0,63,0
1,24600,Note_on_c,0,65,65
1,24660,Note_on_c,0,56,65
1,24660,Note_on_c,0,57,65
1,24660,Note_off_c,0,58,0
1,24660,Note_off_c,0,59,0
1,24660,Note_on_c,0,63,65
1,24660,Note_off_c,0,65,0
1,24660,Note_off_c,0,66,0
1,24660,Note_on_c,0,67,65
1,24720,Note_off_c,0,56,0
1,24720,Note_off_c,0,57,0
1,24720,Note_off_c,0,61,0
1,24720,Note_on_c,0,65,65
1,24720,Note_on_c,0,66,65
1,24780,Note_on_c,0,56,65
1,24780,Note_on_c,0,58,65
1,24780,Note_on_c,0,60,65
1,24780,Note_off_c,0,62,0
1,24780,Note_off_c,0,64,0
1,24840,Note_on_c,0,57,65
1,24840,Note_off_c,0,58,0
1,24840,Note_on_c,0,59,65
1,24840,Note_off_c,0,60,0
1,24840,Note_on_c,0,61,65
1,24840,Note_on_c,0,62,65
1,24840,Note_off_c,0,63,0
1,24840,Note_on_c,0,64,65
1,24840,Note_off_c,0,67,0
1,24900,Note_on_c,0,58,65
1,24900,Note_off_c,0,59,0
1,24900,Note_off_c,0,61,0
1,24900,Note_on_c,0,63,65
1,24900,Note_off_c,0,65,0
1,24900,Note_off_c,0,66,0
1,24900,Note_on_c,0,67,65
1,24960,Note_off_c,0,56,0
1,24960,Note_off_c,0,57,0
1,24960,Note_off_c,0,62,0
1,24960,Note_off_c,0,63,0
1,24960,Note_on_c,0,65,65
1,24960,Note_on_c,0,66,65
1,24960,Note_off_c,0,67,0
1,25020,Note_on_c,0,60,65
1,25020,Note_on_c,0,61,65
1,25020,Note_on_c,0,62,65
1,25020,Note_off_c,0,64,0
1,25020,Note_off_c,0,65,0
1,25020,Note_on_c,0,67,65
1,25080,Note_on_c,0,57,65
1,25080,Note_off_c,0,58,0
1,25080,Note_on_c,0,59,65
1,25080,Note_off_c,0,61,0
1,25080,Note_on_c,0,63,65
1,25080,Note_on_c,0,64,65
1,25080,Note_off_c,0,66,0
1,25080,Note_off_c,0,67,0
1,25140,Note_on_c,0,56,65
1,25140,Note_off_c,0,59,0
1,25140,Note_off_c,0,60,0
1,25140,Note_on_c,0,61,65
1,25140,Note_off_c,0,63,0
1,25140,Note_on_c,0,66,65
1,25140,Note_on_c,0,67,65
1,25200,Note_off_c,0,61,0
1,25200,Note_off_c,0,62,0
1,25200,Note_on_c,0,63,65
1,25200,Note_off_c,0,64,0
1,25260,Note_off_c,0,56,0
1,25260,Note_on_c,0,58,65
1,25260,Note_on_c,0,60,65
1,25260,Note_off_c,0,63,0
1,25260,Note_on_c,0,65,65
1,25260,Note_off_c,0,66,0
1,25320,Note_off_c,0,60,0
1,25320,Note_on_c,0,62,65
1,25320,Note_on_c,0,63,65
1,25320,Note_off_c,0,65,0
1,25320,Note_on_c,0,66,65
1,25320,Note_off_c,0,67,0
1,25380,Note_off_c,0,57,0
1,25380,Note_on_c,0,60,65
1,25380,Note_on_c,0,61,65
1,25380,Note_off_c,0,63,0
1,25380,Note_off_c,0,66,0
1,25440,Note_on_c,0,56,65
1,25440,Note_off_c,0,58,0
1,25440,Note_on_c,0,59,65
1,25440,Note_off_c,0,60,0
1,25440,Note_on_c,0,64,65
1,25440,Note_on_c,0,65,65
1,25440,Note_on_c,0,67,65
1,25500,Note_off_c,0,56,0
1,25500,Note_on_c,0,57,65
1,25500,Note_on_c,0,58,65
1,25500,Note_on_c,0,60,65
1,25500,Note_off_c,0,62,0
1,25500,Note_on_c,0,63,65
1,25500,Note_off_c,0,65,0
1,25500,Note_off_c,0,67,0
1,25560,Note_off_c,0,57,0
1,25560,Note_off_c,0,63,0
1,25560,Note_off_c,0,64,0
1,25560,Note_on_c,0,65,65
1,25560,Note_on_c,0,66,65
1,25560,Note_on_c,0,67,65
1,25620,Note_on_c,0,56,65
1,25620,Note_off_c,0,58,0
1,25620,Note_on_c,0,62,65
1,25620,Note_on_c,0,64,65
1,25620,Note_off_c,0,66,0
1,25680,Note_on_c,0,57,65
1,25680,Note_on_c,0,58,65
1,25680,Note_on_c,0,63,65
1,25680,Note_off_c,0,65,0
1,25680,Note_on_c,0,66,65
1,25740,Note_off_c,0,56,0
1,25740,Note_off_c,0,57,0
1,25740,Note_off_c,0,59,0
1,25740,Note_off_c,0,62,0
1,25740,Note_off_c,0,64,0
1,25740,Note_off_c,0,66,0
1,25740,Note_off_c,0,67,0
1,25800,Note_on_c,0,57,65
1,25800,Note_off_c,0,58,0
1,25800,Note_off_c,0,61,0
1,25800,Note_off_c,0,63,0
1,25800,Note_on_c,0,64,65
1,25800,Note_on_c,0,65,65
1,25800,Note_on_c,0,66,65
1,25800,Note_on_c,0,67,65
1,25860,Note_on_c,0,56,65
1,25860,Note_off_c,0,60,0
1,25860,Note_on_c,0,61,65
1,25860,Note_on_c,0,63,65
1,25860,Note_off_c,0,66,0
1,25860,Note_off_c,0,67,0
1,25920,Note_off_c,0,57,0
1,25920,Note_on_c,0,58,65
1,25920,Note_on_c,0,59,65
1,25920,Note_on_c,0,66,65
1,25920,Note_on_c,0,67,65
1,25980,Note_off_c,0,56,0
1,25980,Note_off_c,0,58,0
1,25980,Note_off_c,0,59,0
1,25980,Note_on_c,0,62,65
1,25980,Note_off_c,0,63,0
1,25980,Note_off_c,0,66,0
1,25980,Note_off_c,0,67,0
1,26040,Note_on_c,0,56,65
1,26040,Note_on_c,0,57,65
1,26040,Note_on_c,0,58,65
1,26040,Note_on_c,0,60,65
1,26040,Note_off_c,0,61,0
1,26040,Note_on_c,0,63,65
1,26040,Note_off_c,0,65,0
1,26040,Note_on_c,0,67,65
1,26100,Note_off_c,0,58,0
1,26100,Note_on_c,0,59,65
1,26100,Note_on_c,0,61,65
1,26100,Note_off_c,0,63,0
1,26100,Note_on_c,0,65,65
1,26100,Note_off_c,0,67,0
1,26160,Note_off_c,0,56,0
1,26160,Note_off_c,0,59,0
1,26160,Note_off_c,0,61,0
1,26160,Note_off_c,0,62,0
1,26160,Note_off_c,0,65,0
1,26160,Note_on_c,0,66,65
1,26160,Note_on_c,0,67,65
1,26220,Note_on_c,0,56,65
1,26220,Note_on_c,0,61,65
1,26220,Note_on_c,0,62,65
1,26220,Note_on_c,0,63,65
1,26220,Note_off_c,0,64,0
1,26220,Note_on_c,0,65,65
1,26220,Note_off_c,0,66,0
1,26280,Note_off_c,0,56,0
1,26280,Note_on_c,0,58,65
1,26280,Note_on_c,0,59,65
1,26280,Note_off_c,0,60,0
1,26280,Note_off_c,0,61,0
1,26280,Note_on_c,0,64,65
1,26280,Note_off_c,0,67,0
1,26340,Note_on_c,0,56,65
1,26340,Note_off_c,0,58,0
1,26340,Note_off_c,0,59,0
1,26340,Note_on_c,0,60,65
1,26340,Note_off_c,0,63,0
1,26340,Note_off_c,0,65,0
1,26340,Note_on_c,0,67,65
1,26400,Note_off_c,0,56,0
1,26400,Note_on_c,0,58,65
1,26400,Note_on_c,0,59,65
1,26400,Note_off_c,0,60,0
1,26400,Note_on_c,0,61,65
1,26400,Note_on_c,0,63,65
1,26460,Note_off_c,0,57,0
1,26460,Note_on_c,0,60,65
1,26460,Note_off_c,0,63,0
1,26460,Note_on_c,0,66,65
1,26460,Note_off_c,0,67,0
1,26520,Note_off_c,0,58,0
1,26520,Note_off_c,0,59,0
1,26520,Note_off_c,0,61,0
1,26520,Note_on_c,0,65,65
1,26520,Note_on_c,0,67,65
1,26580,Note_on_c,0,56,65
1,26580,Note_on_c,0,57,65
1,26580,Note_on_c,0,59,65
1,26580,Note_off_c,0,60,0
1,26580,Note_off_c,0,64,0
1,26580,Note_off_c,0,65,0
1,26580,Note_off_c,0,66,0
1,26640,Note_off_c,0,56,0
1,26640,Note_on_c,0,63,65
1,26640,Note_on_c,0,64,65
1,26700,Note_off_c,0,57,0
1,26700,Note_on_c,0,60,65
1,26700,Note_off_c,0,62,0
1,26700,Note_off_c,0,63,0
1,26700,Note_on_c,0,65,65
1,26700,Note_off_c,0,67,0
1,26760,Note_on_c,0,56,65
1,26760,Note_on_c,0,61,65
1,26760,Note_on_c,0,63,65
1,26760,Note_off_c,0,64,0
1,26760,Note_off_c,0,65,0
1,26760,Note_on_c,0,66,65
1,26820,Note_on_c,0,57,65
1,26820,Note_off_c,0,59,0
1,26820,Note_off_c,0,61,0
1,26820,Note_on_c,0,64,65
1,26820,Note_on_c,0,65,65
1,26820,Note_off_c,0,66,0
1,26820,Note_on_c,0,67,65
1,26880,Note_off_c,0,56,0
1,26880,Note_off_c,0,57,0
1,26880,Note_on_c,0,59,65
1,26880,Note_on_c,0,61,65
1,26880,Note_off_c,0,63,0
1,26880,Note_off_c,0,64,0
1,26880,Note_off_c,0,65,0
1,26880,Note_on_c,0,66,65
1,26940,Note_on_c,0,56,65
1,26940,Note_on_c,0,57,65
1,26940,Note_off_c,0,59,0
1,26940,Note_off_c,0,60,0
1,26940,Note_on_c,0,63,65
1,26940,Note_on_c,0,65,65
1,27000,Note_off_c,0,56,0
1,27000,Note_off_c,0,57,0
1,27000,Note_on_c,0,60,65
1,27000,Note_on_c,0,62,65
1,27000,Note_off_c,0,63,0
1,27000,Note_off_c,0,66,0
1,27060,Note_on_c,0,56,65
1,27060,Note_on_c,0,57,65
1,27060,Note_on_c,0,58,65
1,27060,Note_off_c,0,60,0
1,27060,Note_off_c,0,61,0
1,27060,Note_on_c,0,64,65
1,27060,Note_off_c,0,65,0
1,27060,Note_off_c,0,67,0
1,27120,Note_off_c,0,57,0
1,27120,Note_off_c,0,58,0
1,27120,Note_on_c,0,59,65
1,27120,Note_on_c,0,61,65
1,27120,Note_off_c,0,62,0
1,27120,Note_off_c,0,64,0
1,27120,Note_on_c,0,66,65
1,27180,Note_on_c,0,57,65
1,27180,Note_on_c,0,58,65
1,27180,Note_off_c,0,61,0
1,27180,Note_on_c,0,65,65
1,27180,Note_on_c,0,67,65
1,27240,Note_off_c,0,57,0
1,27240,Note_off_c,0,58,0
1,27240,Note_off_c,0,59,0
1,27240,Note_on_c,0,63,65
1,27240,Note_on_c,0,64,65
1,27240,Note_off_c,0,65,0
1,27240,Note_off_c,0,66,0
1,27240,Note_off_c,0,67,0
1,27300,Note_off_c,0,56,0
1,27300,Note_on_c,0,57,65
1,27300,Note_on_c,0,58,65
1,27300,Note_on_c,0,61,65
1,27300,Note_on_c,0,62,65
1,27300,Note_off_c,0,63,0
1,27300,Note_on_c,0,67,65
1,27360,Note_on_c,0,56,65
1,27360,Note_off_c,0,57,0
1,27360,Note_on_c,0,60,65
1,27360,Note_off_c,0,61,0
1,27360,Note_off_c,0,62,0
1,27360,Note_on_c,0,66,65
1,27420,Note_off_c,0,58,0
1,27420,Note_on_c,0,59,65
1,27420,Note_on_c,0,61,65
1,27420,Note_on_c,0,62,65
1,27420,Note_on_c,0,63,65
1,27420,Note_off_c,0,64,0
1,27420,Note_on_c,0,65,65
1,27420,Note_off_c,0,66,0
1,27420,Note_off_c,0,67,0
1,27480,Note_on_c,0,57,65
1,27480,Note_off_c,0,62,0
1,27480,Note_off_c,0,63,0
1,27480,Note_on_c,0,66,65
1,27540,Note_off_c,0,56,0
1,27540,Note_off_c,0,57,0
1,27540,Note_off_c,0,61,0
1,27540,Note_on_c,0,63,65
1,27540,Note_on_c,0,64,65
1,27540,Note_off_c,0,65,0
1,27540,Note_off_c,0,66,0
1,27540,Note_on_c,0,67,65
1,27600,Note_on_c,0,56,65
1,27600,Note_on_c,0,57,65
1,27600,Note_on_c,0,58,65
1,27600,Note_off_c,0,60,0
1,27600,Note_on_c,0,61,65
1,27600,Note_on_c,0,62,65
1,27600,Note_off_c,0,64,0
1,27600,Note_on_c,0,65,65
1,27600,Note_on_c,0,66,65
1,27660,Note_off_c,0,56,0
1,27660,Note_off_c,0,59,0
1,27660,Note_on_c,0,60,65
1,27660,Note_off_c,0,61,0
1,27660,Note_off_c,0,63,0
1,27660,Note_on_c,0,64,65
1,27660,Note_off_c,0,65,0
1,27660,Note_off_c,0,67,0
1,27720,Note_off_c,0,58,0
1,27720,Note_on_c,0,59,65
1,27720,Note_off_c,0,60,0
1,27720,Note_on_c,0,61,65
1,27720,Note_on_c,0,63,65
1,27720,Note_off_c,0,64,0
1,27780,Note_on_c,0,56,65
1,27780,Note_off_c,0,57,0
1,27780,Note_off_c,0,59,0
1,27780,Note_on_c,0,60,65
1,27780,Note_off_c,0,61,0
1,27780,Note_off_c,0,63,0
1,27780,Note_on_c,0,67,65
1,27840,Note_off_c,0,56,0
1,27840,Note_on_c,0,58,65
1,27840,Note_off_c,0,60,0
1,27840,Note_on_c,0,61,65
1,27840,Note_on_c,0,63,65
1,27840,Note_on_c,0,65,65
1,27900,Note_on_c,0,56,65
1,27900,Note_on_c,0,57,65
1,27900,Note_off_c,0,58,0
1,27900,Note_on_c,0,59,65
1,27900,Note_off_c,0,62,0
1,27900,Note_off_c,0,63,0
1,27900,Note_on_c,0,64,65
1,27900,Note_off_c,0,66,0
1,27900,Note_off_c,0,67,0
1,27960,Note_on_c,0,58,65
1,27960,Note_off_c,0,61,0
1,27960,Note_on_c,0,62,65
1,27960,Note_on_c,0,63,65
1,27960,Note_off_c,0,64,0
1,27960,Note_off_c,0,65,0
1,27960,Note_on_c,0,67,65
1,28020,Note_off_c,0,57,0
1,28020,Note_off_c,0,59,0
1,28020,Note_on_c,0,60,65
1,28020,Note_on_c,0,61,65
1,28020,Note_off_c,0,63,0
1,28020,Note_on_c,0,64,65
1,28080,Note_off_c,0,56,0
1,28080,Note_off_c,0,58,0
1,28080,Note_on_c,0,65,65
1,28080,Note_on_c,0,66,65
1,28080,Note_off_c,0,67,0
1,28140,Note_on_c,0,56,65
1,28140,Note_on_c,0,57,65
1,28140,Note_on_c,0,58,65
1,28140,Note_on_c,0,59,65
1,28140,Note_off_c,0,60,0
1,28140,Note_on_c,0,63,65
1,28140,Note_off_c,0,65,0
1,28140,Note_on_c,0,67,65
1,28200,Note_off_c,0,57,0
1,28200,Note_off_c,0,59,0
1,28200,Note_on_c,0,60,65
1,28200,Note_off_c,0,61,0
1,28200,Note_off_c,0,63,0
1,28200,Note_off_c,0,64,0
1,28200,Note_off_c,0,67,0
1,28260,Note_off_c,0,56,0
1,28260,Note_off_c,0,58,0
1,28260,Note_on_c,0,59,65
1,28260,Note_off_c,0,60,0
1,28260,Note_off_c,0,62,0
1,28260,Note_off_c,0,66,0
1,28320,Note_on_c,0,56,65
1,28320,Note_on_c,0,58,65
1,28320,Note_off_c,0,59,0
1,28320,Note_on_c,0,60,65
1,28320,Note_on_c,0,61,65
1,28320,Note_on_c,0,66,65
1,28320,Note_on_c,0,67,65
1,28380,Note_off_c,0,56,0
1,28380,Note_on_c,0,59,65
1,28380,Note_off_c,0,60,0
1,28380,Note_off_c,0,61,0
1,28380,Note_on_c,0,62,65
1,28380,Note_on_c,0,64,65
1,28440,Note_on_c,0,56,65
1,28440,Note_on_c,0,57,65
1,28440,Note_off_c,0,58,0
1,28440,Note_off_c,0,59,0
1,28440,Note_on_c,0,61,65
1,28440,Note_off_c,0,62,0
1,28440,Note_on_c,0,65,65
1,28500,Note_off_c,0,56,0
1,28500,Note_off_c,0,57,0
1,28500,Note_on_c,0,59,65
1,28500,Note_on_c,0,63,65
1,28500,Note_off_c,0,64,0
1,28500,Note_off_c,0,65,0
1,28560,Note_on_c,0,56,65
1,28560,Note_on_c,0,57,65
1,28560,Note_on_c,0,58,65
1,28560,Note_off_c,0,61,0
1,28560,Note_on_c,0,64,65
1,28560,Note_on_c,0,65,65
1,28560,Note_off_c,0,66,0
1,28560,Note_off_c,0,67,0
1,28620,Note_off_c,0,56,0
1,28620,Note_off_c,0,58,0
1,28620,Note_on_c,0,61,65
1,28620,Note_on_c,0,62,65
1,28620,Note_off_c,0,64,0
1,28680,Note_on_c,0,56,65
1,28680,Note_off_c,0,59,0
1,28680,Note_on_c,0,64,65
1,28680,Note_off_c,0,65,0
1,28740,Note_on_c,0,58,65
1,28740,Note_on_c,0,60,65
1,28740,Note_off_c,0,62,0
1,28740,Note_off_c,0,64,0
1,28740,Note_on_c,0,65,65
1,28740,Note_on_c,0,67,65
1,28800,Note_off_c,0,56,0
1,28800,Note_off_c,0,57,0
1,28800,Note_off_c,0,60,0
1,28800,Note_on_c,0,64,65
1,28800,Note_off_c,0,65,0
1,28860,Note_on_c,0,56,65
1,28860,Note_on_c,0,57,65
1,28860,Note_off_c,0,58,0
1,28860,Note_off_c,0,61,0
1,28860,Note_off_c,0,64,0
1,28860,Note_off_c,0,67,0
1,28920,Note_off_c,0,57,0
1,28920,Note_on_c,0,58,65
1,28920,Note_on_c,0,59,65
1,28920,Note_on_c,0,60,65
1,28920,Note_on_c,0,62,65
1,28920,Note_on_c,0,64,65
1,28920,Note_on_c,0,67,65
1,28980,Note_off_c,0,56,0
1,28980,Note_off_c,0,59,0
1,28980,Note_off_c,0,64,0
1,28980,Note_on_c,0,65,65
1,28980,Note_on_c,0,66,65
1,29040,Note_on_c,0,57,65
1,29040,Note_off_c,0,58,0
1,29040,Note_off_c,0,60,0
1,29040,Note_on_c,0,61,65
1,29040,Note_off_c,0,63,0
1,29100,Note_on_c,0,56,65
1,29100,Note_off_c,0,57,0
1,29100,Note_off_c,0,61,0
1,29100,Note_on_c,0,63,65
1,29100,Note_on_c,0,64,65
1,29100,Note_off_c,0,65,0
1,29160,Note_on_c,0,59,65
1,29160,Note_off_c,0,62,0
1,29160,Note_off_c,0,63,0
1,29160,Note_off_c,0,64,0
1,29160,Note_off_c,0,66,0
1,29220,Note_on_c,0,57,65
1,29220,Note_off_c,0,59,0
1,29220,Note_on_c,0,60,65
1,29220,Note_on_c,0,61,65
1,29220,Note_on_c,0,62,65
1,29220,Note_on_c,0,63,65
1,29220,Note_on_c,0,65,65
1,29220,Note_on_c,0,66,65
1,29220,Note_off_c,0,67,0
1,29280,Note_off_c,0,57,0
1,29280,Note_on_c,0,58,65
1,29280,Note_off_c,0,60,0
1,29280,Note_off_c,0,61,0
1,29280,Note_off_c,0,62,0
1,29280,Note_off_c,0,63,0
1,29280,Note_on_c,0,64,65
1,29280,Note_off_c,0,66,0
1,29340,Note_off_c,0,56,0
1,29340,Note_on_c,0,57,65
1,29340,Note_on_c,0,59,65
1,29340,Note_on_c,0,60,65
1,29340,Note_on_c,0,61,65
1,29340,Note_on_c,0,62,65
1,29340,Note_on_c,0,63,65
1,29340,Note_off_c,0,64,0
1,29340,Note_on_c,0,66,65
1,29400,Note_off_c,0,57,0
1,29400,Note_off_c,0,60,0
1,29400,Note_off_c,0,62,0
1,29400,Note_on_c,0,64,65
1,29400,Note_off_c,0,65,0
1,29400,Note_off_c,0,66,0
1,29400,Note_on_c,0,67,65
1,29460,Note_off_c,0,58,0
1,29460,Note_on_c,0,60,65
1,29520,Note_on_c,0,56,65
1,29520,Note_on_c,0,57,65
1,29520,Note_on_c,0,58,65
1,29520,Note_off_c,0,59,0
1,29520,Note_off_c,0,63,0
1,29520,Note_on_c,0,65,65
1,29520,Note_on_c,0,66,65
1,29580,Note_off_c,0,56,0
1,29580,Note_off_c,0,57,0
1,29580,Note_off_c,0,60,0
1,29580,Note_off_c,0,65,0
1,29580,Note_off_c,0,66,0
1,29640,Note_on_c,0,56,65
1,29640,Note_off_c,0,58,0
1,29640,Note_on_c,0,59,65
1,29640,Note_on_c,0,63,65
1,29640,Note_off_c,0,64,0
1,29640,Note_off_c,0,67,0
1,29700,Note_off_c,0,56,0
1,29700,Note_on_c,0,57,65
1,29700,Note_on_c,0,58,65
1,29700,Note_off_c,0,59,0
1,29700,Note_off_c,0,63,0
1,29700,Note_on_c,0,64,65
1,29760,Note_on_c,0,56,65
1,29760,Note_off_c,0,57,0
1,29760,Note_off_c,0,58,0
1,29760,Note_on_c,0,59,65
1,29760,Note_on_c,0,60,65
1,29760,Note_off_c,0,61,0
1,29760,Note_on_c,0,63,65
1,29760,Note_off_c,0,64,0
1,29760,Note_on_c,0,65,65
1,29760,Note_on_c,0,66,65
1,29760,Note_on_c,0,67,65
1,29820,Note_on_c,0,58,65
1,29820,Note_off_c,0,59,0
1,29820,Note_off_c,0,60,0
1,29820,Note_off_c,0,63,0
1,29820,Note_off_c,0,66,0
1,29820,Note_off_c,0,67,0
1,29880,Note_off_c,0,58,0
1,29880,Note_on_c,0,61,65
1,29880,Note_on_c,0,62,65
1,29880,Note_on_c,0,63,65
1,29940,Note_on_c,0,58,65
1,29940,Note_on_c,0,60,65
1,29940,Note_off_c,0,62,0
1,29940,Note_off_c,0,65,0
1,29940,Note_on_c,0,67,65
1,30000,Note_off_c,0,56,0
1,30000,Note_on_c,0,57,65
1,30000,Note_on_c,0,59,65
1,30000,Note_on_c,0,62,65
1,30000,Note_off_c,0,67,0
1,30060,Note_off_c,0,58,0
1,30060,Note_off_c,0,61,0
1,30060,Note_on_c,0,64,65
1,30060,Note_on_c,0,65,65
1,30060,Note_on_c,0,67,65
1,30120,Note_on_c,0,56,65
1,30120,Note_off_c,0,57,0
1,30120,Note_off_c,0,59,0
1,30120,Note_off_c,0,60,0
1,30120,Note_on_c,0,61,65
1,30120,Note_off_c,0,65,0
1,30180,Note_on_c,0,58,65
1,30180,Note_on_c,0,59,65
1,30180,Note_on_c,0,60,65
1,30180,Note_off_c,0,61,0
1,30180,Note_off_c,0,62,0
1,30180,Note_off_c,0,64,0
1,30180,Note_on_c,0,65,65
1,30240,Note_off_c,0,56,0
1,30240,Note_off_c,0,58,0
1,30240,Note_on_c,0,61,65
1,30240,Note_on_c,0,62,65
1,30240,Note_off_c,0,63,0
1,30240,Note_off_c,0,65,0
1,30240,Note_off_c,0,67,0
1,30300,Note_on_c,0,56,65
1,30300,Note_on_c,0,57,65
1,30300,Note_on_c,0,58,65
1,30300,Note_off_c,0,60,0
1,30300,Note_off_c,0,61,0
1,30300,Note_off_c,0,62,0
1,30300,Note_on_c,0,65,65
1,30300,Note_on_c,0,66,65
1,30300,Note_on_c,0,67,65
1,30360,Note_off_c,0,56,0
1,30360,Note_off_c,0,58,0
1,30360,Note_on_c,0,60,65
1,30360,Note_on_c,0,63,65
1,30360,Note_on_c,0,64,65
1,30360,Note_off_c,0,66,0
1,30360,Note_off_c,0,67,0
1,30420,Note_on_c,0,58,65
1,30420,Note_on_c,0,62,65
1,30420,Note_off_c,0,64,0
1,30420,Note_on_c,0,67,65
1,30480,Note_off_c,0,57,0
1,30480,Note_off_c,0,58,0
1,30480,Note_on_c,0,61,65
1,30480,Note_off_c,0,63,0
1,30480,Note_off_c,0,67,0
1,30540,Note_on_c,0,57,65
1,30540,Note_on_c,0,58,65
1,30540,Note_off_c,0,60,0
1,30540,Note_off_c,0,61,0
1,30540,Note_on_c,0,64,65
1,30540,Note_on_c,0,67,65
1,30600,Note_off_c,0,58,0
1,30600,Note_off_c,0,62,0
1,30600,Note_off_c,0,64,0
1,30600,Note_on_c,0,66,65
1,30660,Note_on_c,0,58,65
1,30660,Note_off_c,0,59,0
1,30660,Note_on_c,0,63,65
1,30660,Note_off_c,0,65,0
1,30720,Note_off_c,0,57,0
1,30720,Note_off_c,0,63,0
1,30720,Note_off_c,0,67,0
1,30780,Note_on_c,0,59,65
1,30780,Note_on_c,0,60,65
1,30780,Note_on_c,0,62,65
1,30840,Note_on_c,0,56,65
1,30840,Note_on_c,0,57,65
1,30840,Note_off_c,0,58,0
1,30840,Note_off_c,0,59,0
1,30840,Note_on_c,0,65,65
1,30840,Note_on_c,0,67,65
1,30900,Note_off_c,0,57,0
1,30900,Note_on_c,0,59,65
1,30900,Note_on_c,0,61,65
1,30900,Note_on_c,0,63,65
1,30900,Note_off_c,0,65,0
1,30900,Note_off_c,0,66,0
1,30960,Note_off_c,0,56,0
1,30960,Note_off_c,0,59,0
1,30960,Note_off_c,0,62,0
1,30960,Note_off_c,0,63,0
1,30960,Note_on_c,0,64,65
1,30960,Note_on_c,0,66,65
1,31020,Note_on_c,0,56,65
1,31020,Note_off_c,0,64,0
1,31020,Note_on_c,0,65,65
1,31020,Note_off_c,0,66,0
1,31080,Note_on_c,0,57,65
1,31080,Note_off_c,0,60,0
1,31080,Note_on_c,0,64,65
1,31080,Note_off_c,0,67,0
1,31140,Note_off_c,0,56,0
1,31140,Note_on_c,0,58,65
1,31140,Note_on_c,0,59,65
1,31140,Note_off_c,0,61,0
1,31140,Note_on_c,0,66,65
1,31140,Note_on_c,0,67,65
1,31200,Note_on_c,0,56,65
1,31200,Note_off_c,0,64,0
1,31200,Note_off_c,0,67,0
1,31260,Note_off_c,0,58,0
1,31260,Note_on_c,0,61,65
1,31260,Note_on_c,0,62,65
1,31260,Note_on_c,0,64,65
1,31260,Note_off_c,0,66,0
1,31320,Note_on_c,0,58,65
1,31320,Note_off_c,0,59,0
1,31320,Note_off_c,0,65,0
1,31380,Note_off_c,0,57,0
1,31380,Note_off_c,0,58,0
1,31380,Note_off_c,0,61,0
1,31380,Note_on_c,0,63,65
1,31380,Note_on_c,0,65,65
1,31440,Note_on_c,0,57,65
1,31440,Note_on_c,0,59,65
1,31440,Note_on_c,0,61,65
1,31440,Note_off_c,0,62,0
1,31440,Note_off_c,0,63,0
1,31440,Note_on_c,0,66,65
1,31500,Note_on_c,0,58,65
1,31500,Note_off_c,0,59,0
1,31500,Note_on_c,0,62,65
1,31500,Note_off_c,0,64,0
1,31500,Note_off_c,0,66,0
1,31560,Note_off_c,0,58,0
1,31560,Note_off_c,0,61,0
1,31560,Note_off_c,0,62,0
1,31560,Note_on_c,0,63,65
1,31560,Note_on_c,0,64,65
1,31560,Note_off_c,0,65,0
1,31560,Note_on_c,0,66,65
1,31620,Note_off_c,0,57,0
1,31620,Note_on_c,0,58,65
1,31620,Note_on_c,0,60,65
1,31620,Note_on_c,0,61,65
1,31620,Note_off_c,0,63,0
1,31620,Note_off_c,0,64,0
1,31620,Note_on_c,0,67,65
1,31680,Note_off_c,0,56,0
1,31680,Note_on_c,0,57,65
1,31680,Note_off_c,0,60,0
1,31680,Note_off_c,0,61,0
1,31680,Note_on_c,0,63,65
1,31680,Note_off_c,0,67,0
1,31740,Note_on_c,0,56,65
1,31740,Note_off_c,0,57,0
1,31740,Note_off_c,0,58,0
1,31740,Note_on_c,0,61,65
1,31740,Note_on_c,0,64,65
1,31740,Note_on_c,0,67,65
1,31800,Note_on_c,0,59,65
1,31800,Note_on_c,0,60,65
1,31800,Note_off_c,0,64,0
1,31800,Note_on_c,0,65,65
1,31860,Note_off_c,0,59,0
1,31860,Note_off_c,0,61,0
1,31860,Note_off_c,0,66,0
1,31860,Note_off_c,0,67,0
1,31920,Note_on_c,0,58,65
1,31920,Note_on_c,0,61,65
1,31920,Note_off_c,0,63,0
1,31920,Note_on_c,0,64,65
1,31920,Note_off_c,0,65,0
1,31980,Note_off_c,0,56,0
1,31980,Note_on_c,0,57,65
1,31980,Note_off_c,0,58,0
1,31980,Note_on_c,0,59,65
1,31980,Note_off_c,0,60,0
1,31980,Note_on_c,0,62,65
1,31980,Note_off_c,0,64,0
1,31980,Note_on_c,0,65,65
1,31980,Note_on_c,0,67,65
1,32040,Note_on_c,0,56,65
1,32040,Note_off_c,0,57,0
1,32040,Note_on_c,0,58,65
1,32040,Note_on_c,0,63,65
1,32040,Note_on_c,0,64,65
1,32100,Note_off_c,0,56,0
1,32100,Note_off_c,0,59,0
1,32100,Note_on_c,0,60,65
1,32100,Note_off_c,0,62,0
1,32100,Note_off_c,0,64,0
1,32100,Note_off_c,0,67,0
1,32160,Note_on_c,0,57,65
1,32160,Note_off_c,0,58,0
1,32160,Note_off_c,0,60,0
1,32160,Note_off_c,0,61,0
1,32160,Note_on_c,0,62,65
1,32160,Note_off_c,0,65,0
1,32160,Note_on_c,0,66,65
1,32220,Note_off_c,0,57,0
1,32220,Note_on_c,0,58,65
1,32220,Note_on_c,0,59,65
1,32220,Note_on_c,0,60,65
1,32220,Note_off_c,0,63,0
1,32220,Note_on_c,0,65,65
1,32220,Note_off_c,0,66,0
1,32280,Note_on_c,0,56,65
1,32280,Note_on_c,0,57,65
1,32280,Note_off_c,0,59,0
1,32280,Note_off_c,0,60,0
1,32280,Note_off_c,0,62,0
1,32340,Note_off_c,0,56,0
1,32340,Note_off_c,0,57,0
1,32340,Note_off_c,0,58,0
1,32340,Note_on_c,0,60,65
1,32340,Note_on_c,0,63,65
1,32340,Note_off_c,0,65,0
1,32340,Note_on_c,0,67,65
1,32400,Note_on_c,0,56,65
1,32400,Note_on_c,0,59,65
1,32400,Note_on_c,0,61,65
1,32400,Note_off_c,0,63,0
1,32400,Note_on_c,0,64,65
1,32400,Note_on_c,0,65,65
1,32400,Note_on_c,0,66,65
1,32400,Note_off_c,0,67,0
1,32460,Note_on_c,0,57,65
1,32460,Note_on_c,0,58,65
1,32460,Note_off_c,0,60,0
1,32460,Note_on_c,0,62,65
1,32460,Note_off_c,0,64,0
1,32460,Note_off_c,0,65,0
1,32460,Note_off_c,0,66,0
1,32520,Note_off_c,0,56,0
1,32520,Note_off_c,0,59,0
1,32520,Note_on_c,0,60,65
1,32520,Note_on_c,0,63,65
1,32520,Note_on_c,0,65,65
1,32520,Note_on_c,0,66,65
1,32580,Note_off_c,0,58,0
1,32580,Note_on_c,0,59,65
1,32580,Note_off_c,0,60,0
1,32580,Note_off_c,0,61,0
1,32580,Note_off_c,0,62,0
1,32580,Note_off_c,0,65,0
1,32640,Note_on_c,0,58,65
1,32640,Note_on_c,0,60,65
1,32640,Note_on_c,0,62,65
1,32640,Note_on_c,0,64,65
1,32640,Note_off_c,0,66,0
1,32640,Note_on_c,0,67,65
1,32700,Note_off_c,0,57,0
1,32700,Note_off_c,0,59,0
1,32700,Note_on_c,0,61,65
1,32700,Note_off_c,0,62,0
1,32700,Note_on_c,0,65,65
1,32700,Note_off_c,0,67,0
1,32760,Note_off_c,0,60,0
1,32760,Note_on_c,0,67,65
1,32820,Note_off_c,0,58,0
1,32820,Note_on_c,0,59,65
1,32820,Note_on_c,0,62,65
1,32820,Note_off_c,0,64,0
1,32820,Note_off_c,0,65,0
1,32820,Note_on_c,0,66,65
1,32820,Note_off_c,0,67,0
1,32880,Note_on_c,0,56,65
1,32880,Note_off_c,0,59,0
1,32880,Note_on_c,0,60,65
1,32880,Note_off_c,0,61,0
1,32880,Note_off_c,0,62,0
1,32880,Note_on_c,0,64,65
1,32880,Note_off_c,0,66,0
1,32940,Note_off_c,0,56,0
1,32940,Note_on_c,0,66,65
1,33000,Note_on_c,0,56,65
1,33000,Note_on_c,0,58,65
1,33000,Note_on_c,0,59,65
1,33000,Note_on_c,0,62,65
1,33000,Note_off_c,0,63,0
1,33000,Note_on_c,0,65,65
1,33000,Note_on_c,0,67,65
1,33060,Note_off_c,0,56,0
1,33060,Note_on_c,0,57,65
1,33060,Note_off_c,0,60,0
1,33060,Note_on_c,0,63,65
1,33060,Note_off_c,0,65,0
1,33060,Note_off_c,0,66,0
1,33120,Note_on_c,0,60,65
1,33120,Note_on_c,0,61,65
1,33120,Note_off_c,0,63,0
1,33120,Note_on_c,0,65,65
1,33180,Note_on_c,0,56,65
1,33180,Note_off_c,0,60,0
1,33180,Note_off_c,0,61,0
1,33180,Note_off_c,0,64,0
1,33180,Note_off_c,0,65,0
1,33180,Note_on_c,0,66,65
1,33180,Note_off_c,0,67,0
1,33240,Note_off_c,0,56,0
1,33240,Note_on_c,0,60,65
1,33240,Note_on_c,0,61,65
1,33240,Note_off_c,0,66,0
1,33240,Note_on_c,0,67,65
1,33300,Note_off_c,0,57,0
1,33300,Note_off_c,0,62,0
1,33300,Note_on_c,0,63,65
1,33300,Note_on_c,0,65,65
1,33300,Note_on_c,0,66,65
1,33360,Note_on_c,0,56,65
1,33360,Note_off_c,0,60,0
1,33360,Note_off_c,0,63,0
1,33360,Note_on_c,0,64,65
1,33360,Note_off_c,0,65,0
1,33360,Note_off_c,0,66,0
1,33360,Note_off_c,0,67,0
1,33420,Note_on_c,0,57,65
1,33420,Note_off_c,0,59,0
1,33420,Note_off_c,0,61,0
1,33420,Note_off_c,0,64,0
1,33420,Note_on_c,0,67,65
1,33480,Note_off_c,0,57,0
1,33480,Note_on_c,0,59,65
1,33480,Note_on_c,0,60,65
1,33480,Note_on_c,0,62,65
1,33480,Note_on_c,0,63,65
1,33480,Note_on_c,0,66,65
1,33480,Note_off_c,0,67,0
1,33540,Note_off_c,0,56,0
1,33540,Note_on_c,0,57,65
1,33540,Note_off_c,0,59,0
1,33540,Note_off_c,0,60,0
1,33540,Note_off_c,0,62,0
1,33540,Note_off_c,0,63,0
1,33540,Note_on_c,0,65,65
1,33540,Note_off_c,0,66,0
1,33540,Note_on_c,0,67,65
1,33600,Note_on_c,0,56,65
1,33600,Note_off_c,0,57,0
1,33600,Note_on_c,0,59,65
1,33600,Note_on_c,0,61,65
1,33600,Note_on_c,0,62,65
1,33600,Note_on_c,0,63,65
1,33600,Note_off_c,0,65,0
1,33600,Note_on_c,0,66,65
1,33600,Note_off_c,0,67,0
1,33660,Note_on_c,0,57,65
1,33660,Note_off_c,0,58,0
1,33660,Note_off_c,0,59,0
1,33660,Note_on_c,0,60,65
1,33660,Note_off_c,0,61,0
1,33660,Note_on_c,0,64,65
1,33660,Note_on_c,0,65,65
1,33720,Note_off_c,0,62,0
1,33720,Note_off_c,0,64,0
1,33720,Note_off_c,0,65,0
1,33720,Note_off_c,0,66,0
1,33720,Note_on_c,0,67,65
1,33780,Note_off_c,0,56,0
1,33780,Note_on_c,0,59,65
1,33780,Note_off_c,0,60,0
1,33780,Note_on_c,0,62,65
1,33780,Note_on_c,0,64,65
1,33780,Note_on_c,0,65,65
1,33780,Note_off_c,0,67,0
1,33840,Note_on_c,0,56,65
1,33840,Note_on_c,0,58,65
1,33840,Note_on_c,0,61,65
1,33840,Note_off_c,0,62,0
1,33840,Note_off_c,0,63,0
1,33840,Note_off_c,0,64,0
1,33840,Note_off_c,0,65,0
1,33840,Note_on_c,0,66,65
1,33900,Note_off_c,0,56,0
1,33900,Note_off_c,0,58,0
1,33900,Note_off_c,0,59,0
1,33900,Note_on_c,0,62,65
1,33900,Note_on_c,0,63,65
1,33900,Note_on_c,0,64,65
1,33900,Note_on_c,0,65,65
1,33900,Note_on_c,0,67,65
1,33960,Note_off_c,0,57,0
1,33960,Note_on_c,0,59,65
1,33960,Note_on_c,0,60,65
1,33960,Note_off_c,0,63,0
1,33960,Note_off_c,0,67,0
1,34020,Note_on_c,0,56,65
1,34020,Note_on_c,0,57,65
1,34020,Note_off_c,0,59,0
1,34020,Note_off_c,0,60,0
1,34020,Note_on_c,0,63,65
1,34020,Note_off_c,0,64,0
1,34020,Note_off_c,0,65,0
1,34020,Note_off_c,0,66,0
1,34020,Note_on_c,0,67,65
1,34080,Note_off_c,0,56,0
1,34080,Note_on_c,0,59,65
1,34140,Note_on_c,0,56,65
1,34140,Note_off_c,0,57,0
1,34140,Note_off_c,0,61,0
1,34140,Note_off_c,0,62,0
1,34140,Note_on_c,0,66,65
1,34140,Note_off_c,0,67,0
1,34200,Note_on_c,0,58,65
1,34200,Note_on_c,0,61,65
1,34200,Note_off_c,0,63,0
1,34200,Note_on_c,0,67,65
1,34260,Note_off_c,0,56,0
1,34260,Note_on_c,0,60,65
1,34260,Note_off_c,0,61,0
1,34260,Note_on_c,0,62,65
1,34260,Note_off_c,0,66,0
1,34320,Note_on_c,0,56,65
1,34320,Note_off_c,0,58,0
1,34320,Note_off_c,0,62,0
1,34320,Note_on_c,0,63,65
1,34320,Note_on_c,0,66,65
1,34380,Note_off_c,0,56,0
1,34380,Note_on_c,0,57,65
1,34380,Note_on_c,0,58,65
1,34380,Note_off_c,0,59,0
1,34380,Note_on_c,0,64,65
1,34380,Note_off_c,0,66,0
1,34380,Note_off_c,0,67,0
1,34440,Note_on_c,0,56,65
1,34440,Note_on_c,0,59,65
1,34440,Note_off_c,0,60,0
1,34440,Note_on_c,0,61,65
1,34440,Note_off_c,0,63,0
1,34440,Note_off_c,0,64,0
1,34440,Note_on_c,0,65,65
1,34440,Note_on_c,0,67,65
1,34500,Note_off_c,0,58,0
1,34500,Note_off_c,0,59,0
1,34500,Note_on_c,0,60,65
1,34500,Note_on_c,0,62,65
1,34500,Note_on_c,0,64,65
1,34500,Note_off_c,0,65,0
1,34500,Note_on_c,0,66,65
1,34500,Note_off_c,0,67,0
1,34560,Note_off_c,0,56,0
1,34560,Note_off_c,0,57,0
1,34560,Note_on_c,0,58,65
1,34560,Note_on_c,0,59,65
1,34560,Note_off_c,0,61,0
1,34560,Note_on_c,0,63,65
1,34560,Note_off_c,0,64,0
1,34560,Note_on_c,0,65,65
1,34560,Note_off_c,0,66,0
1,34620,Note_on_c,0,56,65
1,34620,Note_off_c,0,58,0
1,34620,Note_off_c,0,59,0
1,34620,Note_off_c,0,60,0
1,34620,Note_off_c,0,65,0
1,34680,Note_on_c,0,60,65
1,34680,Note_on_c,0,61,65
1,34680,Note_on_c,0,64,65
1,34740,Note_off_c,0,56,0
1,34740,Note_on_c,0,57,65
1,34740,Note_off_c,0,62,0
1,34740,Note_off_c,0,63,0
1,34740,Note_on_c,0,67,65
1,34800,Note_on_c,0,56,65
1,34800,Note_off_c,0,60,0
1,34800,Note_on_c,0,63,65
1,34800,Note_on_c,0,66,65
1,34800,Note_off_c,0,67,0
1,34860,Note_on_c,0,58,65
1,34860,Note_on_c,0,59,65
1,34860,Note_off_c,0,61,0
1,34860,Note_off_c,0,64,0
1,34860,Note_off_c,0,66,0
1,34860,Note_on_c,0,67,65
1,34920,Note_off_c,0,56,0
1,34920,Note_off_c,0,58,0
1,34920,Note_on_c,0,60,65
1,34920,Note_on_c,0,62,65
1,34920,Note_on_c,0,66,65
1,34920,Note_off_c,0,67,0
1,34980,Note_on_c,0,56,65
1,34980,Note_off_c,0,57,0
1,34980,Note_on_c,0,58,65
1,34980,Note_off_c,0,59,0
1,34980,Note_off_c,0,60,0
1,34980,Note_on_c,0,61,65
1,34980,Note_off_c,0,62,0
1,34980,Note_off_c,0,63,0
1,34980,Note_on_c,0,64,65
1,34980,Note_on_c,0,65,65
1,34980,Note_off_c,0,66,0
1,34980,Note_on_c,0,67,65
1,35040,Note_on_c,0,57,65
1,35040,Note_off_c,0,58,0
1,35040,Note_off_c,0,61,0
1,35040,Note_on_c,0,62,65
1,35040,Note_off_c,0,64,0
1,35040,Note_on_c,0,66,65
1,35100,Note_off_c,0,56,0
1,35100,Note_on_c,0,58,65
1,35100,Note_on_c,0,60,65
1,35100,Note_on_c,0,61,65
1,35100,Note_off_c,0,62,0
1,35100,Note_on_c,0,64,65
1,35100,Note_off_c,0,65,0
1,35100,Note_off_c,0,66,0
1,35100,Note_off_c,0,67,0
1,35160,Note_off_c,0,57,0
1,35160,Note_off_c,0,58,0
1,35160,Note_on_c,0,59,65
1,35160,Note_off_c,0,61,0
1,35160,Note_on_c,0,62,65
1,35160,Note_on_c,0,63,65
1,35160,Note_off_c,0,64,0
1,35160,Note_on_c,0,66,65
1,35220,Note_on_c,0,58,65
1,35220,Note_off_c,0,59,0
1,35220,Note_off_c,0,60,0
1,35220,Note_on_c,0,61,65
1,35220,Note_off_c,0,62,0
1,35220,Note_off_c,0,63,0
1,35220,Note_on_c,0,64,65
1,35220,Note_on_c,0,65,65
1,35220,Note_off_c,0,66,0
1,35220,Note_on_c,0,67,65
1,35280,Note_on_c,0,60,65
1,35280,Note_on_c,0,62,65
1,35280,Note_off_c,0,65,0
1,35340,Note_on_c,0,57,65
1,35340,Note_on_c,0,59,65
1,35340,Note_on_c,0,63,65
1,35340,Note_on_c,0,66,65
1,35340,Note_off_c,0,67,0
1,35400,Note_on_c,0,56,65
1,35400,Note_off_c,0,59,0
1,35400,Note_off_c,0,60,0
1,35400,Note_off_c,0,61,0
1,35400,Note_off_c,0,62,0
1,35400,Note_on_c,0,65,65
1,35400,Note_off_c,0,66,0
1,35460,Note_off_c,0,56,0
1,35460,Note_off_c,0,57,0
1,35460,Note_off_c,0,58,0
1,35460,Note_on_c,0,59,65
1,35460,Note_on_c,0,60,65
1,35460,Note_on_c,0,61,65
1,35460,Note_on_c,0,62,65
1,35520,Note_off_c,0,60,0
1,35520,Note_off_c,0,61,0
1,35580,Note_on_c,0,56,65
1,35580,Note_on_c,0,58,65
1,35580,Note_off_c,0,59,0
1,35580,Note_off_c,0,63,0
1,35580,Note_on_c,0,66,65
1,35580,Note_on_c,0,67,65
1,35640,Note_off_c,0,56,0
1,35640,Note_on_c,0,57,65
1,35640,Note_off_c,0,58,0
1,35640,Note_on_c,0,59,65
1,35640,Note_on_c,0,60,65
1,35640,Note_off_c,0,64,0
1,35640,Note_off_c,0,65,0
1,35640,Note_off_c,0,67,0
1,35700,Note_on_c,0,56,65
1,35700,Note_off_c,0,57,0
1,35700,Note_on_c,0,61,65
1,35700,Note_on_c,0,63,65
1,35700,Note_on_c,0,64,65
1,35700,Note_on_c,0,65,65
1,35700,Note_off_c,0,66,0
1,35760,Note_off_c,0,59,0
1,35760,Note_off_c,0,60,0
1,35760,Note_off_c,0,64,0
1,35760,Note_off_c,0,65,0
1,35820,Note_on_c,0,58,65
1,35820,Note_on_c,0,64,65
1,35820,Note_on_c,0,67,65
1,35880,Note_off_c,0,56,0
1,35880,Note_off_c,0,63,0
1,35880,Note_on_c,0,65,65
1,35880,Note_on_c,0,66,65
1,35940,Note_on_c,0,57,65
1,35940,Note_off_c,0,58,0
1,35940,Note_on_c,0,60,65
1,35940,Note_off_c,0,64,0
1,35940,Note_off_c,0,65,0
1,35940,Note_off_c,0,66,0
1,35940,Note_off_c,0,67,0
1,36000,Note_off_c,0,57,0
1,36000,Note_off_c,0,61,0
1,36000,Note_on_c,0,64,65
1,36060,Note_on_c,0,58,65
1,36060,Note_on_c,0,59,65
1,36060,Note_off_c,0,62,0
1,36060,Note_on_c,0,63,65
1,36060,Note_off_c,0,64,0
1,36060,Note_on_c,0,67,65
1,36120,Note_on_c,0,57,65
1,36120,Note_off_c,0,58,0
1,36120,Note_off_c,0,59,0
1,36120,Note_on_c,0,61,65
1,36120,Note_on_c,0,62,65
1,36120,Note_on_c,0,65,65
1,36120,Note_off_c,0,67,0
1,36180,Note_off_c,0,57,0
1,36180,Note_off_c,0,60,0
1,36180,Note_off_c,0,61,0
1,36180,Note_off_c,0,63,0
1,36180,Note_on_c,0,67,65
1,36240,Note_on_c,0,56,65
1,36240,Note_on_c,0,57,65
1,36240,Note_on_c,0,59,65
1,36240,Note_off_c,0,62,0
1,36240,Note_on_c,0,64,65
1,36240,Note_off_c,0,65,0
1,36300,Note_off_c,0,59,0
1,36300,Note_on_c,0,65,65
1,36300,Note_off_c,0,67,0
1,36360,Note_on_c,0,58,65
1,36360,Note_on_c,0,60,65
1,36360,Note_on_c,0,62,65
1,36360,Note_on_c,0,63,65
1,36360,Note_off_c,0,65,0
1,36360,Note_on_c,0,66,65
1,36420,Note_off_c,0,56,0
1,36420,Note_off_c,0,57,0
1,36420,Note_off_c,0,58,0
1,36420,Note_on_c,0,61,65
1,36420,Note_off_c,0,63,0
1,36420,Note_on_c,0,65,65
1,36420,Note_off_c,0,66,0
1,36420,Note_on_c,0,67,65
1,36480,Note_on_c,0,56,65
1,36480,Note_on_c,0,58,65
1,36480,Note_off_c,0,60,0
1,36480,Note_off_c,0,61,0
1,36480,Note_off_c,0,62,0
1,36480,Note_off_c,0,64,0
1,36480,Note_off_c,0,67,0
1,36540,Note_off_c,0,56,0
1,36540,Note_on_c,0,57,65
1,36540,Note_on_c,0,63,65
1,36540,Note_off_c,0,65,0
1,36540,Note_on_c,0,66,65
1,36540,Note_on_c,0,67,65
1,36600,Note_on_c,0,56,65
1,36600,Note_off_c,0,58,0
1,36600,Note_on_c,0,59,65
1,36600,Note_on_c,0,60,65
1,36600,Note_on_c,0,62,65
1,36600,Note_on_c,0,64,65
1,36600,Note_off_c,0,67,0
1,36660,Note_on_c,0,58,65
1,36660,Note_on_c,0,61,65
1,36660,Note_off_c,0,64,0
1,36660,Note_on_c,0,67,65
1,36720,Note_off_c,0,56,0
1,36720,Note_off_c,0,59,0
1,36720,Note_off_c,0,60,0
1,36720,Note_off_c,0,61,0
1,36720,Note_off_c,0,63,0
1,36780,Note_off_c,0,58,0
1,36780,Note_on_c,0,60,65
1,36780,Note_on_c,0,64,65
1,36780,Note_off_c,0,66,0
1,36840,Note_on_c,0,56,65
1,36840,Note_off_c,0,57,0
1,36840,Note_on_c,0,58,65
1,36840,Note_off_c,0,62,0
1,36840,Note_on_c,0,63,65
1,36840,Note_on_c,0,66,65
1,36840,Note_off_c,0,67,0
1,36900,Note_off_c,0,60,0
1,36900,Note_on_c,0,61,65
1,36900,Note_off_c,0,64,0
1,36900,Note_off_c,0,66,0
1,36900,Note_on_c,0,67,65
1,36960,Note_off_c,0,56,0
1,36960,Note_on_c,0,57,65
1,36960,Note_on_c,0,60,65
1,36960,Note_on_c,0,62,65
1,36960,Note_on_c,0,64,65
1,36960,Note_on_c,0,66,65
1,36960,Note_off_c,0,67,0
1,37020,Note_off_c,0,58,0
1,37020,Note_off_c,0,60,0
1,37020,Note_off_c,0,61,0
1,37020,Note_off_c,0,62,0
1,37020,Note_off_c,0,63,0
1,37020,Note_off_c,0,64,0
1,37020,Note_off_c,0,66,0
1,37020,Note_on_c,0,67,65
1,37080,Note_on_c,0,58,65
1,37080,Note_on_c,0,59,65
1,37080,Note_on_c,0,61,65
1,37080,Note_on_c,0,63,65
1,37080,Note_on_c,0,65,65
1,37140,Note_off_c,0,57,0
1,37140,Note_off_c,0,61,0
1,37140,Note_off_c,0,63,0
1,37140,Note_on_c,0,66,65
1,37200,Note_on_c,0,60,65
1,37200,Note_on_c,0,61,65
1,37200,Note_on_c,0,64,65
1,37200,Note_off_c,0,65,0
1,37200,Note_off_c,0,66,0
1,37260,Note_on_c,0,56,65
1,37260,Note_on_c,0,57,65
1,37260,Note_off_c,0,61,0
1,37260,Note_off_c,0,64,0
1,37260,Note_on_c,0,65,65
1,37260,Note_on_c,0,66,65
1,37320,Note_off_c,0,56,0
1,37320,Note_on_c,0,63,65
1,37320,Note_off_c,0,65,0
1,37320,Note_off_c,0,67,0
1,37380,Note_on_c,0,56,65
1,37380,Note_off_c,0,59,0
1,37380,Note_on_c,0,62,65
1,37380,Note_off_c,0,63,0
1,37380,Note_on_c,0,65,65
1,37380,Note_on_c,0,67,65
1,37440,Note_off_c,0,56,0
1,37440,Note_off_c,0,57,0
1,37440,Note_off_c,0,58,0
1,37440,Note_on_c,0,61,65
1,37440,Note_on_c,0,63,65
1,37440,Note_on_c,0,64,65
1,37440,Note_off_c,0,66,0
1,37500,Note_off_c,0,60,0
1,37500,Note_off_c,0,62,0
1,37500,Note_off_c,0,63,0
1,37500,Note_off_c,0,64,0
1,37500,Note_on_c,0,66,65
1,37560,Note_on_c,0,56,65
1,37560,Note_on_c,0,57,65
1,37560,Note_on_c,0,58,65
1,37560,Note_on_c,0,59,65
1,37560,Note_on_c,0,63,65
1,37560,Note_on_c,0,64,65
1,37560,Note_off_c,0,65,0
1,37560,Note_off_c,0,66,0
1,37620,Note_off_c,0,57,0
1,37620,Note_off_c,0,59,0
1,37620,Note_on_c,0,60,65
1,37620,Note_off_c,0,61,0
1,37620,Note_on_c,0,66,65
1,37680,Note_off_c,0,56,0
1,37680,Note_on_c,0,57,65
1,37680,Note_on_c,0,59,65
1,37680,Note_off_c,0,60,0
1,37680,Note_on_c,0,61,65
1,37680,Note_on_c,0,62,65
1,37680,Note_off_c,0,63,0
1,37680,Note_off_c,0,64,0
1,37740,Note_on_c,0,56,65
1,37740,Note_off_c,0,57,0
1,37740,Note_off_c,0,61,0
1,37740,Note_on_c,0,63,65
1,37740,Note_off_c,0,66,0
1,37740,Note_off_c,0,67,0
1,37800,Note_on_c,0,57,65
1,37800,Note_off_c,0,62,0
1,37800,Note_on_c,0,64,65
1,37800,Note_on_c,0,65,65
1,37800,Note_on_c,0,67,65
1,37860,Note_off_c,0,59,0
1,37860,Note_on_c,0,60,65
1,37860,Note_on_c,0,62,65
1,37920,Note_off_c,0,57,0
1,37920,Note_off_c,0,63,0
1,37920,Note_off_c,0,64,0
1,37920,Note_off_c,0,65,0
1,37920,Note_off_c,0,67,0
1,37980,Note_off_c,0,56,0
1,37980,Note_off_c,0,60,0
1,37980,Note_off_c,0,62,0
1,37980,Note_on_c,0,63,65
1,37980,Note_on_c,0,64,65
1,37980,Note_on_c,0,67,65
1,38040,Note_off_c,0,58,0
1,38040,Note_on_c,0,60,65
1,38040,Note_on_c,0,61,65
1,38040,Note_on_c,0,62,65
1,38040,Note_off_c,0,63,0
1,38040,Note_off_c,0,67,0
1,38100,Note_on_c,0,56,65
1,38100,Note_off_c,0,60,0
1,38100,Note_on_c,0,63,65
1,38100,Note_on_c,0,65,65
1,38100,Note_on_c,0,66,65
1,38160,Note_on_c,0,57,65
1,38160,Note_off_c,0,63,0
1,38160,Note_off_c,0,64,0
1,38160,Note_off_c,0,65,0
1,38160,Note_off_c,0,66,0
1,38220,Note_off_c,0,57,0
1,38220,Note_on_c,0,59,65
1,38220,Note_off_c,0,61,0
1,38220,Note_off_c,0,62,0
1,38220,Note_on_c,0,63,65
1,38220,Note_on_c,0,64,65
1,38220,Note_on_c,0,65,65
1,38220,Note_on_c,0,66,65
1,38280,Note_off_c,0,56,0
1,38280,Note_off_c,0,59,0
1,38280,Note_on_c,0,60,65
1,38280,Note_on_c,0,61,65
1,38280,Note_on_c,0,62,65
1,38280,Note_off_c,0,64,0
1,38280,Note_off_c,0,66,0
1,38340,Note_on_c,0,56,65
1,38340,Note_on_c,0,57,65
1,38340,Note_on_c,0,59,65
1,38340,Note_off_c,0,60,0
1,38340,Note_off_c,0,62,0
1,38340,Note_on_c,0,64,65
1,38340,Note_off_c,0,65,0
1,38340,Note_on_c,0,66,65
1,38400,Note_off_c,0,56,0
1,38400,Note_off_c,0,59,0
1,38400,Note_on_c,0,60,65
1,38400,Note_off_c,0,66,0
1,38400,Note_on_c,0,67,65
1,38460,Note_on_c,0,56,65
1,38460,Note_off_c,0,57,0
1,38460,Note_on_c,0,58,65
1,38460,Note_off_c,0,61,0
1,38460,Note_on_c,0,62,65
1,38460,Note_off_c,0,63,0
1,38460,Note_off_c,0,64,0
1,38520,Note_on_c,0,59,65
1,38520,Note_off_c,0,60,0
1,38520,Note_on_c,0,61,65
1,38520,Note_on_c,0,63,65
1,38520,Note_on_c,0,64,65
1,38520,Note_off_c,0,67,0
1,38580,Note_off_c,0,56,0
1,38580,Note_off_c,0,59,0
1,38580,Note_on_c,0,60,65
1,38640,Note_off_c,0,60,0
1,38640,Note_off_c,0,61,0
1,38640,Note_off_c,0,62,0
1,38640,Note_off_c,0,63,0
1,38640,Note_on_c,0,65,65
1,38640,Note_on_c,0,67,65
1,38700,Note_on_c,0,57,65
1,38700,Note_on_c,0,59,65
1,38700,Note_on_c,0,60,65
1,38700,Note_off_c,0,64,0
1,38700,Note_on_c,0,66,65
1,38700,Note_off_c,0,67,0
1,38760,Note_on_c,0,56,65
1,38760,Note_off_c,0,58,0
1,38760,Note_off_c,0,59,0
1,38760,Note_off_c,0,60,0
1,38760,Note_on_c,0,61,65
1,38760,Note_on_c,0,67,65
1,38820,Note_off_c,0,57,0
1,38820,Note_on_c,0,58,65
1,38820,Note_on_c,0,63,65
1,38820,Note_off_c,0,66,0
1,38820,Note_off_c,0,67,0
1,38880,Note_on_c,0,57,65
1,38880,Note_off_c,0,58,0
1,38880,Note_on_c,0,59,65
1,38880,Note_on_c,0,60,65
1,38880,Note_off_c,0,63,0
1,38940,Note_on_c,0,62,65
1,38940,Note_on_c,0,63,65
1,38940,Note_off_c,0,65,0
1,39000,Note_off_c,0,57,0
1,39000,Note_off_c,0,59,0
1,39000,Note_off_c,0,60,0
1,39000,Note_off_c,0,63,0
1,39000,Note_on_c,0,66,65
1,39060,Note_on_c,0,57,65
1,39060,Note_on_c,0,60,65
1,39060,Note_off_c,0,62,0
1,39120,Note_off_c,0,56,0
1,39120,Note_off_c,0,57,0
1,39120,Note_on_c,0,58,65
1,39120,Note_on_c,0,59,65
1,39120,Note_off_c,0,60,0
1,39120,Note_on_c,0,62,65
1,39120,Note_on_c,0,65,65
1,39120,Note_off_c,0,66,0
1,39120,Note_on_c,0,67,65
1,39180,Note_off_c,0,61,0
1,39180,Note_off_c,0,62,0
1,39180,Note_on_c,0,63,65
1,39180,Note_off_c,0,65,0
1,39180,Note_on_c,0,66,65
1,39180,Note_off_c,0,67,0
1,39240,Note_on_c,0,56,65
1,39240,Note_off_c,0,59,0
1,39240,Note_on_c,0,64,65
1,39300,Note_off_c,0,56,0
1,39300,Note_off_c,0,58,0
1,39300,Note_on_c,0,59,65
1,39300,Note_on_c,0,60,65
1,39300,Note_off_c,0,63,0
1,39300,Note_off_c,0,64,0
1,39300,Note_off_c,0,66,0
1,39360,Note_on_c,0,58,65
1,39360,Note_off_c,0,60,0
1,39360,Note_on_c,0,61,65
1,39360,Note_on_c,0,62,65
1,39360,Note_on_c,0,63,65
1,39360,Note_on_c,0,64,65
1,39360,Note_on_c,0,66,65
1,39420,Note_on_c,0,56,65
1,39420,Note_on_c,0,60,65
1,39420,Note_off_c,0,62,0
1,39420,Note_off_c,0,63,0
1,39420,Note_off_c,0,64,0
1,39480,Note_off_c,0,56,0
1,39480,Note_on_c,0,57,65
1,39480,Note_off_c,0,58,0
1,39480,Note_off_c,0,61,0
1,39480,Note_on_c,0,63,65
1,39480,Note_on_c,0,65,65
1,39480,Note_off_c,0,66,0
1,39540,Note_on_c,0,56,65
1,39540,Note_on_c,0,58,65
1,39540,Note_off_c,0,60,0
1,39540,Note_on_c,0,61,65
1,39540,Note_on_c,0,62,65
1,39540,Note_off_c,0,63,0
1,39540,Note_on_c,0,64,65
1,39540,Note_off_c,0,65,0
1,39600,Note_off_c,0,58,0
1,39600,Note_off_c,0,61,0
1,39600,Note_off_c,0,62,0
1,39600,Note_on_c,0,63,65
1,39600,Note_off_c,0,64,0
1,39600,Note_on_c,0,66,65
1,39660,Note_off_c,0,57,0
1,39660,Note_on_c,0,60,65
1,39660,Note_on_c,0,62,65
1,39660,Note_on_c,0,64,65
1,39660,Note_on_c,0,67,65
1,39720,Note_off_c,0,56,0
1,39720,Note_on_c,0,58,65
1,39720,Note_off_c,0,60,0
1,39720,Note_off_c,0,62,0
1,39720,Note_on_c,0,65,65
1,39720,Note_off_c,0,67,0
1,39780,Note_on_c,0,56,65
1,39780,Note_off_c,0,58,0
1,39780,Note_off_c,0,59,0
1,39780,Note_on_c,0,60,65
1,39780,Note_on_c,0,61,65
1,39780,Note_on_c,0,62,65
1,39780,Note_off_c,0,63,0
1,39780,Note_off_c,0,64,0
1,39780,Note_off_c,0,65,0
1,39780,Note_off_c,0,66,0
1,39780,Note_on_c,0,67,65
1,39840,Note_off_c,0,56,0
1,39840,Note_on_c,0,59,65
1,39840,Note_on_c,0,64,65
1,39840,Note_on_c,0,66,65
1,39900,Note_on_c,0,57,65
1,39900,Note_off_c,0,60,0
1,39900,Note_off_c,0,62,0
1,39900,Note_on_c,0,63,65
1,39900,Note_on_c,0,65,65
1,39960,Note_off_c,0,57,0
1,39960,Note_on_c,0,58,65
1,39960,Note_on_c,0,60,65
1,39960,Note_on_c,0,62,65
1,39960,Note_off_c,0,63,0
1,39960,Note_off_c,0,65,0
1,40020,Note_on_c,0,57,65
1,40020,Note_off_c,0,58,0
1,40020,Note_off_c,0,59,0
1,40020,Note_off_c,0,61,0
1,40020,Note_off_c,0,62,0
1,40020,Note_off_c,0,64,0
1,40020,Note_on_c,0,65,65
1,40020,Note_off_c,0,66,0
1,40080,Note_on_c,0,56,65
1,40080,Note_on_c,0,58,65
1,40080,Note_on_c,0,59,65
1,40080,Note_on_c,0,62,65
1,40080,Note_on_c,0,64,65
1,40080,Note_off_c,0,65,0
1,40080,Note_on_c,0,66,65
1,40140,Note_off_c,0,59,0
1,40140,Note_off_c,0,60,0
1,40140,Note_off_c,0,62,0
1,40140,Note_on_c,0,63,65
1,40140,Note_off_c,0,67,0
1,40200,Note_off_c,0,56,0
1,40200,Note_off_c,0,57,0
1,40200,Note_off_c,0,58,0
1,40200,Note_on_c,0,62,65
1,40200,Note_on_c,0,65,65
1,40200,Note_on_c,0,67,65
1,40260,Note_on_c,0,56,65
1,40260,Note_on_c,0,57,65
1,40260,Note_on_c,0,58,65
1,40260,Note_on_c,0,59,65
1,40260,Note_on_c,0,60,65
1,40260,Note_off_c,0,64,0
1,40260,Note_off_c,0,66,0
1,40260,Note_off_c,0,67,0
1,40320,Note_off_c,0,58,0
1,40320,Note_on_c,0,61,65
1,40320,Note_off_c,0,62,0
1,40320,Note_off_c,0,63,0
1,40320,Note_on_c,0,64,65
1,40320,Note_on_c,0,66,65
1,40320,Note_on_c,0,67,65
1,40380,Note_on_c,0,58,65
1,40380,Note_off_c,0,59,0
1,40380,Note_off_c,0,61,0
1,40380,Note_on_c,0,62,65
1,40380,Note_on_c,0,63,65
1,40380,Note_off_c,0,66,0
1,40380,Note_off_c,0,67,0
1,40440,Note_off_c,0,56,0
1,40440,Note_off_c,0,60,0
1,40440,Note_on_c,0,61,65
1,40440,Note_off_c,0,62,0
1,40440,Note_on_c,0,66,65
1,40440,Note_on_c,0,67,65
1,40500,Note_off_c,0,58,0
1,40500,Note_on_c,0,59,65
1,40500,Note_on_c,0,60,65
1,40500,Note_off_c,0,61,0
1,40500,Note_off_c,0,63,0
1,40500,Note_off_c,0,66,0
1,40560,Note_off_c,0,57,0
1,40560,Note_on_c,0,58,65
1,40560,Note_on_c,0,61,65
1,40560,Note_on_c,0,62,65
1,40560,Note_on_c,0,63,65
1,40560,Note_off_c,0,64,0
1,40560,Note_off_c,0,65,0
1,40560,Note_off_c,0,67,0
1,40620,Note_on_c,0,57,65
1,40620,Note_off_c,0,58,0
1,40620,Note_off_c,0,60,0
1,40620,Note_on_c,0,64,65
1,40680,Note_off_c,0,57,0
1,40680,Note_off_c,0,59,0
1,40680,Note_on_c,0,60,65
1,40680,Note_off_c,0,61,0
1,40680,Note_off_c,0,63,0
1,40680,Note_off_c,0,64,0
1,40680,Note_on_c,0,66,65
1,40740,Note_on_c,0,56,65
1,40740,Note_off_c,0,60,0
1,40740,Note_on_c,0,63,65
1,40740,Note_on_c,0,64,65
1,40740,Note_on_c,0,65,65
1,40740,Note_on_c,0,67,65
1,40800,Note_on_c,0,57,65
1,40800,Note_on_c,0,59,65
1,40800,Note_on_c,0,60,65
1,40800,Note_off_c,0,62,0
1,40800,Note_off_c,0,64,0
1,40800,Note_off_c,0,67,0
1,40860,Note_off_c,0,59,0
1,40860,Note_off_c,0,60,0
1,40860,Note_on_c,0,62,65
1,40860,Note_on_c,0,64,65
1,40860,Note_off_c,0,66,0
1,40920,Note_off_c,0,57,0
1,40920,Note_on_c,0,58,65
1,40920,Note_on_c,0,61,65
1,40920,Note_off_c,0,63,0
1,40920,Note_off_c,0,65,0
1,40920,Note_on_c,0,66,65
1,40920,Note_on_c,0,67,65
1,40980,Note_off_c,0,56,0
1,40980,Note_on_c,0,60,65
1,40980,Note_on_c,0,63,65
1,40980,Note_off_c,0,64,0
1,40980,Note_on_c,0,65,65
1,40980,Note_off_c,0,66,0
1,40980,Note_off_c,0,67,0
1,41040,Note_on_c,0,56,65
1,41040,Note_on_c,0,57,65
1,41040,Note_off_c,0,58,0
1,41040,Note_on_c,0,59,65
1,41040,Note_off_c,0,60,0
1,41040,Note_off_c,0,61,0
1,41040,Note_off_c,0,65,0
1,41040,Note_on_c,0,66,65
1,41100,Note_off_c,0,56,0
1,41100,Note_on_c,0,60,65
1,41100,Note_on_c,0,61,65
1,41100,Note_off_c,0,62,0
1,41100,Note_off_c,0,63,0
1,41160,Note_on_c,0,58,65
1,41160,Note_off_c,0,61,0
1,41160,Note_on_c,0,65,65
1,41160,Note_off_c,0,66,0
1,41160,Note_on_c,0,67,65
1,41220,Note_off_c,0,57,0
1,41220,Note_off_c,0,65,0
1,41220,Note_on_c,0,66,65
1,41280,Note_off_c,0,58,0
1,41280,Note_on_c,0,62,65
1,41280,Note_on_c,0,64,65
1,41340,Note_on_c,0,56,65
1,41340,Note_on_c,0,57,65
1,41340,Note_on_c,0,58,65
1,41340,Note_off_c,0,62,0
1,41340,Note_on_c,0,63,65
1,41340,Note_on_c,0,65,65
1,41340,Note_off_c,0,67,0
1,41400,Note_off_c,0,56,0
1,41400,Note_off_c,0,57,0
1,41400,Note_on_c,0,61,65
1,41400,Note_on_c,0,62,65
1,41400,Note_off_c,0,63,0
1,41400,Note_off_c,0,64,0
1,41400,Note_off_c,0,66,0
1,41400,Note_on_c,0,67,65
1,41460,Note_on_c,0,57,65
1,41460,Note_off_c,0,60,0
1,41460,Note_off_c,0,61,0
1,41460,Note_on_c,0,63,65
1,41460,Note_off_c,0,65,0
1,41520,Note_off_c,0,59,0
1,41520,Note_off_c,0,63,0
1,41520,Note_on_c,0,65,65
1,41520,Note_on_c,0,66,65
1,41520,Note_off_c,0,67,0
1,41580,Note_on_c,0,56,65
1,41580,Note_off_c,0,57,0
1,41580,Note_on_c,0,61,65
1,41580,Note_off_c,0,62,0
1,41580,Note_off_c,0,65,0
1,41580,Note_off_c,0,66,0
1,41580,Note_on_c,0,67,65
1,41640,Note_off_c,0,56,0
1,41640,Note_on_c,0,60,65
1,41640,Note_on_c,0,65,65
1,41700,Note_on_c,0,57,65
1,41700,Note_off_c,0,58,0
1,41700,Note_off_c,0,60,0
1,41700,Note_off_c,0,61,0
1,41700,Note_on_c,0,62,65
1,41700,Note_on_c,0,63,65
1,41700,Note_on_c,0,64,65
1,41700,Note_on_c,0,66,65
1,41700,Note_off_c,0,67,0
1,41760,Note_on_c,0,58,65
1,41760,Note_on_c,0,59,65
1,41760,Note_on_c,0,60,65
1,41760,Note_off_c,0,63,0
1,41760,Note_off_c,0,65,0
1,41760,Note_off_c,0,66,0
1,41820,Note_off_c,0,57,0
1,41820,Note_off_c,0,58,0
1,41820,Note_off_c,0,64,0
1,41820,Note_on_c,0,66,65
1,41820,Note_on_c,0,67,65
1,41880,Note_on_c,0,56,65
1,41880,Note_on_c,0,61,65
1,41880,Note_off_c,0,62,0
1,41880,Note_on_c,0,63,65
1,41880,Note_on_c,0,64,65
1,41880,Note_off_c,0,66,0
1,41880,Note_off_c,0,67,0
1,41940,Note_on_c,0,57,65
1,41940,Note_on_c,0,62,65
1,41940,Note_on_c,0,65,65
1,41940,Note_on_c,0,66,65
1,42000,Note_off_c,0,57,0
1,42000,Note_off_c,0,59,0
1,42000,Note_off_c,0,60,0
1,42000,Note_off_c,0,62,0
1,42000,Note_off_c,0,64,0
1,42000,Note_off_c,0,65,0
1,42000,Note_off_c,0,66,0
1,42000,Note_on_c,0,67,65
1,42060,Note_on_c,0,64,65
1,42060,Note_on_c,0,65,65
1,42060,Note_off_c,0,67,0
1,42120,Note_on_c,0,57,65
1,42120,Note_on_c,0,58,65
1,42120,Note_off_c,0,64,0
1,42120,Note_off_c,0,65,0
1,42180,Note_off_c,0,58,0
1,42180,Note_off_c,0,61,0
1,42180,Note_on_c,0,64,65
1,42180,Note_on_c,0,65,65
1,42240,Note_off_c,0,57,0
1,42240,Note_on_c,0,58,65
1,42240,Note_on_c,0,59,65
1,42240,Note_on_c,0,62,65
1,42240,Note_off_c,0,64,0
1,42240,Note_off_c,0,65,0
1,42240,Note_on_c,0,67,65
1,42300,Note_off_c,0,56,0
1,42300,Note_off_c,0,59,0
1,42300,Note_on_c,0,60,65
1,42300,Note_off_c,0,62,0
1,42360,Note_on_c,0,57,65
1,42360,Note_off_c,0,58,0
1,42360,Note_on_c,0,59,65
1,42360,Note_off_c,0,60,0
1,42360,Note_on_c,0,62,65
1,42360,Note_off_c,0,63,0
1,42360,Note_on_c,0,64,65
1,42360,Note_on_c,0,65,65
1,42360,Note_on_c,0,66,65
1,42360,Note_off_c,0,67,0
1,42420,Note_on_c,0,56,65
1,42420,Note_off_c,0,57,0
1,42420,Note_on_c,0,63,65
1,42420,Note_off_c,0,64,0
1,42420,Note_off_c,0,66,0
1,42420,Note_on_c,0,67,65
1,42480,Note_off_c,0,56,0
1,42480,Note_on_c,0,57,65
1,42480,Note_on_c,0,58,65
1,42480,Note_on_c,0,60,65
1,42480,Note_on_c,0,61,65
1,42480,Note_off_c,0,63,0
1,42480,Note_off_c,0,65,0
1,42480,Note_off_c,0,67,0
1,42540,Note_off_c,0,57,0
1,42540,Note_off_c,0,58,0
1,42540,Note_off_c,0,61,0
1,42540,Note_off_c,0,62,0
1,42540,Note_on_c,0,64,65
1,42540,Note_on_c,0,66,65
1,42540,Note_on_c,0,67,65
1,42600,Note_on_c,0,57,65
1,42600,Note_off_c,0,59,0
1,42600,Note_on_c,0,62,65
1,42600,Note_off_c,0,64,0
1,42600,Note_off_c,0,66,0
1,42600,Note_off_c,0,67,0
1,42660,Note_on_c,0,56,65
1,42660,Note_on_c,0,59,65
1,42660,Note_off_c,0,60,0
1,42660,Note_on_c,0,61,65
1,42660,Note_on_c,0,66,65
1,42720,Note_off_c,0,59,0
1,42720,Note_off_c,0,61,0
1,42720,Note_off_c,0,62,0
1,42720,Note_on_c,0,65,65
1,42720,Note_on_c,0,67,65
1,42780,Note_off_c,0,57,0
1,42780,Note_on_c,0,60,65
1,42780,Note_off_c,0,65,0
1,42780,Note_off_c,0,67,0
1,42840,Note_on_c,0,58,65
1,42840,Note_on_c,0,59,65
1,42840,Note_on_c,0,62,65
1,42840,Note_on_c,0,65,65
1,42840,Note_off_c,0,66,0
1,42900,Note_off_c,0,56,0
1,42900,Note_off_c,0,58,0
1,42900,Note_on_c,0,61,65
1,42900,Note_off_c,0,62,0
1,42900,Note_on_c,0,64,65
1,42900,Note_off_c,0,65,0
1,42900,Note_on_c,0,67,65
1,42960,Note_on_c,0,56,65
1,42960,Note_on_c,0,57,65
1,42960,Note_on_c,0,58,65
1,42960,Note_off_c,0,60,0
1,42960,Note_off_c,0,61,0
1,42960,Note_on_c,0,62,65
1,42960,Note_off_c,0,64,0
1,42960,Note_on_c,0,66,65
1,42960,Note_off_c,0,67,0
1,43020,Note_off_c,0,56,0
1,43020,Note_on_c,0,60,65
1,43020,Note_off_c,0,62,0
1,43020,Note_on_c,0,65,65
1,43020,Note_off_c,0,66,0
1,43080,Note_off_c,0,59,0
1,43080,Note_off_c,0,60,0
1,43080,Note_on_c,0,63,65
1,43080,Note_off_c,0,65,0
1,43080,Note_on_c,0,67,65
1,43140,Note_off_c,0,58,0
1,43140,Note_on_c,0,60,65
1,43140,Note_on_c,0,62,65
1,43140,Note_off_c,0,63,0
1,43200,Note_on_c,0,58,65
1,43200,Note_on_c,0,59,65
1,43200,Note_off_c,0,60,0
1,43200,Note_on_c,0,61,65
1,43200,Note_on_c,0,64,65
1,43200,Note_on_c,0,65,65
1,43200,Note_on_c,0,66,65
1,43200,Note_off_c,0,67,0
1,43260,Note_off_c,0,57,0
1,43260,Note_off_c,0,59,0
1,43260,Note_off_c,0,61,0
1,43260,Note_off_c,0,62,0
1,43260,Note_on_c,0,63,65
1,43260,Note_off_c,0,65,0
1,43260,Note_off_c,0,66,0
1,43320,Note_on_c,0,56,65
1,43320,Note_on_c,0,57,65
1,43320,Note_off_c,0,58,0
1,43320,Note_on_c,0,59,65
1,43320,Note_on_c,0,60,65
1,43320,Note_on_c,0,61,65
1,43320,Note_on_c,0,62,65
1,43320,Note_off_c,0,63,0
1,43320,Note_on_c,0,65,65
1,43320,Note_on_c,0,66,65
1,43380,Note_off_c,0,56,0
1,43380,Note_off_c,0,59,0
1,43380,Note_off_c,0,61,0
1,43380,Note_off_c,0,62,0
1,43380,Note_off_c,0,66,0
1,43380,Note_on_c,0,67,65
1,43440,Note_on_c,0,56,65
1,43440,Note_off_c,0,60,0
1,43440,Note_on_c,0,61,65
1,43440,Note_on_c,0,62,65
1,43440,Note_on_c,0,63,65
1,43440,Note_off_c,0,65,0
1,43500,Note_off_c,0,56,0
1,43500,Note_off_c,0,57,0
1,43500,Note_on_c,0,58,65
1,43500,Note_on_c,0,59,65
1,43500,Note_off_c,0,61,0
1,43500,Note_off_c,0,64,0
1,43500,Note_on_c,0,66,65
1,43500,Note_off_c,0,67,0
1,43560,Note_on_c,0,56,65
1,43560,Note_on_c,0,57,65
1,43560,Note_off_c,0,59,0
1,43560,Note_on_c,0,60,65
1,43560,Note_on_c,0,61,65
1,43560,Note_off_c,0,62,0
1,43560,Note_on_c,0,64,65
1,43560,Note_on_c,0,65,65
1,43560,Note_on_c,0,67,65
1,43620,Note_off_c,0,56,0
1,43620,Note_off_c,0,58,0
1,43620,Note_off_c,0,60,0
1,43620,Note_off_c,0,61,0
1,43620,Note_off_c,0,64,0
1,43620,Note_off_c,0,66,0
1,43680,Note_on_c,0,56,65
1,43680,Note_on_c,0,58,65
1,43680,Note_on_c,0,61,65
1,43680,Note_on_c,0,62,65
1,43680,Note_off_c,0,65,0
1,43680,Note_on_c,0,66,65
1,43680,Note_off_c,0,67,0
1,43740,Note_on_c,0,59,65
1,43740,Note_off_c,0,61,0
1,43740,Note_off_c,0,62,0
1,43740,Note_off_c,0,63,0
1,43740,Note_on_c,0,65,65
1,43740,Note_on_c,0,67,65
1,43800,Note_off_c,0,56,0
1,43800,Note_on_c,0,62,65
1,43800,Note_on_c,0,63,65
1,43800,Note_on_c,0,64,65
1,43800,Note_off_c,0,66,0
1,43800,Note_off_c,0,67,0
1,43860,Note_off_c,0,58,0
1,43860,Note_off_c,0,59,0
1,43860,Note_on_c,0,60,65
1,43860,Note_off_c,0,62,0
1,43860,Note_off_c,0,63,0
1,43860,Note_on_c,0,66,65
1,43860,Note_on_c,0,67,65
1,43920,Note_off_c,0,57,0
1,43920,Note_on_c,0,58,65
1,43920,Note_on_c,0,59,65
1,43920,Note_on_c,0,63,65
1,43920,Note_off_c,0,65,0
1,43920,Note_off_c,0,67,0
1,43980,Note_on_c,0,56,65
1,43980,Note_on_c,0,57,65
1,43980,Note_off_c,0,59,0
1,43980,Note_on_c,0,61,65
1,43980,Note_off_c,0,63,0
1,43980,Note_on_c,0,65,65
1,43980,Note_off_c,0,66,0
1,44040,Note_off_c,0,57,0
1,44040,Note_off_c,0,58,0
1,44040,Note_on_c,0,59,65
1,44040,Note_on_c,0,62,65
1,44040,Note_on_c,0,66,65
1,44040,Note_on_c,0,67,65
1,44100,Note_off_c,0,59,0
1,44100,Note_off_c,0,62,0
1,44100,Note_on_c,0,63,65
1,44100,Note_off_c,0,64,0
1,44100,Note_off_c,0,65,0
1,44100,Note_off_c,0,66,0
1,44160,Note_off_c,0,56,0
1,44160,Note_on_c,0,58,65
1,44160,Note_on_c,0,59,65
1,44160,Note_off_c,0,60,0
1,44160,Note_off_c,0,67,0
1,44220,Note_on_c,0,60,65
1,44220,Note_off_c,0,61,0
1,44220,Note_off_c,0,63,0
1,44220,Note_on_c,0,64,65
1,44220,Note_on_c,0,65,65
1,44220,Note_on_c,0,66,65
1,44220,Note_on_c,0,67,65
1,44280,Note_on_c,0,57,65
1,44280,Note_on_c,0,61,65
1,44280,Note_on_c,0,62,65
1,44280,Note_on_c,0,63,65
1,44280,Note_off_c,0,64,0
1,44280,Note_off_c,0,66,0
1,44340,Note_off_c,0,57,0
1,44340,Note_off_c,0,58,0
1,44340,Note_off_c,0,59,0
1,44340,Note_off_c,0,60,0
1,44340,Note_off_c,0,62,0
1,44340,Note_off_c,0,63,0
1,44340,Note_on_c,0,64,65
1,44340,Note_off_c,0,65,0
1,44340,Note_on_c,0,66,65
1,44340,Note_off_c,0,67,0
1,44400,Note_on_c,0,56,65
1,44400,Note_on_c,0,58,65
1,44400,Note_on_c,0,59,65
1,44400,Note_on_c,0,60,65
1,44400,Note_on_c,0,62,65
1,44400,Note_off_c,0,64,0
1,44400,Note_on_c,0,65,65
1,44400,Note_off_c,0,66,0
1,44400,Note_on_c,0,67,65
1,44460,Note_off_c,0,56,0
1,44460,Note_off_c,0,58,0
1,44460,Note_off_c,0,60,0
1,44460,Note_off_c,0,62,0
1,44460,Note_on_c,0,63,65
1,44460,Note_on_c,0,64,65
1,44460,Note_on_c,0,66,65
1,44520,Note_on_c,0,56,65
1,44520,Note_on_c,0,57,65
1,44520,Note_on_c,0,60,65
1,44520,Note_off_c,0,61,0
1,44520,Note_off_c,0,63,0
1,44520,Note_off_c,0,65,0
1,44520,Note_off_c,0,66,0
1,44580,Note_off_c,0,56,0
1,44580,Note_on_c,0,58,65
1,44580,Note_off_c,0,59,0
1,44580,Note_on_c,0,61,65
1,44580,Note_on_c,0,66,65
1,44640,Note_on_c,0,56,65
1,44640,Note_on_c,0,59,65
1,44640,Note_off_c,0,60,0
1,44640,Note_on_c,0,63,65
1,44640,Note_on_c,0,65,65
1,44640,Note_off_c,0,66,0
1,44700,Note_off_c,0,57,0
1,44700,Note_off_c,0,58,0
1,44700,Note_off_c,0,59,0
1,44700,Note_on_c,0,60,65
1,44700,Note_off_c,0,63,0
1,44700,Note_off_c,0,65,0
1,44700,Note_on_c,0,66,65
1,44760,Note_off_c,0,56,0
1,44760,Note_on_c,0,57,65
1,44760,Note_on_c,0,58,65
1,44760,Note_off_c,0,61,0
1,44760,Note_on_c,0,62,65
1,44760,Note_on_c,0,65,65
1,44820,Note_off_c,0,57,0
1,44820,Note_on_c,0,61,65
1,44820,Note_off_c,0,62,0
1,44820,Note_off_c,0,64,0
1,44820,Note_off_c,0,65,0
1,44820,Note_off_c,0,67,0
1,44880,Note_off_c,0,58,0
1,44880,Note_on_c,0,62,65
1,44880,Note_on_c,0,63,65
1,44880,Note_on_c,0,64,65
1,44880,Note_off_c,0,66,0
1,44940,Note_on_c,0,57,65
1,44940,Note_off_c,0,60,0
1,44940,Note_off_c,0,61,0
1,44940,Note_on_c,0,66,65
1,45000,Note_on_c,0,56,65
1,45000,Note_on_c,0,58,65
1,45000,Note_on_c,0,59,65
1,45000,Note_on_c,0,60,65
1,45000,Note_off_c,0,63,0
1,45000,Note_off_c,0,64,0
1,45000,Note_off_c,0,66,0
1,45060,Note_off_c,0,58,0
1,45060,Note_off_c,0,62,0
1,45060,Note_on_c,0,64,65
1,45060,Note_on_c,0,66,65
1,45120,Note_off_c,0,56,0
1,45120,Note_off_c,0,57,0
1,45120,Note_on_c,0,58,65
1,45120,Note_off_c,0,59,0
1,45120,Note_on_c,0,61,65
1,45120,Note_off_c,0,64,0
1,45120,Note_on_c,0,67,65
1,45180,Note_on_c,0,56,65
1,45180,Note_on_c,0,57,65
1,45180,Note_off_c,0,58,0
1,45180,Note_on_c,0,59,65
1,45180,Note_off_c,0,61,0
1,45180,Note_on_c,0,62,65
1,45180,Note_on_c,0,64,65
1,45180,Note_off_c,0,66,0
1,45240,Note_off_c,0,56,0
1,45240,Note_off_c,0,57,0
1,45240,Note_off_c,0,59,0
1,45240,Note_off_c,0,60,0
1,45240,Note_on_c,0,63,65
1,45240,Note_off_c,0,67,0
1,45300,Note_on_c,0,56,65
1,45300,Note_on_c,0,57,65
1,45300,Note_on_c,0,58,65
1,45300,Note_on_c,0,60,65
1,45300,Note_on_c,0,61,65
1,45300,Note_off_c,0,62,0
1,45300,Note_off_c,0,63,0
1,45300,Note_on_c,0,65,65
1,45360,Note_off_c,0,56,0
1,45360,Note_off_c,0,60,0
1,45360,Note_off_c,0,61,0
1,45360,Note_on_c,0,62,65
1,45360,Note_off_c,0,65,0
1,45360,Note_on_c,0,66,65
1,45420,Note_off_c,0,57,0
1,45420,Note_off_c,0,58,0
1,45420,Note_on_c,0,59,65
1,45420,Note_on_c,0,60,65
1,45420,Note_on_c,0,61,65
1,45420,Note_on_c,0,65,65
1,45420,Note_off_c,0,66,0
1,45420,Note_on_c,0,67,65
1,45480,Note_on_c,0,57,65
1,45480,Note_off_c,0,59,0
1,45480,Note_off_c,0,61,0
1,45480,Note_off_c,0,64,0
1,45480,Note_on_c,0,66,65
1,45480,Note_off_c,0,67,0
1,45540,Note_on_c,0,56,65
1,45540,Note_off_c,0,57,0
1,45540,Note_on_c,0,59,65
1,45540,Note_on_c,0,64,65
1,45540,Note_off_c,0,65,0
1,45540,Note_off_c,0,66,0
1,45600,Note_off_c,0,59,0
1,45600,Note_on_c,0,63,65
1,45600,Note_off_c,0,64,0
1,45600,Note_on_c,0,66,65
1,45660,Note_on_c,0,61,65
1,45660,Note_on_c,0,64,65
1,45660,Note_on_c,0,65,65
1,45660,Note_off_c,0,66,0
1,45660,Note_on_c,0,67,65
1,45720,Note_on_c,0,58,65
1,45720,Note_off_c,0,60,0
1,45720,Note_off_c,0,61,0
1,45720,Note_off_c,0,63,0
1,45720,Note_off_c,0,64,0
1,45720,Note_off_c,0,67,0
1,45780,Note_off_c,0,56,0
1,45780,Note_on_c,0,57,65
1,45780,Note_off_c,0,58,0
1,45780,Note_on_c,0,61,65
1,45780,Note_off_c,0,62,0
1,45780,Note_on_c,0,63,65
1,45780,Note_off_c,0,65,0
1,45780,Note_on_c,0,66,65
1,45780,Note_on_c,0,67,65
1,45840,Note_on_c,0,56,65
1,45840,Note_off_c,0,61,0
1,45840,Note_on_c,0,62,65
1,45840,Note_off_c,0,63,0
1,45840,Note_on_c,0,65,65
1,45840,Note_off_c,0,66,0
1,45840,Note_off_c,0,67,0
1,45900,Note_on_c,0,58,65
1,45900,Note_on_c,0,59,65
1,45900,Note_on_c,0,60,65
1,45900,Note_on_c,0,61,65
1,45900,Note_off_c,0,62,0
1,45900,Note_on_c,0,63,65
1,45900,Note_on_c,0,64,65
1,45900,Note_off_c,0,65,0
1,45900,Note_on_c,0,66,65
1,45960,Note_off_c,0,57,0
1,45960,Note_off_c,0,59,0
1,45960,Note_off_c,0,60,0
1,45960,Note_off_c,0,66,0
1,46020,Note_off_c,0,58,0
1,46020,Note_on_c,0,59,65
1,46020,Note_on_c,0,60,65
1,46020,Note_off_c,0,61,0
1,46020,Note_on_c,0,66,65
1,46080,Note_on_c,0,57,65
1,46080,Note_on_c,0,58,65
1,46080,Note_off_c,0,63,0
1,46080,Note_off_c,0,64,0
1,46080,Note_off_c,0,66,0
1,46140,Note_off_c,0,56,0
1,46140,Note_off_c,0,58,0
1,46140,Note_off_c,0,59,0
1,46140,Note_on_c,0,61,65
1,46140,Note_on_c,0,62,65
1,46140,Note_on_c,0,64,65
1,46140,Note_on_c,0,66,65
1,46200,Note_off_c,0,57,0
1,46200,Note_on_c,0,58,65
1,46200,Note_off_c,0,62,0
1,46200,Note_on_c,0,63,65
1,46200,Note_on_c,0,65,65
1,46260,Note_on_c,0,56,65
1,46260,Note_on_c,0,57,65
1,46260,Note_off_c,0,58,0
1,46260,Note_on_c,0,59,65
1,46260,Note_off_c,0,60,0
1,46260,Note_on_c,0,62,65
1,46260,Note_off_c,0,63,0
1,46260,Note_off_c,0,65,0
1,46260,Note_off_c,0,66,0
1,46260,Note_on_c,0,67,65
1,46320,Note_off_c,0,56,0
1,46320,Note_on_c,0,58,65
1,46320,Note_off_c,0,62,0
1,46320,Note_on_c,0,63,65
1,46320,Note_off_c,0,64,0
1,46320,Note_off_c,0,67,0
1,46380,Note_off_c,0,57,0
1,46380,Note_off_c,0,59,0
1,46380,Note_on_c,0,60,65
1,46380,Note_off_c,0,61,0
1,46380,Note_on_c,0,62,65
1,46380,Note_off_c,0,63,0
1,46380,Note_on_c,0,64,65
1,46380,Note_on_c,0,65,65
1,46380,Note_on_c,0,67,65
1,46440,Note_off_c,0,58,0
1,46440,Note_off_c,0,62,0
1,46440,Note_off_c,0,64,0
1,46440,Note_off_c,0,65,0
1,46440,Note_on_c,0,66,65
1,46500,Note_on_c,0,59,65
1,46500,Note_on_c,0,61,65
1,46500,Note_on_c,0,62,65
1,46500,Note_on_c,0,64,65
1,46500,Note_on_c,0,65,65
1,46560,Note_on_c,0,57,65
1,46560,Note_on_c,0,58,65
1,46560,Note_off_c,0,59,0
1,46560,Note_off_c,0,60,0
1,46560,Note_off_c,0,61,0
1,46560,Note_off_c,0,62,0
1,46560,Note_on_c,0,63,65
1,46560,Note_off_c,0,64,0
1,46620,Note_on_c,0,59,65
1,46620,Note_on_c,0,64,65
1,46620,Note_off_c,0,66,0
1,46680,Note_off_c,0,58,0
1,46680,Note_on_c,0,62,65
1,46680,Note_off_c,0,64,0
1,46680,Note_off_c,0,65,0
1,46680,Note_on_c,0,66,65
1,46680,Note_off_c,0,67,0
1,46740,Note_on_c,0,56,65
1,46740,Note_on_c,0,58,65
1,46740,Note_on_c,0,60,65
1,46740,Note_on_c,0,64,65
1,46740,Note_on_c,0,65,65
1,46740,Note_on_c,0,67,65
1,46800,Note_off_c,0,57,0
1,46800,Note_off_c,0,59,0
1,46800,Note_off_c,0,60,0
1,46800,Note_off_c,0,63,0
1,46800,Note_off_c,0,64,0
1,46800,Note_off_c,0,65,0
1,46800,Note_off_c,0,67,0
1,46860,Note_on_c,0,61,65
1,46860,Note_off_c,0,62,0
1,46860,Note_on_c,0,64,65
1,46860,Note_off_c,0,66,0
1,46860,Note_on_c,0,67,65
1,46920,Note_off_c,0,56,0
1,46920,Note_on_c,0,57,65
1,46920,Note_off_c,0,58,0
1,46920,Note_on_c,0,60,65
1,46920,Note_off_c,0,61,0
1,46920,Note_on_c,0,62,65
1,46920,Note_off_c,0,64,0
1,46920,Note_on_c,0,65,65
1,46920,Note_on_c,0,66,65
1,46980,Note_on_c,0,58,65
1,46980,Note_off_c,0,60,0
1,46980,Note_on_c,0,63,65
1,46980,Note_off_c,0,65,0
1,46980,Note_off_c,0,66,0
1,47040,Note_off_c,0,57,0
1,47040,Note_off_c,0,58,0
1,47040,Note_on_c,0,60,65
1,47040,Note_on_c,0,61,65
1,47040,Note_on_c,0,65,65
1,47040,Note_on_c,0,66,65
1,47040,Note_off_c,0,67,0
1,47100,Note_on_c,0,57,65
1,47100,Note_off_c,0,60,0
1,47100,Note_off_c,0,61,0
1,47100,Note_on_c,0,67,65
1,47160,Note_on_c,0,58,65
1,47160,Note_on_c,0,61,65
1,47160,Note_off_c,0,62,0
1,47160,Note_on_c,0,64,65
1,47160,Note_off_c,0,66,0
1,47160,Note_off_c,0,67,0
1,47220,Note_on_c,0,56,65
1,47220,Note_off_c,0,58,0
1,47220,Note_on_c,0,59,65
1,47220,Note_off_c,0,61,0
1,47220,Note_off_c,0,63,0
1,47220,Note_on_c,0,67,65
1,47280,Note_off_c,0,56,0
1,47280,Note_off_c,0,59,0
1,47280,Note_on_c,0,61,65
1,47280,Note_on_c,0,62,65
1,47340,Note_on_c,0,56,65
1,47340,Note_on_c,0,58,65
1,47340,Note_on_c,0,59,65
1,47340,Note_on_c,0,60,65
1,47340,Note_off_c,0,62,0
1,47340,Note_on_c,0,63,65
1,47340,Note_off_c,0,64,0
1,47340,Note_off_c,0,65,0
1,47340,Note_on_c,0,66,65
1,47400,Note_off_c,0,56,0
1,47400,Note_off_c,0,61,0
1,47400,Note_on_c,0,62,65
1,47400,Note_on_c,0,65,65
1,47400,Note_off_c,0,67,0
1,47460,Note_off_c,0,60,0
1,47460,Note_on_c,0,61,65
1,47460,Note_off_c,0,65,0
1,47460,Note_off_c,0,66,0
1,47520,Note_on_c,0,56,65
1,47520,Note_off_c,0,57,0
1,47520,Note_off_c,0,59,0
1,47520,Note_on_c,0,60,65
1,47520,Note_off_c,0,61,0
1,47520,Note_on_c,0,64,65
1,47520,Note_on_c,0,66,65
1,47520,Note_on_c,0,67,65
1,47580,Note_on_c,0,57,65
1,47580,Note_off_c,0,58,0
1,47580,Note_on_c,0,59,65
1,47580,Note_on_c,0,61,65
1,47580,Note_off_c,0,63,0
1,47580,Note_off_c,0,64,0
1,47580,Note_on_c,0,65,65
1,47580,Note_off_c,0,66,0
1,47640,Note_off_c,0,57,0
1,47640,Note_off_c,0,60,0
1,47640,Note_off_c,0,61,0
1,47640,Note_on_c,0,66,65
1,47640,Note_off_c,0,67,0
1,47700,Note_on_c,0,58,65
1,47700,Note_on_c,0,60,65
1,47700,Note_off_c,0,62,0
1,47700,Note_off_c,0,66,0
1,47760,Note_on_c,0,57,65
1,47760,Note_on_c,0,61,65
1,47760,Note_on_c,0,62,65
1,47760,Note_on_c,0,63,65
1,47760,Note_on_c,0,64,65
1,47760,Note_on_c,0,66,65
1,47820,Note_off_c,0,56,0
1,47820,Note_off_c,0,57,0
1,47820,Note_off_c,0,58,0
1,47820,Note_off_c,0,59,0
1,47820,Note_off_c,0,60,0
1,47820,Note_off_c,0,61,0
1,47820,Note_off_c,0,64,0
1,47820,Note_off_c,0,66,0
1,47820,Note_on_c,0,67,65
1,47880,Note_on_c,0,56,65
1,47880,Note_on_c,0,57,65
1,47880,Note_off_c,0,65,0
1,47880,Note_off_c,0,67,0
1,47940,Note_off_c,0,56,0
1,47940,Note_off_c,0,57,0
1,47940,Note_on_c,0,60,65
1,47940,Note_on_c,0,61,65
1,47940,Note_off_c,0,62,0
1,47940,Note_off_c,0,63,0
1,47940,Note_on_c,0,64,65
1,47940,Note_on_c,0,67,65
1,48000,Note_on_c,0,57,65
1,48000,Note_on_c,0,59,65
1,48000,Note_off_c,0,60,0
1,48000,Note_off_c,0,61,0
1,48000,Note_on_c,0,63,65
1,48000,Note_off_c,0,64,0
1,48060,Note_on_c,0,56,65
1,48060,Note_off_c,0,57,0
1,48060,Note_on_c,0,58,65
1,48060,Note_off_c,0,59,0
1,48060,Note_on_c,0,60,65
1,48060,Note_off_c,0,63,0
1,48060,Note_on_c,0,65,65
1,48060,Note_on_c,0,66,65
1,48060,Note_off_c,0,67,0
1,48120,Note_on_c,0,57,65
1,48120,Note_off_c,0,60,0
1,48120,Note_on_c,0,61,65
1,48120,Note_on_c,0,62,65
1,48120,Note_on_c,0,63,65
1,48120,Note_on_c,0,67,65
1,48180,Note_off_c,0,57,0
1,48180,Note_on_c,0,60,65
1,48180,Note_off_c,0,61,0
1,48180,Note_off_c,0,63,0
1,48180,Note_on_c,0,64,65
1,48180,Note_off_c,0,66,0
1,48180,Note_off_c,0,67,0
1,48240,Note_on_c,0,61,65
1,48240,Note_on_c,0,63,65
1,48240,Note_off_c,0,65,0
1,48240,Note_on_c,0,67,65
1,48300,Note_on_c,0,59,65
1,48300,Note_off_c,0,60,0
1,48300,Note_off_c,0,61,0
1,48300,Note_off_c,0,63,0
1,48300,Note_off_c,0,64,0
1,48360,Note_off_c,0,59,0
1,48360,Note_on_c,0,61,65
1,48360,Note_off_c,0,62,0
1,48360,Note_on_c,0,63,65
1,48360,Note_on_c,0,64,65
1,48360,Note_on_c,0,65,65
1,48360,Note_off_c,0,67,0
1,48420,Note_off_c,0,56,0
1,48420,Note_on_c,0,57,65
1,48420,Note_off_c,0,58,0
1,48420,Note_on_c,0,59,65
1,48420,Note_off_c,0,61,0
1,48420,Note_on_c,0,62,65
1,48480,Note_off_c,0,57,0
1,48480,Note_on_c,0,58,65
1,48480,Note_off_c,0,59,0
1,48480,Note_off_c,0,65,0
1,48480,Note_on_c,0,66,65
1,48480,Note_on_c,0,67,65
1,48540,Note_off_c,0,58,0
1,48540,Note_on_c,0,59,65
1,48540,Note_on_c,0,60,65
1,48540,Note_on_c,0,61,65
1,48540,Note_off_c,0,63,0
1,48540,Note_off_c,0,64,0
1,48600,Note_on_c,0,56,65
1,48600,Note_off_c,0,59,0
1,48600,Note_off_c,0,61,0
1,48600,Note_on_c,0,63,65
1,48600,Note_off_c,0,67,0
1,48660,Note_on_c,0,57,65
1,48660,Note_on_c,0,58,65
1,48660,Note_off_c,0,60,0
1,48660,Note_off_c,0,62,0
1,48660,Note_on_c,0,64,65
1,48660,Note_on_c,0,65,65
1,48720,Note_off_c,0,58,0
1,48720,Note_on_c,0,62,65
1,48720,Note_off_c,0,65,0
1,48720,Note_off_c,0,66,0
1,48780,Note_off_c,0,56,0
1,48780,Note_on_c,0,59,65
1,48780,Note_on_c,0,60,65
1,48780,Note_on_c,0,61,65
1,48840,Note_on_c,0,56,65
1,48840,Note_off_c,0,57,0
1,48840,Note_off_c,0,63,0
1,48840,Note_on_c,0,67,65
1,48900,Note_off_c,0,56,0
1,48900,Note_on_c,0,65,65
1,48960,Note_on_c,0,57,65
1,48960,Note_on_c,0,58,65
1,48960,Note_off_c,0,60,0
1,48960,Note_off_c,0,64,0
1,48960,Note_off_c,0,65,0
1,48960,Note_off_c,0,67,0
1,49020,Note_on_c,0,56,65
1,49020,Note_off_c,0,57,0
1,49020,Note_off_c,0,58,0
1,49020,Note_on_c,0,60,65
1,49020,Note_on_c,0,65,65
1,49080,Note_off_c,0,56,0
1,49080,Note_off_c,0,62,0
1,49080,Note_on_c,0,63,65
1,49080,Note_on_c,0,64,65
1,49080,Note_off_c,0,65,0
1,49080,Note_on_c,0,66,65
1,49140,Note_on_c,0,57,65
1,49140,Note_off_c,0,59,0
1,49140,Note_off_c,0,61,0
1,49140,Note_off_c,0,64,0
1,49140,Note_on_c,0,65,65
1,49140,Note_off_c,0,66,0
1,49140,Note_on_c,0,67,65
1,49200,Note_on_c,0,56,65
1,49200,Note_off_c,0,57,0
1,49200,Note_on_c,0,58,65
1,49200,Note_off_c,0,60,0
1,49200,Note_on_c,0,62,65
1,49200,Note_off_c,0,65,0
1,49200,Note_on_c,0,66,65
1,49200,Note_off_c,0,67,0
1,49260,Note_on_c,0,57,65
1,49260,Note_off_c,0,63,0
1,49260,Note_on_c,0,65,65
1,49320,Note_off_c,0,57,0
1,49320,Note_off_c,0,58,0
1,49320,Note_on_c,0,59,65
1,49320,Note_on_c,0,60,65
1,49320,Note_on_c,0,61,65
1,49320,Note_off_c,0,62,0
1,49320,Note_on_c,0,63,65
1,49320,Note_off_c,0,65,0
1,49320,Note_off_c,0,66,0
1,49380,Note_on_c,0,57,65
1,49380,Note_off_c,0,59,0
1,49380,Note_off_c,0,63,0
1,49380,Note_on_c,0,67,65
1,49440,Note_on_c,0,58,65
1,49440,Note_on_c,0,62,65
1,49440,Note_on_c,0,63,65
1,49440,Note_on_c,0,65,65
1,49440,Note_on_c,0,66,65
1,49440,Note_off_c,0,67,0
1,49500,Note_off_c,0,57,0
1,49500,Note_off_c,0,58,0
1,49500,Note_on_c,0,59,65
1,49500,Note_off_c,0,60,0
1,49500,Note_on_c,0,64,65
1,49500,Note_off_c,0,65,0
1,49500,Note_off_c,0,66,0
1,49560,Note_on_c,0,57,65
1,49560,Note_on_c,0,58,65
1,49560,Note_off_c,0,61,0
1,49560,Note_off_c,0,62,0
1,49560,Note_off_c,0,63,0
1,49560,Note_off_c,0,64,0
1,49560,Note_on_c,0,65,65
1,49560,Note_on_c,0,66,65
1,49560,Note_on_c,0,67,65
1,49620,Note_off_c,0,56,0
1,49620,Note_off_c,0,58,0
1,49620,Note_on_c,0,60,65
1,49620,Note_on_c,0,61,65
1,49620,Note_on_c,0,62,65
1,49620,Note_on_c,0,63,65
1,49620,Note_off_c,0,65,0
1,49620,Note_off_c,0,66,0
1,49680,Note_on_c,0,56,65
1,49680,Note_on_c,0,58,65
1,49680,Note_off_c,0,59,0
1,49680,Note_off_c,0,60,0
1,49680,Note_off_c,0,61,0
1,49680,Note_off_c,0,62,0
1,49680,Note_on_c,0,64,65
1,49680,Note_on_c,0,66,65
1,49680,Note_off_c,0,67,0
1,49740,Note_off_c,0,56,0
1,49740,Note_on_c,0,59,65
1,49740,Note_on_c,0,60,65
1,49740,Note_off_c,0,63,0
1,49740,Note_off_c,0,64,0
1,49740,Note_on_c,0,65,65
1,49740,Note_off_c,0,66,0
1,49800,Note_off_c,0,57,0
1,49800,Note_on_c,0,61,65
1,49800,Note_on_c,0,62,65
1,49800,Note_on_c,0,63,65
1,49800,Note_on_c,0,64,65
1,49800,Note_on_c,0,67,65
1,49860,Note_on_c,0,56,65
1,49860,Note_on_c,0,57,65
1,49860,Note_off_c,0,61,0
1,49860,Note_off_c,0,62,0
1,49860,Note_off_c,0,63,0
1,49860,Note_off_c,0,64,0
1,49860,Note_on_c,0,66,65
1,49860,Note_off_c,0,67,0
1,49920,Note_off_c,0,56,0
1,49920,Note_off_c,0,57,0
1,49920,Note_off_c,0,58,0
1,49920,Note_off_c,0,60,0
1,49920,Note_on_c,0,61,65
1,49920,Note_on_c,0,63,65
1,49920,Note_off_c,0,65,0
1,49920,Note_off_c,0,66,0
1,49980,Note_on_c,0,60,65
1,49980,Note_off_c,0,61,0
1,49980,Note_on_c,0,62,65
1,49980,Note_on_c,0,64,65
1,50040,Note_on_c,0,56,65
1,50040,Note_off_c,0,59,0
1,50040,Note_off_c,0,60,0
1,50040,Note_on_c,0,61,65
1,50040,Note_off_c,0,63,0
1,50040,Note_on_c,0,65,65
1,50040,Note_on_c,0,67,65
1,50100,Note_off_c,0,56,0
1,50100,Note_on_c,0,58,65
1,50100,Note_on_c,0,60,65
1,50100,Note_off_c,0,62,0
1,50100,Note_off_c,0,64,0
1,50160,Note_on_c,0,57,65
1,50160,Note_off_c,0,58,0
1,50160,Note_on_c,0,59,65
1,50160,Note_off_c,0,61,0
1,50160,Note_on_c,0,62,65
1,50160,Note_on_c,0,63,65
1,50160,Note_on_c,0,64,65
1,50220,Note_on_c,0,56,65
1,50220,Note_off_c,0,59,0
1,50220,Note_on_c,0,61,65
1,50220,Note_off_c,0,62,0
1,50220,Note_off_c,0,63,0
1,50280,Note_off_c,0,56,0
1,50280,Note_off_c,0,61,0
1,50280,Note_on_c,0,62,65
1,50280,Note_off_c,0,65,0
1,50280,Note_on_c,0,66,65
1,50340,Note_on_c,0,59,65
1,50340,Note_on_c,0,61,65
1,50340,Note_on_c,0,63,65
1,50340,Note_off_c,0,64,0
1,50340,Note_on_c,0,65,65
1,50340,Note_off_c,0,67,0
1,50400,Note_on_c,0,56,65
1,50400,Note_off_c,0,57,0
1,50400,Note_off_c,0,59,0
1,50400,Note_off_c,0,60,0
1,50400,Note_off_c,0,66,0
1,50460,Note_off_c,0,56,0
1,50460,Note_on_c,0,57,65
1,50460,Note_on_c,0,58,65
1,50460,Note_on_c,0,60,65
1,50460,Note_on_c,0,64,65
1,50460,Note_off_c,0,65,0
1,50460,Note_on_c,0,67,65
1,50520,Note_on_c,0,56,65
1,50520,Note_off_c,0,62,0
1,50520,Note_off_c,0,63,0
1,50520,Note_on_c,0,65,65
1,50520,Note_on_c,0,66,65
1,50520,Note_off_c,0,67,0
1,50580,Note_off_c,0,56,0
1,50580,Note_off_c,0,57,0
1,50580,Note_off_c,0,58,0
1,50580,Note_on_c,0,59,65
1,50580,Note_off_c,0,60,0
1,50580,Note_on_c,0,63,65
1,50580,Note_off_c,0,65,0
1,50640,Note_on_c,0,56,65
1,50640,Note_on_c,0,57,65
1,50640,Note_on_c,0,58,65
1,50640,Note_off_c,0,61,0
1,50640,Note_on_c,0,62,65
1,50640,Note_on_c,0,67,65
1,50700,Note_off_c,0,56,0
1,50700,Note_off_c,0,58,0
1,50700,Note_off_c,0,59,0
1,50700,Note_on_c,0,60,65
1,50700,Note_off_c,0,62,0
1,50700,Note_on_c,0,65,65
1,50700,Note_off_c,0,66,0
1,50760,Note_off_c,0,57,0
1,50760,Note_on_c,0,58,65
1,50760,Note_on_c,0,59,65
1,50760,Note_on_c,0,62,65
1,50760,Note_off_c,0,64,0
1,50760,Note_off_c,0,67,0
1,50820,Note_on_c,0,56,65
1,50820,Note_on_c,0,57,65
1,50820,Note_off_c,0,59,0
1,50820,Note_on_c,0,61,65
1,50820,Note_off_c,0,62,0
1,50820,Note_on_c,0,64,65
1,50820,Note_on_c,0,66,65
1,50820,Note_on_c,0,67,65
1,50880,Note_on_c,0,59,65
1,50880,Note_off_c,0,61,0
1,50880,Note_off_c,0,66,0
1,50940,Note_off_c,0,57,0
1,50940,Note_off_c,0,59,0
1,50940,Note_on_c,0,62,65
1,51000,Note_off_c,0,58,0
1,51000,Note_on_c,0,61,65
1,51000,Note_off_c,0,62,0
1,51000,Note_off_c,0,63,0
1,51000,Note_off_c,0,65,0
1,51060,Note_off_c,0,56,0
1,51060,Note_on_c,0,57,65
1,51060,Note_on_c,0,59,65
1,51060,Note_off_c,0,61,0
1,51060,Note_on_c,0,62,65
1,51060,Note_off_c,0,64,0
1,51060,Note_on_c,0,65,65
1,51060,Note_off_c,0,67,0
1,51120,Note_off_c,0,57,0
1,51120,Note_on_c,0,58,65
1,51120,Note_on_c,0,63,65
1,51120,Note_on_c,0,64,65
1,51180,Note_on_c,0,56,65
1,51180,Note_on_c,0,57,65
1,51180,Note_off_c,0,59,0
1,51180,Note_off_c,0,62,0
1,51180,Note_on_c,0,66,65
1,51180,Note_on_c,0,67,65
1,51240,Note_on_c,0,61,65
1,51240,Note_off_c,0,65,0
1,51300,Note_off_c,0,56,0
1,51300,Note_off_c,0,61,0
1,51300,Note_on_c,0,65,65
1,51300,Note_off_c,0,67,0
1,51360,Note_on_c,0,56,65
1,51360,Note_off_c,0,57,0
1,51360,Note_on_c,0,59,65
1,51360,Note_off_c,0,60,0
1,51360,Note_off_c,0,64,0
1,51360,Note_off_c,0,66,0
1,51360,Note_on_c,0,67,65
1,51420,Note_off_c,0,56,0
1,51420,Note_on_c,0,62,65
1,51420,Note_on_c,0,64,65
1,51420,Note_off_c,0,67,0
1,51480,Note_on_c,0,57,65
1,51480,Note_off_c,0,62,0
1,51480,Note_off_c,0,64,0
1,51480,Note_off_c,0,65,0
1,51480,Note_on_c,0,66,65
1,51480,Note_on_c,0,67,65
1,51540,Note_off_c,0,57,0
1,51540,Note_off_c,0,59,0
1,51540,Note_on_c,0,62,65
1,51540,Note_on_c,0,65,65
1,51540,Note_off_c,0,66,0
1,51600,Note_on_c,0,56,65
1,51600,Note_on_c,0,57,65
1,51600,Note_off_c,0,58,0
1,51600,Note_off_c,0,62,0
1,51600,Note_on_c,0,64,65
1,51660,Note_off_c,0,57,0
1,51660,Note_on_c,0,58,65
1,51660,Note_on_c,0,60,65
1,51660,Note_on_c,0,61,65
1,51660,Note_on_c,0,62,65
1,51660,Note_off_c,0,63,0
1,51660,Note_off_c,0,64,0
1,51720,Note_on_c,0,57,65
1,51720,Note_off_c,0,58,0
1,51720,Note_off_c,0,61,0
1,51720,Note_off_c,0,62,0
1,51720,Note_off_c,0,65,0
1,51720,Note_off_c,0,67,0
1,51780,Note_on_c,0,58,65
1,51780,Note_off_c,0,60,0
1,51780,Note_on_c,0,63,65
1,51780,Note_on_c,0,66,65
1,51780,Note_on_c,0,67,65
1,51840,Note_off_c,0,56,0
1,51840,Note_off_c,0,57,0
1,51840,Note_on_c,0,60,65
1,51840,Note_on_c,0,62,65
1,51840,Note_on_c,0,64,65
1,51840,Note_on_c,0,65,65
1,51840,Note_off_c,0,66,0
1,51900,Note_on_c,0,56,65
1,51900,Note_on_c,0,57,65
1,51900,Note_off_c,0,58,0
1,51900,Note_on_c,0,59,65
1,51900,Note_off_c,0,60,0
1,51900,Note_on_c,0,61,65
1,51900,Note_off_c,0,62,0
1,51900,Note_off_c,0,64,0
1,51900,Note_off_c,0,67,0
1,51960,Note_off_c,0,57,0
1,51960,Note_on_c,0,58,65
1,51960,Note_on_c,0,60,65
1,51960,Note_off_c,0,61,0
1,51960,Note_on_c,0,64,65
1,51960,Note_on_c,0,66,65
1,52020,Note_on_c,0,57,65
1,52020,Note_off_c,0,59,0
1,52020,Note_on_c,0,62,65
1,52020,Note_off_c,0,65,0
1,52020,Note_on_c,0,67,65
1,52080,Note_off_c,0,57,0
1,52080,Note_off_c,0,58,0
1,52080,Note_off_c,0,60,0
1,52080,Note_on_c,0,61,65
1,52080,Note_off_c,0,62,0
1,52080,Note_off_c,0,63,0
1,52080,Note_off_c,0,64,0
1,52080,Note_off_c,0,66,0
1,52080,Note_off_c,0,67,0
1,52140,Note_on_c,0,60,65
1,52140,Note_on_c,0,62,65
1,52140,Note_on_c,0,64,65
1,52140,Note_on_c,0,65,65
1,52140,Note_on_c,0,66,65
1,52140,Note_on_c,0,67,65
1,52200,Note_on_c,0,59,65
1,52200,Note_off_c,0,61,0
1,52200,Note_off_c,0,62,0
1,52200,Note_off_c,0,65,0
1,52200,Note_off_c,0,66,0
1,52200,Note_off_c,0,67,0
1,52260,Note_off_c,0,56,0
1,52260,Note_on_c,0,57,65
1,52260,Note_on_c,0,58,65
1,52260,Note_off_c,0,59,0
1,52260,Note_on_c,0,61,65
1,52260,Note_on_c,0,62,65
1,52260,Note_on_c,0,63,65
1,52260,Note_on_c,0,66,65
1,52320,Note_off_c,0,57,0
1,52320,Note_on_c,0,59,65
1,52320,Note_off_c,0,60,0
1,52320,Note_off_c,0,62,0
1,52320,Note_off_c,0,63,0
1,52320,Note_off_c,0,64,0
1,52320,Note_on_c,0,65,65
1,52320,Note_on_c,0,67,65
1,52380,Note_on_c,0,56,65
1,52380,Note_off_c,0,58,0
1,52380,Note_off_c,0,59,0
1,52380,Note_on_c,0,62,65
1,52380,Note_on_c,0,64,65
1,52380,Note_off_c,0,66,0
1,52380,Note_off_c,0,67,0
1,52440,Note_off_c,0,56,0
1,52440,Note_on_c,0,57,65
1,52440,Note_on_c,0,59,65
1,52440,Note_off_c,0,61,0
1,52440,Note_off_c,0,65,0
1,52440,Note_on_c,0,67,65
1,52500,Note_off_c,0,62,0
1,52500,Note_on_c,0,65,65
1,52500,Note_on_c,0,66,65
1,52560,Note_off_c,0,57,0
1,52560,Note_on_c,0,58,65
1,52560,Note_on_c,0,62,65
1,52560,Note_on_c,0,63,65
1,52560,Note_off_c,0,65,0
1,52560,Note_off_c,0,67,0
1,52620,Note_on_c,0,60,65
1,52620,Note_on_c,0,61,65
1,52620,Note_off_c,0,64,0
1,52620,Note_off_c,0,66,0
1,52620,Note_on_c,0,67,65
1,52680,Note_off_c,0,60,0
1,52680,Note_off_c,0,61,0
1,52680,Note_off_c,0,62,0
1,52680,Note_off_c,0,63,0
1,52740,Note_on_c,0,56,65
1,52740,Note_off_c,0,59,0
1,52740,Note_on_c,0,60,65
1,52740,Note_on_c,0,61,65
1,52740,Note_on_c,0,62,65
1,52740,Note_on_c,0,63,65
1,52740,Note_off_c,0,67,0
1,52800,Note_off_c,0,56,0
1,52800,Note_on_c,0,57,65
1,52800,Note_off_c,0,58,0
1,52800,Note_on_c,0,64,65
1,52800,Note_on_c,0,65,65
1,52800,Note_on_c,0,67,65
1,52860,Note_on_c,0,56,65
1,52860,Note_off_c,0,57,0
1,52860,Note_on_c,0,58,65
1,52860,Note_on_c,0,59,65
1,52860,Note_off_c,0,60,0
1,52860,Note_off_c,0,64,0
1,52860,Note_off_c,0,65,0
1,52860,Note_off_c,0,67,0
1,52920,Note_off_c,0,56,0
1,52920,Note_on_c,0,57,65
1,52920,Note_off_c,0,58,0
1,52920,Note_off_c,0,61,0
1,52920,Note_off_c,0,62,0
1,52920,Note_off_c,0,63,0
1,52920,Note_on_c,0,64,65
1,52920,Note_on_c,0,65,65
1,52980,Note_on_c,0,56,65
1,52980,Note_on_c,0,58,65
1,52980,Note_off_c,0,59,0
1,52980,Note_off_c,0,65,0
1,52980,Note_on_c,0,66,65
1,52980,Note_on_c,0,67,65
1,53040,Note_off_c,0,56,0
1,53040,Note_off_c,0,57,0
1,53040,Note_off_c,0,58,0
1,53040,Note_on_c,0,63,65
1,53040,Note_on_c,0,65,65
1,53100,Note_on_c,0,57,65
1,53100,Note_on_c,0,58,65
1,53100,Note_on_c,0,59,65
1,53100,Note_on_c,0,61,65
1,53100,Note_off_c,0,64,0
1,53100,Note_off_c,0,65,0
1,53100,Note_off_c,0,66,0
1,53160,Note_on_c,0,56,65
1,53160,Note_off_c,0,57,0
1,53160,Note_off_c,0,58,0
1,53160,Note_off_c,0,59,0
1,53160,Note_off_c,0,61,0
1,53160,Note_on_c,0,62,65
1,53160,Note_off_c,0,63,0
1,53160,Note_off_c,0,67,0
1,53220,Note_off_c,0,56,0
1,53220,Note_off_c,0,62,0
1,53220,Note_on_c,0,63,65
1,53520,Note_on_c,0,59,65
1,53520,Note_off_c,0,63,0
1,53520,Note_on_c,0,65,65
1,53520,Note_on_c,0,66,65
1,53580,Note_on_c,0,56,65
1,53580,Note_on_c,0,57,65
1,53580,Note_on_c,0,63,65
1,53580,Note_on_c,0,64,65
1,53580,Note_off_c,0,66,0
1,53580,Note_on_c,0,67,65
1,53640,Note_on_c,0,60,65
1,53640,Note_on_c,0,61,65
1,53640,Note_off_c,0,63,0
1,53640,Note_off_c,0,64,0
1,53640,Note_off_c,0,65,0
1,53640,Note_off_c,0,67,0
1,53700,Note_off_c,0,57,0
1,53700,Note_on_c,0,58,65
1,53700,Note_off_c,0,60,0
1,53700,Note_on_c,0,62,65
1,53700,Note_on_c,0,65,65
1,53700,Note_on_c,0,67,65
1,53760,Note_on_c,0,60,65
1,53760,Note_off_c,0,62,0
1,53760,Note_on_c,0,64,65
1,53760,Note_on_c,0,66,65
1,53760,Note_off_c,0,67,0
1,53820,Note_off_c,0,56,0
1,53820,Note_on_c,0,57,65
1,53820,Note_off_c,0,59,0
1,53820,Note_off_c,0,60,0
1,53820,Note_on_c,0,62,65
1,53820,Note_on_c,0,63,65
1,53820,Note_off_c,0,64,0
1,53820,Note_off_c,0,66,0
1,53880,Note_off_c,0,57,0
1,53880,Note_on_c,0,59,65
1,53880,Note_off_c,0,61,0
1,53880,Note_on_c,0,64,65
1,53880,Note_off_c,0,65,0
1,53880,Note_on_c,0,66,65
1,53940,Note_on_c,0,56,65
1,53940,Note_on_c,0,57,65
1,53940,Note_off_c,0,59,0
1,53940,Note_on_c,0,60,65
1,53940,Note_on_c,0,61,65
1,53940,Note_off_c,0,62,0
1,53940,Note_on_c,0,65,65
1,53940,Note_off_c,0,66,0
1,54000,Note_off_c,0,56,0
1,54000,Note_off_c,0,57,0
1,54000,Note_off_c,0,58,0
1,54000,Note_on_c,0,59,65
1,54000,Note_off_c,0,61,0
1,54000,Note_on_c,0,62,65
1,54000,Note_off_c,0,64,0
1,54000,Note_off_c,0,65,0
1,54060,Note_on_c,0,56,65
1,54060,Note_on_c,0,57,65
1,54060,Note_on_c,0,58,65
1,54060,Note_off_c,0,59,0
1,54060,Note_off_c,0,62,0
1,54060,Note_off_c,0,63,0
1,54060,Note_on_c,0,64,65
1,54060,Note_on_c,0,65,65
1,54060,Note_on_c,0,66,65
1,54060,Note_on_c,0,67,65
1,54120,Note_off_c,0,56,0
1,54120,Note_off_c,0,60,0
1,54120,Note_on_c,0,61,65
1,54120,Note_on_c,0,62,65
1,54120,Note_off_c,0,64,0
1,54120,Note_off_c,0,65,0
1,54120,Note_off_c,0,66,0
1,54180,Note_on_c,0,56,65
1,54180,Note_off_c,0,57,0
1,54180,Note_off_c,0,58,0
1,54180,Note_on_c,0,59,65
1,54180,Note_off_c,0,62,0
1,54180,Note_on_c,0,63,65
1,54180,Note_off_c,0,67,0
1,54240,Note_off_c,0,56,0
1,54240,Note_off_c,0,59,0
1,54240,Note_on_c,0,60,65
1,54240,Note_off_c,0,61,0
1,54240,Note_on_c,0,62,65
1,54240,Note_on_c,0,65,65
1,54240,Note_on_c,0,67,65
1,54300,Note_on_c,0,61,65
1,54300,Note_off_c,0,62,0
1,54300,Note_off_c,0,63,0
1,54300,Note_on_c,0,64,65
1,54360,Note_on_c,0,56,65
1,54360,Note_on_c,0,57,65
1,54360,Note_on_c,0,58,65
1,54360,Note_on_c,0,62,65
1,54360,Note_on_c,0,63,65
1,54360,Note_off_c,0,65,0
1,54360,Note_off_c,0,67,0
1,54420,Note_off_c,0,56,0
1,54420,Note_off_c,0,57,0
1,54420,Note_off_c,0,60,0
1,54420,Note_off_c,0,61,0
1,54420,Note_on_c,0,65,65
1,54420,Note_on_c,0,67,65
1,54480,Note_on_c,0,56,65
1,54480,Note_off_c,0,58,0
1,54480,Note_on_c,0,60,65
1,54480,Note_on_c,0,61,65
1,54480,Note_off_c,0,62,0
1,54480,Note_off_c,0,64,0
1,54480,Note_off_c,0,65,0
1,54480,Note_off_c,0,67,0
1,54540,Note_on_c,0,57,65
1,54540,Note_on_c,0,58,65
1,54540,Note_off_c,0,61,0
1,54540,Note_on_c,0,62,65
1,54540,Note_on_c,0,65,65
1,54540,Note_on_c,0,67,65
1,54600,Note_off_c,0,56,0
1,54600,Note_on_c,0,59,65
1,54600,Note_off_c,0,60,0
1,54600,Note_on_c,0,61,65
1,54660,Note_off_c,0,59,0
1,54660,Note_on_c,0,60,65
1,54660,Note_off_c,0,62,0
1,54660,Note_off_c,0,63,0
1,54660,Note_off_c,0,65,0
1,54660,Note_off_c,0,67,0
1,54720,Note_on_c,0,56,65
1,54720,Note_on_c,0,59,65
1,54720,Note_off_c,0,60,0
1,54720,Note_on_c,0,62,65
1,54720,Note_on_c,0,63,65
1,54720,Note_on_c,0,65,65
1,54720,Note_on_c,0,66,65
1,54720,Note_on_c,0,67,65
1,54780,Note_off_c,0,56,0
1,54780,Note_off_c,0,58,0
1,54780,Note_off_c,0,65,0
1,54780,Note_off_c,0,66,0
1,54840,Note_on_c,0,56,65
1,54840,Note_off_c,0,57,0
1,54840,Note_on_c,0,58,65
1,54840,Note_off_c,0,59,0
1,54840,Note_on_c,0,60,65
1,54840,Note_off_c,0,61,0
1,54840,Note_on_c,0,64,65
1,54840,Note_on_c,0,66,65
1,54900,Note_off_c,0,56,0
1,54900,Note_on_c,0,57,65
1,54900,Note_off_c,0,58,0
1,54900,Note_off_c,0,63,0
1,54900,Note_off_c,0,64,0
1,54900,Note_off_c,0,66,0
1,54960,Note_on_c,0,56,65
1,54960,Note_off_c,0,57,0
1,54960,Note_on_c,0,58,65
1,54960,Note_off_c,0,60,0
1,54960,Note_off_c,0,62,0
1,54960,Note_on_c,0,63,65
1,54960,Note_off_c,0,67,0
1,55020,Note_off_c,0,58,0
1,55020,Note_on_c,0,59,65
1,55020,Note_on_c,0,60,65
1,55020,Note_on_c,0,61,65
1,55020,Note_on_c,0,62,65
1,55020,Note_on_c,0,66,65
1,55080,Note_off_c,0,56,0
1,55080,Note_on_c,0,57,65
1,55080,Note_on_c,0,65,65
1,55140,Note_off_c,0,57,0
1,55140,Note_off_c,0,59,0
1,55140,Note_off_c,0,61,0
1,55140,Note_off_c,0,63,0
1,55140,Note_off_c,0,65,0
1,55200,Note_on_c,0,56,65
1,55200,Note_on_c,0,57,65
1,55200,Note_on_c,0,58,65
1,55200,Note_off_c,0,60,0
1,55200,Note_on_c,0,63,65
1,55200,Note_on_c,0,64,65
1,55200,Note_on_c,0,65,65
1,55200,Note_on_c,0,67,65
1,55260,Note_off_c,0,58,0
1,55260,Note_on_c,0,60,65
1,55260,Note_off_c,0,66,0
1,55260,Note_off_c,0,67,0
1,55320,Note_off_c,0,57,0
1,55320,Note_off_c,0,60,0
1,55320,Note_on_c,0,61,65
1,55320,Note_off_c,0,62,0
1,55320,Note_off_c,0,63,0
1,55320,Note_off_c,0,64,0
1,55320,Note_off_c,0,65,0
1,55320,Note_on_c,0,66,65
1,55320,Note_on_c,0,67,65
1,55380,Note_on_c,0,58,65
1,55380,Note_on_c,0,59,65
1,55380,Note_on_c,0,62,65
1,55380,Note_off_c,0,66,0
1,55380,Note_off_c,0,67,0
1,55440,Note_off_c,0,56,0
1,55440,Note_on_c,0,57,65
1,55440,Note_off_c,0,58,0
1,55440,Note_off_c,0,59,0
1,55440,Note_on_c,0,60,65
1,55440,Note_off_c,0,61,0
1,55440,Note_on_c,0,64,65
1,55440,Note_on_c,0,65,65
1,55500,Note_off_c,0,57,0
1,55500,Note_off_c,0,62,0
1,55500,Note_on_c,0,63,65
1,55500,Note_off_c,0,65,0
1,55500,Note_on_c,0,66,65
1,55500,Note_on_c,0,67,65
1,55560,Note_on_c,0,56,65
1,55560,Note_on_c,0,61,65
1,55560,Note_off_c,0,64,0
1,55560,Note_on_c,0,65,65
1,55620,Note_off_c,0,56,0
1,55620,Note_on_c,0,58,65
1,55620,Note_off_c,0,61,0
1,55620,Note_on_c,0,62,65
1,55620,Note_off_c,0,63,0
1,55620,Note_off_c,0,65,0
1,55680,Note_on_c,0,57,65
1,55680,Note_on_c,0,59,65
1,55680,Note_off_c,0,60,0
1,55680,Note_off_c,0,62,0
1,55680,Note_on_c,0,63,65
1,55680,Note_on_c,0,65,65
1,55740,Note_on_c,0,56,65
1,55740,Note_off_c,0,58,0
1,55740,Note_off_c,0,59,0
1,55740,Note_on_c,0,60,65
1,55740,Note_on_c,0,62,65
1,55740,Note_off_c,0,63,0
1,55740,Note_on_c,0,64,65
1,55740,Note_off_c,0,66,0
1,55740,Note_off_c,0,67,0
1,55800,Note_off_c,0,56,0
1,55800,Note_off_c,0,60,0
1,55800,Note_off_c,0,65,0
1,55860,Note_off_c,0,57,0
1,55860,Note_on_c,0,58,65
1,55860,Note_on_c,0,60,65
1,55860,Note_on_c,0,61,65
1,55860,Note_off_c,0,62,0
1,55860,Note_on_c,0,63,65
1,55860,Note_on_c,0,65,65
1,55860,Note_on_c,0,66,65
1,55860,Note_on_c,0,67,65
1,55920,Note_on_c,0,57,65
1,55920,Note_off_c,0,58,0
1,55920,Note_off_c,0,60,0
1,55920,Note_off_c,0,61,0
1,55920,Note_off_c,0,63,0
1,55980,Note_on_c,0,56,65
1,55980,Note_on_c,0,58,65
1,55980,Note_on_c,0,59,65
1,55980,Note_on_c,0,60,65
1,55980,Note_on_c,0,61,65
1,55980,Note_on_c,0,62,65
1,55980,Note_off_c,0,66,0
1,56040,Note_off_c,0,57,0
1,56040,Note_off_c,0,58,0
1,56040,Note_off_c,0,59,0
1,56040,Note_off_c,0,62,0
1,56040,Note_on_c,0,63,65
1,56040,Note_off_c,0,65,0
1,56040,Note_off_c,0,67,0
1,56100,Note_on_c,0,57,65
1,56100,Note_off_c,0,61,0
1,56100,Note_on_c,0,62,65
1,56100,Note_off_c,0,63,0
1,56160,Note_off_c,0,56,0
1,56160,Note_off_c,0,57,0
1,56160,Note_on_c,0,59,65
1,56160,Note_off_c,0,62,0
1,56160,Note_off_c,0,64,0
1,56160,Note_on_c,0,65,65
1,56220,Note_on_c,0,56,65
1,56220,Note_on_c,0,57,65
1,56220,Note_off_c,0,59,0
1,56220,Note_off_c,0,60,0
1,56220,Note_on_c,0,63,65
1,56220,Note_on_c,0,64,65
1,56220,Note_on_c,0,67,65
1,56280,Note_on_c,0,61,65
1,56280,Note_on_c,0,66,65
1,56340,Note_off_c,0,57,0
1,56340,Note_on_c,0,59,65
1,56340,Note_off_c,0,61,0
1,56340,Note_on_c,0,62,65
1,56340,Note_off_c,0,64,0
1,56340,Note_off_c,0,65,0
1,56340,Note_off_c,0,66,0
1,56400,Note_off_c,0,56,0
1,56400,Note_off_c,0,59,0
1,56400,Note_on_c,0,61,65
1,56400,Note_off_c,0,62,0
1,56400,Note_off_c,0,63,0
1,56400,Note_on_c,0,65,65
1,56460,Note_on_c,0,57,65
1,56460,Note_on_c,0,58,65
1,56460,Note_on_c,0,59,65
1,56460,Note_on_c,0,60,65
1,56460,Note_off_c,0,61,0
1,56460,Note_on_c,0,62,65
1,56460,Note_on_c,0,64,65
1,56460,Note_off_c,0,65,0
1,56520,Note_off_c,0,57,0
1,56520,Note_off_c,0,58,0
1,56520,Note_on_c,0,61,65
1,56520,Note_off_c,0,64,0
1,56520,Note_off_c,0,67,0
1,56580,Note_on_c,0,56,65
1,56580,Note_on_c,0,57,65
1,56580,Note_off_c,0,59,0
1,56580,Note_off_c,0,61,0
1,56580,Note_on_c,0,65,65
1,56580,Note_on_c,0,66,65
1,56640,Note_off_c,0,56,0
1,56640,Note_off_c,0,57,0
1,56640,Note_on_c,0,59,65
1,56640,Note_off_c,0,60,0
1,56640,Note_on_c,0,61,65
1,56640,Note_off_c,0,62,0
1,56640,Note_on_c,0,64,65
1,56640,Note_off_c,0,65,0
1,56640,Note_off_c,0,66,0
1,56640,Note_on_c,0,67,65
1,56700,Note_off_c,0,59,0
1,56700,Note_on_c,0,60,65
1,56700,Note_on_c,0,63,65
1,56700,Note_on_c,0,65,65
1,56700,Note_on_c,0,66,65
1,56760,Note_on_c,0,56,65
1,56760,Note_on_c,0,57,65
1,56760,Note_on_c,0,58,65
1,56760,Note_on_c,0,59,65
1,56760,Note_off_c,0,61,0
1,56760,Note_off_c,0,63,0
1,56760,Note_off_c,0,66,0
1,56820,Note_off_c,0,56,0
1,56820,Note_off_c,0,59,0
1,56820,Note_on_c,0,61,65
1,56820,Note_on_c,0,62,65
1,56820,Note_on_c,0,66,65
1,56820,Note_off_c,0,67,0
1,56880,Note_on_c,0,56,65
1,56880,Note_off_c,0,57,0
1,56880,Note_off_c,0,58,0
1,56880,Note_off_c,0,64,0
1,56880,Note_off_c,0,65,0
1,56880,Note_on_c,0,67,65
1,56940,Note_on_c,0,57,65
1,56940,Note_on_c,0,58,65
1,56940,Note_off_c,0,60,0
1,56940,Note_off_c,0,61,0
1,56940,Note_off_c,0,66,0
1,56940,Note_off_c,0,67,0
1,57000,Note_off_c,0,57,0
1,57000,Note_on_c,0,60,65
1,57000,Note_off_c,0,62,0
1,57000,Note_on_c,0,63,65
1,57000,Note_on_c,0,64,65
1,57000,Note_on_c,0,65,65
1,57000,Note_on_c,0,66,65
1,57060,Note_off_c,0,56,0
1,57060,Note_on_c,0,57,65
1,57060,Note_on_c,0,59,65
1,57060,Note_off_c,0,60,0
1,57060,Note_off_c,0,63,0
1,57060,Note_on_c,0,67,65
1,57120,Note_off_c,0,57,0
1,57120,Note_off_c,0,59,0
1,57120,Note_on_c,0,61,65
1,57120,Note_on_c,0,62,65
1,57120,Note_on_c,0,63,65
1,57120,Note_off_c,0,64,0
1,57180,Note_on_c,0,59,65
1,57180,Note_on_c,0,60,65
1,57180,Note_off_c,0,62,0
1,57180,Note_on_c,0,64,65
1,57180,Note_off_c,0,65,0
1,57180,Note_off_c,0,67,0
1,57240,Note_off_c,0,58,0
1,57240,Note_off_c,0,59,0
1,57240,Note_off_c,0,61,0
1,57240,Note_off_c,0,63,0
1,57240,Note_on_c,0,65,65
1,57240,Note_off_c,0,66,0
1,57300,Note_on_c,0,56,65
1,57300,Note_on_c,0,58,65
1,57300,Note_on_c,0,62,65
1,57300,Note_on_c,0,63,65
1,57300,Note_off_c,0,64,0
1,57300,Note_on_c,0,66,65
1,57360,Note_off_c,0,56,0
1,57360,Note_on_c,0,57,65
1,57360,Note_on_c,0,59,65
1,57360,Note_on_c,0,61,65
1,57360,Note_off_c,0,63,0
1,57360,Note_on_c,0,64,65
1,57360,Note_off_c,0,66,0
1,57420,Note_on_c,0,56,65
1,57420,Note_off_c,0,59,0
1,57420,Note_off_c,0,60,0
1,57420,Note_off_c,0,61,0
1,57420,Note_on_c,0,63,65
1,57480,Note_off_c,0,58,0
1,57480,Note_off_c,0,63,0
1,57480,Note_on_c,0,66,65
1,57480,Note_on_c,0,67,65
1,57540,Note_off_c,0,56,0
1,57540,Note_off_c,0,57,0
1,57540,Note_on_c,0,58,65
1,57540,Note_on_c,0,60,65
1,57540,Note_on_c,0,61,65
1,57540,Note_off_c,0,62,0
1,57540,Note_off_c,0,64,0
1,57540,Note_off_c,0,67,0
1,57600,Note_on_c,0,56,65
1,57600,Note_on_c,0,57,65
1,57600,Note_off_c,0,58,0
1,57600,Note_on_c,0,64,65
1,57600,Note_off_c,0,65,0
1,57600,Note_on_c,0,67,65
1,57660,Note_on_c,0,58,65
1,57660,Note_on_c,0,59,65
1,57660,Note_off_c,0,60,0
1,57660,Note_off_c,0,61,0
1,57660,Note_on_c,0,63,65
1,57660,Note_off_c,0,64,0
1,57660,Note_off_c,0,66,0
1,57720,Note_off_c,0,56,0
1,57720,Note_off_c,0,58,0
1,57720,Note_on_c,0,60,65
1,57720,Note_on_c,0,61,65
1,57720,Note_on_c,0,62,65
1,57720,Note_off_c,0,63,0
1,57720,Note_on_c,0,64,65
1,57720,Note_on_c,0,65,65
1,57780,Note_off_c,0,57,0
1,57780,Note_off_c,0,59,0
1,57780,Note_off_c,0,60,0
1,57780,Note_off_c,0,61,0
1,57780,Note_off_c,0,62,0
1,57780,Note_on_c,0,63,65
1,57780,Note_off_c,0,64,0
1,57780,Note_on_c,0,66,65
1,57840,Note_on_c,0,56,65
1,57840,Note_on_c,0,57,65
1,57840,Note_on_c,0,58,65
1,57840,Note_on_c,0,59,65
1,57840,Note_on_c,0,61,65
1,57840,Note_on_c,0,62,65
1,57840,Note_on_c,0,64,65
1,57840,Note_off_c,0,65,0
1,57840,Note_off_c,0,67,0
1,57900,Note_off_c,0,59,0
1,57900,Note_on_c,0,60,65
1,57900,Note_on_c,0,65,65
1,57960,Note_off_c,0,58,0
1,57960,Note_off_c,0,60,0
1,57960,Note_off_c,0,62,0
1,57960,Note_off_c,0,63,0
1,57960,Note_off_c,0,65,0
1,57960,Note_off_c,0,66,0
1,58020,Note_off_c,0,56,0
1,58020,Note_on_c,0,58,65
1,58020,Note_on_c,0,59,65
1,58020,Note_on_c,0,60,65
1,58020,Note_off_c,0,61,0
1,58020,Note_on_c,0,66,65
1,58020,Note_on_c,0,67,65
1,58080,Note_off_c,0,57,0
1,58080,Note_off_c,0,60,0
1,58080,Note_on_c,0,61,65
1,58080,Note_on_c,0,62,65
1,58080,Note_on_c,0,65,65
1,58080,Note_off_c,0,66,0
1,58140,Note_on_c,0,56,65
1,58140,Note_on_c,0,57,65
1,58140,Note_off_c,0,58,0
1,58140,Note_off_c,0,59,0
1,58140,Note_on_c,0,60,65
1,58140,Note_off_c,0,61,0
1,58140,Note_off_c,0,62,0
1,58140,Note_off_c,0,64,0
1,58140,Note_on_c,0,66,65
1,58140,Note_off_c,0,67,0
1,58200,Note_on_c,0,58,65
1,58200,Note_off_c,0,60,0
1,58260,Note_on_c,0,59,65
1,58260,Note_on_c,0,60,65
1,58260,Note_on_c,0,61,65
1,58260,Note_on_c,0,62,65
1,58260,Note_on_c,0,63,65
1,58260,Note_off_c,0,65,0
1,58260,Note_off_c,0,66,0
1,58260,Note_on_c,0,67,65
1,58320,Note_off_c,0,56,0
1,58320,Note_off_c,0,58,0
1,58320,Note_off_c,0,59,0
1,58320,Note_off_c,0,60,0
1,58320,Note_off_c,0,61,0
1,58320,Note_off_c,0,62,0
1,58320,Note_on_c,0,64,65
1,58320,Note_on_c,0,65,65
1,58320,Note_on_c,0,66,65
1,58380,Note_on_c,0,56,65
1,58380,Note_off_c,0,57,0
1,58380,Note_on_c,0,58,65
1,58380,Note_on_c,0,60,65
1,58380,Note_off_c,0,65,0
1,58380,Note_off_c,0,67,0
1,58440,Note_off_c,0,56,0
1,58440,Note_on_c,0,57,65
1,58440,Note_off_c,0,58,0
1,58440,Note_on_c,0,59,65
1,58440,Note_on_c,0,61,65
1,58440,Note_on_c,0,65,65
1,58440,Note_off_c,0,66,0
1,58440,Note_on_c,0,67,65
1,58500,Note_on_c,0,56,65
1,58500,Note_off_c,0,57,0
1,58500,Note_off_c,0,59,0
1,58500,Note_off_c,0,60,0
1,58500,Note_on_c,0,62,65
1,58500,Note_off_c,0,64,0
1,58500,Note_on_c,0,66,65
1,58560,Note_on_c,0,57,65
1,58560,Note_on_c,0,58,65
1,58560,Note_on_c,0,59,65
1,58560,Note_on_c,0,60,65
1,58560,Note_off_c,0,62,0
1,58560,Note_off_c,0,66,0
1,58620,Note_off_c,0,56,0
1,58620,Note_off_c,0,60,0
1,58620,Note_off_c,0,61,0
1,58620,Note_on_c,0,62,65
1,58620,Note_off_c,0,63,0
1,58620,Note_on_c,0,64,65
1,58620,Note_off_c,0,65,0
1,58680,Note_off_c,0,57,0
1,58680,Note_off_c,0,58,0
1,58680,Note_off_c,0,59,0
1,58680,Note_on_c,0,61,65
1,58680,Note_off_c,0,62,0
1,58680,Note_on_c,0,63,65
1,58680,Note_off_c,0,64,0
1,58680,Note_on_c,0,66,65
1,58680,Note_off_c,0,67,0
1,58740,Note_on_c,0,57,65
1,58740,Note_on_c,0,59,65
1,58740,Note_on_c,0,62,65
1,58740,Note_on_c,0,65,65
1,58740,Note_on_c,0,67,65
1,58800,Note_on_c,0,60,65
1,58800,Note_off_c,0,61,0
1,58800,Note_off_c,0,62,0
1,58800,Note_on_c,0,64,65
1,58800,Note_off_c,0,65,0
1,58800,Note_off_c,0,66,0
1,58800,Note_off_c,0,67,0
1,58860,Note_on_c,0,61,65
1,58860,Note_on_c,0,62,65
1,58860,Note_off_c,0,63,0
1,58860,Note_on_c,0,66,65
1,58920,Note_on_c,0,56,65
1,58920,Note_off_c,0,59,0
1,58920,Note_off_c,0,60,0
1,58920,Note_off_c,0,62,0
1,58920,Note_on_c,0,63,65
1,58920,Note_off_c,0,64,0
1,58920,Note_on_c,0,65,65
1,58980,Note_on_c,0,58,65
1,58980,Note_on_c,0,59,65
1,58980,Note_on_c,0,62,65
1,58980,Note_off_c,0,63,0
1,58980,Note_on_c,0,64,65
1,58980,Note_off_c,0,65,0
1,58980,Note_off_c,0,66,0
1,58980,Note_on_c,0,67,65
1,59040,Note_off_c,0,57,0
1,59040,Note_on_c,0,63,65
1,59040,Note_on_c,0,65,65
1,59040,Note_on_c,0,66,65
1,59100,Note_off_c,0,56,0
1,59100,Note_on_c,0,57,65
1,59100,Note_off_c,0,58,0
1,59100,Note_off_c,0,59,0
1,59100,Note_on_c,0,60,65
1,59100,Note_off_c,0,61,0
1,59100,Note_off_c,0,63,0
1,59100,Note_off_c,0,65,0
1,59160,Note_on_c,0,56,65
1,59160,Note_off_c,0,60,0
1,59160,Note_on_c,0,61,65
1,59160,Note_off_c,0,62,0
1,59160,Note_off_c,0,64,0
1,59160,Note_off_c,0,67,0
1,59220,Note_off_c,0,56,0
1,59220,Note_on_c,0,62,65
1,59220,Note_on_c,0,64,65
1,59220,Note_on_c,0,67,65
1,59280,Note_on_c,0,56,65
1,59280,Note_off_c,0,57,0
1,59280,Note_on_c,0,58,65
1,59280,Note_on_c,0,59,65
1,59280,Note_on_c,0,60,65
1,59280,Note_off_c,0,61,0
1,59280,Note_off_c,0,62,0
1,59280,Note_on_c,0,65,65
1,59280,Note_off_c,0,67,0
1,59340,Note_off_c,0,56,0
1,59340,Note_on_c,0,57,65
1,59340,Note_off_c,0,58,0
1,59340,Note_off_c,0,59,0
1,59340,Note_on_c,0,61,65
1,59340,Note_on_c,0,63,65
1,59340,Note_off_c,0,65,0
1,59400,Note_off_c,0,57,0
1,59400,Note_on_c,0,58,65
1,59400,Note_on_c,0,59,65
1,59400,Note_off_c,0,63,0
1,59400,Note_off_c,0,64,0
1,59400,Note_off_c,0,66,0
1,59400,Note_on_c,0,67,65
1,59460,Note_on_c,0,57,65
1,59460,Note_off_c,0,59,0
1,59460,Note_on_c,0,62,65
1,59460,Note_on_c,0,64,65
1,59460,Note_on_c,0,65,65
1,59460,Note_off_c,0,67,0
1,59520,Note_on_c,0,56,65
1,59520,Note_off_c,0,57,0
1,59520,Note_off_c,0,58,0
1,59520,Note_on_c,0,59,65
1,59520,Note_off_c,0,60,0
1,59520,Note_off_c,0,61,0
1,59520,Note_off_c,0,62,0
1,59520,Note_on_c,0,67,65
1,59580,Note_off_c,0,56,0
1,59580,Note_on_c,0,57,65
1,59580,Note_on_c,0,58,65
1,59580,Note_off_c,0,64,0
1,59580,Note_on_c,0,66,65
1,59580,Note_off_c,0,67,0
1,59640,Note_on_c,0,56,65
1,59640,Note_off_c,0,57,0
1,59640,Note_off_c,0,58,0
1,59640,Note_off_c,0,59,0
1,59640,Note_on_c,0,62,65
1,59700,Note_on_c,0,57,65
1,59700,Note_on_c,0,58,65
1,59700,Note_on_c,0,60,65
1,59700,Note_on_c,0,63,65
1,59700,Note_on_c,0,64,65
1,59760,Note_off_c,0,56,0
1,59760,Note_on_c,0,59,65
1,59760,Note_on_c,0,61,65
1,59760,Note_off_c,0,62,0
1,59760,Note_off_c,0,63,0
1,59760,Note_off_c,0,64,0
1,59760,Note_off_c,0,66,0
1,59760,Note_on_c,0,67,65
1,59820,Note_on_c,0,56,65
1,59820,Note_off_c,0,58,0
1,59820,Note_on_c,0,62,65
1,59880,Note_off_c,0,56,0
1,59880,Note_off_c,0,57,0
1,59880,Note_off_c,0,59,0
1,59880,Note_off_c,0,61,0
1,59880,Note_off_c,0,62,0
1,59880,Note_on_c,0,63,65
1,59880,Note_on_c,0,64,65
1,59880,Note_off_c,0,67,0
1,59940,Note_on_c,0,56,65
1,59940,Note_on_c,0,57,65
1,59940,Note_off_c,0,60,0
1,59940,Note_on_c,0,62,65
1,59940,Note_off_c,0,64,0
1,59940,Note_on_c,0,67,65
1,60000,Note_on_c,0,64,65
1,60000,Note_off_c,0,65,0
1,60000,Note_on_c,0,66,65
1,60060,Note_on_c,0,58,65
1,60060,Note_off_c,0,63,0
1,60060,Note_on_c,0,65,65
1,60060,Note_off_c,0,66,0
1,60120,Note_off_c,0,58,0
1,60120,Note_on_c,0,59,65
1,60120,Note_off_c,0,64,0
1,60120,Note_on_c,0,66,65
1,60180,Note_off_c,0,56,0
1,60180,Note_on_c,0,58,65
1,60180,Note_on_c,0,60,65
1,60180,Note_off_c,0,62,0
1,60180,Note_on_c,0,63,65
1,60180,Note_off_c,0,65,0
1,60180,Note_off_c,0,66,0
1,60240,Note_on_c,0,56,65
1,60240,Note_off_c,0,59,0
1,60240,Note_off_c,0,60,0
1,60240,Note_on_c,0,61,65
1,60240,Note_on_c,0,66,65
1,60240,Note_off_c,0,67,0
1,60300,Note_off_c,0,56,0
1,60300,Note_off_c,0,58,0
1,60300,Note_on_c,0,59,65
1,60300,Note_on_c,0,60,65
1,60300,Note_off_c,0,61,0
1,60300,Note_on_c,0,62,65
1,60300,Note_on_c,0,64,65
1,60300,Note_on_c,0,65,65
1,60360,Note_on_c,0,56,65
1,60360,Note_off_c,0,57,0
1,60360,Note_on_c,0,58,65
1,60360,Note_on_c,0,61,65
1,60360,Note_off_c,0,63,0
1,60360,Note_off_c,0,64,0
1,60360,Note_off_c,0,65,0
1,60360,Note_off_c,0,66,0
1,60420,Note_off_c,0,58,0
1,60420,Note_off_c,0,60,0
1,60420,Note_off_c,0,61,0
1,60420,Note_off_c,0,62,0
1,60420,Note_on_c,0,64,65
1,60420,Note_on_c,0,66,65
1,60420,Note_on_c,0,67,65
1,60480,Note_off_c,0,56,0
1,60480,Note_on_c,0,57,65
1,60480,Note_off_c,0,59,0
1,60480,Note_off_c,0,64,0
1,60480,Note_off_c,0,67,0
1,60540,Note_on_c,0,56,65
1,60540,Note_on_c,0,59,65
1,60540,Note_on_c,0,61,65
1,60540,Note_on_c,0,62,65
1,60540,Note_on_c,0,63,65
1,60540,Note_on_c,0,64,65
1,60540,Note_on_c,0,65,65
1,60540,Note_off_c,0,66,0
1,60540,Note_on_c,0,67,65
1,60600,Note_off_c,0,57,0
1,60600,Note_off_c,0,59,0
1,60600,Note_on_c,0,60,65
1,60600,Note_off_c,0,62,0
1,60600,Note_off_c,0,63,0
1,60600,Note_off_c,0,65,0
1,60600,Note_off_c,0,67,0
1,60660,Note_off_c,0,56,0
1,60660,Note_on_c,0,59,65
1,60660,Note_off_c,0,61,0
1,60660,Note_on_c,0,62,65
1,60660,Note_on_c,0,63,65
1,60660,Note_off_c,0,64,0
1,60660,Note_on_c,0,65,65
1,60660,Note_on_c,0,66,65
1,60720,Note_on_c,0,56,65
1,60720,Note_on_c,0,57,65
1,60720,Note_on_c,0,58,65
1,60720,Note_off_c,0,59,0
1,60720,Note_on_c,0,61,65
1,60720,Note_off_c,0,62,0
1,60720,Note_on_c,0,67,65
1,60780,Note_off_c,0,57,0
1,60780,Note_on_c,0,59,65
1,60780,Note_on_c,0,62,65
1,60780,Note_on_c,0,64,65
1,60840,Note_off_c,0,56,0
1,60840,Note_on_c,0,57,65
1,60840,Note_off_c,0,58,0
1,60840,Note_off_c,0,59,0
1,60840,Note_off_c,0,62,0
1,60840,Note_off_c,0,63,0
1,60840,Note_off_c,0,65,0
1,60840,Note_off_c,0,66,0
1,60900,Note_on_c,0,56,65
1,60900,Note_off_c,0,57,0
1,60900,Note_off_c,0,61,0
1,60900,Note_on_c,0,63,65
1,60900,Note_off_c,0,67,0
1,60960,Note_off_c,0,56,0
1,60960,Note_on_c,0,57,65
1,60960,Note_on_c,0,58,65
1,60960,Note_off_c,0,60,0
1,60960,Note_off_c,0,63,0
1,60960,Note_on_c,0,65,65
1,60960,Note_on_c,0,67,65
1,61020,Note_on_c,0,56,65
1,61020,Note_off_c,0,58,0
1,61020,Note_on_c,0,60,65
1,61020,Note_on_c,0,61,65
1,61020,Note_on_c,0,62,65
1,61020,Note_on_c,0,63,65
1,61020,Note_off_c,0,65,0
1,61080,Note_off_c,0,62,0
1,61080,Note_off_c,0,63,0
1,61080,Note_off_c,0,64,0
1,61080,Note_on_c,0,66,65
1,61140,Note_off_c,0,57,0
1,61140,Note_on_c,0,58,65
1,61140,Note_off_c,0,66,0
1,61200,Note_off_c,0,56,0
1,61200,Note_on_c,0,57,65
1,61200,Note_on_c,0,59,65
1,61200,Note_off_c,0,60,0
1,61200,Note_on_c,0,62,65
1,61200,Note_off_c,0,67,0
1,61260,Note_on_c,0,60,65
1,61260,Note_on_c,0,64,65
1,61260,Note_on_c,0,65,65
1,61260,Note_on_c,0,66,65
1,61320,Note_off_c,0,58,0
1,61320,Note_off_c,0,61,0
1,61320,Note_on_c,0,63,65
1,61320,Note_off_c,0,64,0
1,61320,Note_off_c,0,66,0
1,61320,Note_on_c,0,67,65
1,61380,Note_off_c,0,59,0
1,61380,Note_off_c,0,60,0
1,61380,Note_off_c,0,62,0
1,61380,Note_off_c,0,65,0
1,61500,End_track
0,0,End_of_file
